<svg xmlns="http://www.w3.org/2000/svg" width="294" height="54" viewBox="0 0 294 54" fill="none"><rect width="294" height="54" fill="url(#paint0_linear_0_690)"></rect><circle cx="47.9764" cy="26.9999" r="6.62831" fill="#B9A69A"></circle><path d="M72.7069 34.6938C68.8886 34.6938 66.4076 32.1547 66.4076 27.7162C66.4076 23.297 68.8886 20.7579 72.7263 20.7579C75.6336 20.7579 77.9595 22.231 78.2696 25.4291H75.7887C75.3816 23.7234 74.1799 22.9675 72.6681 22.9675C70.2066 22.9675 69.0049 24.9057 69.0049 27.7162C69.0049 30.5266 70.1678 32.4842 72.6681 32.4842C74.1799 32.4842 75.3816 31.7283 75.7887 29.9839H78.2696C77.9595 33.2208 75.6336 34.6938 72.7069 34.6938ZM78.9221 34.5V20.9323H84.2523C87.7411 20.9323 89.3304 22.7349 89.3304 25.3709C89.3304 27.3285 88.4389 28.8403 86.5006 29.4606L89.4467 34.5H86.9076L84.2135 29.7901H81.4612V34.5H78.9221ZM84.1553 27.5611C85.8998 27.5611 86.7138 26.7277 86.7138 25.3709C86.7138 23.9948 85.8998 23.1613 84.1553 23.1613H81.4612V27.5611H84.1553ZM90.0859 34.5V20.9323H92.625V34.5H90.0859ZM93.0569 34.5L98.0381 20.9323H101.294L106.276 34.5H103.581L102.612 31.7283H96.7007L95.7316 34.5H93.0569ZM97.3791 29.8289H101.953L99.7438 23.549H99.5887L97.3791 29.8289ZM106.697 34.5V20.9323H111.62C115.865 20.9323 118.036 23.3745 118.036 27.7162C118.036 32.0578 115.865 34.5 111.62 34.5H106.697ZM111.368 32.271C114.334 32.271 115.439 30.8755 115.439 27.7162C115.439 24.5568 114.334 23.1613 111.368 23.1613H109.236V32.271H111.368ZM124.95 34.6938C121.151 34.6938 118.573 31.9609 118.573 27.7162C118.573 23.4521 121.151 20.7579 124.95 20.7579C128.749 20.7579 131.346 23.4521 131.346 27.7162C131.346 31.9609 128.749 34.6938 124.95 34.6938ZM124.95 32.4842C127.276 32.4842 128.71 30.6817 128.71 27.7162C128.71 24.7313 127.276 22.9675 124.95 22.9675C122.624 22.9675 121.19 24.7313 121.19 27.7162C121.19 30.6817 122.624 32.4842 124.95 32.4842ZM132.167 34.5V20.9323H137.497C140.986 20.9323 142.575 22.7349 142.575 25.3709C142.575 27.3285 141.684 28.8403 139.745 29.4606L142.691 34.5H140.152L137.458 29.7901H134.706V34.5H132.167ZM137.4 27.5611C139.144 27.5611 139.959 26.7277 139.959 25.3709C139.959 23.9948 139.144 23.1613 137.4 23.1613H134.706V27.5611H137.4ZM142.558 34.5L147.539 20.9323H150.795L155.776 34.5H153.082L152.113 31.7283H146.201L145.232 34.5H142.558ZM146.88 29.8289H151.454L149.245 23.549H149.089L146.88 29.8289ZM159.696 34.5V20.9323H164.619C168.864 20.9323 171.035 23.3745 171.035 27.7162C171.035 32.0578 168.864 34.5 164.619 34.5H159.696ZM164.367 32.271C167.332 32.271 168.437 30.8755 168.437 27.7162C168.437 24.5568 167.332 23.1613 164.367 23.1613H162.235V32.271H164.367ZM170.408 34.5L175.39 20.9323H178.646L183.627 34.5H180.933L179.964 31.7283H174.052L173.083 34.5H170.408ZM174.731 29.8289H179.305L177.095 23.549H176.94L174.731 29.8289ZM192.78 34.6938C189.31 34.6938 187.256 33.0269 187.256 30.1971H189.873C189.95 31.5151 190.764 32.5618 192.799 32.5618C194.524 32.5618 195.474 31.8252 195.474 30.6041C195.474 29.4994 194.718 29.0148 193.361 28.7434L191.501 28.3752C189.291 27.9488 187.624 26.9215 187.624 24.6344C187.624 22.1341 189.621 20.7579 192.722 20.7579C195.842 20.7579 197.8 22.1728 197.8 24.7894H195.183C195.183 23.549 194.214 22.89 192.664 22.89C190.939 22.89 190.299 23.704 190.299 24.6344C190.299 25.3903 190.764 26.0493 192.121 26.34L193.865 26.6889C196.889 27.2898 198.168 28.4721 198.168 30.5848C198.168 33.3758 195.881 34.6938 192.78 34.6938ZM207.348 34.5V28.821H201.533V34.5H198.994V20.9323H201.533V26.7083H207.348V20.9323H209.887V34.5H207.348ZM217.096 34.6938C213.297 34.6938 210.719 31.9609 210.719 27.7162C210.719 23.4521 213.297 20.7579 217.096 20.7579C220.895 20.7579 223.492 23.4521 223.492 27.7162C223.492 31.9609 220.895 34.6938 217.096 34.6938ZM217.096 32.4842C219.422 32.4842 220.856 30.6817 220.856 27.7162C220.856 24.7313 219.422 22.9675 217.096 22.9675C214.77 22.9675 213.336 24.7313 213.336 27.7162C213.336 30.6817 214.77 32.4842 217.096 32.4842ZM227.81 34.5V20.9323H230.35V34.5H227.81ZM232.7 34.6938C231.847 34.6938 231.169 34.0154 231.169 33.182C231.169 32.3292 231.847 31.6508 232.7 31.6508C233.553 31.6508 234.251 32.3292 234.251 33.182C234.251 34.0154 233.553 34.6938 232.7 34.6938ZM234.771 34.5L239.753 20.9323H243.009L247.99 34.5H245.296L244.327 31.7283H238.415L237.446 34.5H234.771ZM239.094 29.8289H243.668L241.458 23.549H241.303L239.094 29.8289ZM249.652 34.6938C248.799 34.6938 248.121 34.0154 248.121 33.182C248.121 32.3292 248.799 31.6508 249.652 31.6508C250.505 31.6508 251.203 32.3292 251.203 33.182C251.203 34.0154 250.505 34.6938 249.652 34.6938Z" fill="white"></path><defs><linearGradient id="paint0_linear_0_690" x1="0" y1="27" x2="294" y2="27" gradientUnits="userSpaceOnUse"><stop stop-color="#E03600"></stop><stop offset="1" stop-color="#FF7F56"></stop></linearGradient></defs></svg>