<svg xmlns="http://www.w3.org/2000/svg" width="232" height="19" viewBox="0 0 232 19" fill="none"><path d="M3.79748 15.3279C3.10128 15.3279 2.46549 15.1582 1.89012 14.8187C1.31475 14.4735 0.854447 14.0132 0.509222 13.4378C0.169752 12.8624 1.66893e-05 12.2266 1.66893e-05 11.5304C1.66893e-05 10.8285 0.169752 10.1927 0.509222 9.62306C0.854447 9.04769 1.31475 8.59026 1.89012 8.25079C2.46549 7.90557 3.10128 7.73296 3.79748 7.73296C4.49944 7.73296 5.13523 7.90557 5.70485 8.25079C6.28022 8.59026 6.73764 9.04769 7.07711 9.62306C7.42234 10.1927 7.59495 10.8285 7.59495 11.5304C7.59495 12.2266 7.42234 12.8624 7.07711 13.4378C6.73764 14.0132 6.28022 14.4735 5.70485 14.8187C5.13523 15.1582 4.49944 15.3279 3.79748 15.3279ZM29.391 18.573V0.897519H31.5314V16.6743H39.7478V18.573H29.391ZM50.168 13.153V5.31639H52.2048V18.573H50.168V16.329H50.0299C49.7192 17.0022 49.2359 17.5747 48.58 18.0465C47.924 18.5126 47.0955 18.7456 46.0944 18.7456C45.2658 18.7456 44.5293 18.5644 43.8849 18.2019C43.2405 17.8336 42.7342 17.2813 42.3659 16.5448C41.9977 15.8026 41.8136 14.8676 41.8136 13.7399V5.31639H43.8504V13.6018C43.8504 14.5684 44.1208 15.3394 44.6617 15.9148C45.2083 16.4901 45.9045 16.7778 46.7503 16.7778C47.2566 16.7778 47.7716 16.6484 48.2952 16.3895C48.8245 16.1305 49.2675 15.7335 49.6243 15.1984C49.9868 14.6633 50.168 13.9815 50.168 13.153ZM60.3487 18.8492C59.1059 18.8492 58.0357 18.5557 57.1382 17.9689C56.2406 17.382 55.5501 16.5736 55.0668 15.5437C54.5835 14.5137 54.3418 13.3371 54.3418 12.0137C54.3418 10.6674 54.5893 9.47922 55.0841 8.4493C55.5847 7.41363 56.2809 6.60523 57.1727 6.0241C58.0703 5.43722 59.1174 5.14378 60.3142 5.14378C61.2463 5.14378 62.0864 5.31639 62.8344 5.66161C63.5823 6.00684 64.1951 6.49015 64.6727 7.11155C65.1502 7.73296 65.4466 8.45793 65.5616 9.28647H63.5248C63.3695 8.68232 63.0242 8.14723 62.4891 7.68117C61.9598 7.20937 61.2463 6.97346 60.3487 6.97346C59.5547 6.97346 58.8585 7.1806 58.2601 7.59487C57.6675 8.00338 57.2043 8.58163 56.8706 9.32962C56.5426 10.0719 56.3787 10.9435 56.3787 11.9447C56.3787 12.9689 56.5398 13.8607 56.862 14.6202C57.1899 15.3797 57.6502 15.9694 58.2429 16.3895C58.8413 16.8095 59.5432 17.0195 60.3487 17.0195C60.8781 17.0195 61.3585 16.9274 61.7901 16.7433C62.2216 16.5592 62.5869 16.2945 62.8861 15.9493C63.1853 15.6041 63.3982 15.1898 63.5248 14.7065H65.5616C65.4466 15.489 65.1617 16.1938 64.7072 16.821C64.2584 17.4424 63.6629 17.9372 62.9207 18.3054C62.1842 18.6679 61.3269 18.8492 60.3487 18.8492ZM67.567 18.573V5.31639H69.5348V7.31869H69.6729C69.9146 6.66276 70.3518 6.13054 70.9848 5.72203C71.6177 5.31351 72.3311 5.10925 73.1251 5.10925C73.2747 5.10925 73.4617 5.11213 73.6861 5.11788C73.9105 5.12364 74.0803 5.13227 74.1953 5.14378V7.21512C74.1263 7.19786 73.9681 7.17197 73.7207 7.13745C73.479 7.09717 73.223 7.07703 72.9525 7.07703C72.3081 7.07703 71.7327 7.21224 71.2264 7.48267C70.7258 7.74734 70.3288 8.11558 70.0354 8.58739C69.7477 9.05344 69.6039 9.58566 69.6039 10.184V18.573H67.567ZM80.7922 18.8492C79.5149 18.8492 78.4131 18.5672 77.4867 18.0034C76.5661 17.4338 75.8555 16.6397 75.355 15.6213C74.8601 14.5972 74.6127 13.4061 74.6127 12.0483C74.6127 10.6904 74.8601 9.4936 75.355 8.45793C75.8555 7.4165 76.5517 6.60523 77.4436 6.0241C78.3411 5.43722 79.3883 5.14378 80.5851 5.14378C81.2755 5.14378 81.9574 5.25885 82.6306 5.489C83.3037 5.71915 83.9165 6.09314 84.4689 6.61098C85.0212 7.12306 85.4614 7.802 85.7894 8.6478C86.1173 9.4936 86.2813 10.535 86.2813 11.7721V12.6351H76.0627V10.8745H84.21C84.21 10.1265 84.0604 9.45908 83.7612 8.8722C83.4677 8.28532 83.0477 7.82214 82.5011 7.48267C81.9602 7.1432 81.3216 6.97346 80.5851 6.97346C79.7738 6.97346 79.0719 7.17485 78.4792 7.57761C77.8923 7.97462 77.4407 8.49245 77.1242 9.13112C76.8078 9.76978 76.6495 10.4545 76.6495 11.1852V12.359C76.6495 13.3601 76.8222 14.2088 77.1674 14.905C77.5184 15.5954 78.0045 16.1219 78.6259 16.4844C79.2474 16.8411 79.9694 17.0195 80.7922 17.0195C81.3273 17.0195 81.8106 16.9447 82.2422 16.7951C82.6795 16.6397 83.0563 16.4096 83.3728 16.1046C83.6892 15.7939 83.9338 15.4084 84.1064 14.9481L86.0742 15.5005C85.867 16.1679 85.5189 16.7548 85.0299 17.2611C84.5408 17.7617 83.9366 18.153 83.2174 18.4349C82.4982 18.7111 81.6898 18.8492 80.7922 18.8492ZM99.6563 18.8492C98.4135 18.8492 97.3433 18.5557 96.4457 17.9689C95.5481 17.382 94.8577 16.5736 94.3744 15.5437C93.8911 14.5137 93.6494 13.3371 93.6494 12.0137C93.6494 10.6674 93.8968 9.47922 94.3916 8.4493C94.8922 7.41363 95.5884 6.60523 96.4803 6.0241C97.3778 5.43722 98.425 5.14378 99.6218 5.14378C100.554 5.14378 101.394 5.31639 102.142 5.66161C102.89 6.00684 103.503 6.49015 103.98 7.11155C104.458 7.73296 104.754 8.45793 104.869 9.28647H102.832C102.677 8.68232 102.332 8.14723 101.797 7.68117C101.267 7.20937 100.554 6.97346 99.6563 6.97346C98.8623 6.97346 98.1661 7.1806 97.5677 7.59487C96.9751 8.00338 96.5119 8.58163 96.1782 9.32962C95.8502 10.0719 95.6862 10.9435 95.6862 11.9447C95.6862 12.9689 95.8473 13.8607 96.1696 14.6202C96.4975 15.3797 96.9578 15.9694 97.5504 16.3895C98.1488 16.8095 98.8508 17.0195 99.6563 17.0195C100.186 17.0195 100.666 16.9274 101.098 16.7433C101.529 16.5592 101.895 16.2945 102.194 15.9493C102.493 15.6041 102.706 15.1898 102.832 14.7065H104.869C104.754 15.489 104.469 16.1938 104.015 16.821C103.566 17.4424 102.97 17.9372 102.228 18.3054C101.492 18.6679 100.634 18.8492 99.6563 18.8492ZM112.26 18.8492C111.063 18.8492 110.013 18.5644 109.11 17.9947C108.212 17.4251 107.51 16.6282 107.004 15.6041C106.503 14.5799 106.253 13.3831 106.253 12.0137C106.253 10.6328 106.503 9.42743 107.004 8.39751C107.51 7.3676 108.212 6.56783 109.11 5.99821C110.013 5.42859 111.063 5.14378 112.26 5.14378C113.457 5.14378 114.504 5.42859 115.402 5.99821C116.305 6.56783 117.007 7.3676 117.508 8.39751C118.014 9.42743 118.267 10.6328 118.267 12.0137C118.267 13.3831 118.014 14.5799 117.508 15.6041C117.007 16.6282 116.305 17.4251 115.402 17.9947C114.504 18.5644 113.457 18.8492 112.26 18.8492ZM112.26 17.0195C113.169 17.0195 113.917 16.7865 114.504 16.3204C115.091 15.8544 115.525 15.2416 115.807 14.4821C116.089 13.7226 116.23 12.8998 116.23 12.0137C116.23 11.1277 116.089 10.302 115.807 9.53675C115.525 8.77151 115.091 8.15298 114.504 7.68117C113.917 7.20937 113.169 6.97346 112.26 6.97346C111.351 6.97346 110.603 7.20937 110.016 7.68117C109.429 8.15298 108.995 8.77151 108.713 9.53675C108.431 10.302 108.29 11.1277 108.29 12.0137C108.29 12.8998 108.431 13.7226 108.713 14.4821C108.995 15.2416 109.429 15.8544 110.016 16.3204C110.603 16.7865 111.351 17.0195 112.26 17.0195ZM120.404 18.573V5.31639H122.372V7.38773H122.544C122.821 6.68002 123.267 6.13054 123.882 5.73929C124.498 5.34228 125.237 5.14378 126.1 5.14378C126.975 5.14378 127.703 5.34228 128.284 5.73929C128.871 6.13054 129.328 6.68002 129.656 7.38773H129.794C130.134 6.70304 130.643 6.15931 131.322 5.75655C132.001 5.34803 132.815 5.14378 133.764 5.14378C134.949 5.14378 135.919 5.51489 136.673 6.25712C137.426 6.9936 137.803 8.14147 137.803 9.70074V18.573H135.767V9.70074C135.767 8.7226 135.499 8.02352 134.964 7.6035C134.429 7.18348 133.799 6.97346 133.074 6.97346C132.142 6.97346 131.42 7.2554 130.907 7.81926C130.395 8.37738 130.139 9.08509 130.139 9.94239V18.573H128.068V9.4936C128.068 8.73986 127.823 8.13284 127.334 7.67254C126.845 7.20649 126.215 6.97346 125.444 6.97346C124.915 6.97346 124.42 7.11443 123.96 7.39636C123.505 7.6783 123.137 8.06955 122.855 8.57013C122.579 9.06495 122.441 9.63744 122.441 10.2876V18.573H120.404ZM150.32 18.8837C149.48 18.8837 148.717 18.7255 148.032 18.409C147.348 18.0868 146.804 17.6236 146.401 17.0195C145.999 16.4096 145.797 15.6731 145.797 14.8101C145.797 14.0506 145.947 13.4349 146.246 12.9631C146.545 12.4855 146.945 12.1116 147.446 11.8411C147.946 11.5707 148.499 11.3693 149.103 11.237C149.713 11.0989 150.325 10.9896 150.941 10.909C151.747 10.8055 152.4 10.7278 152.9 10.676C153.406 10.6185 153.775 10.5235 154.005 10.3912C154.241 10.2588 154.359 10.0287 154.359 9.70074V9.63169C154.359 8.78014 154.126 8.11846 153.66 7.64665C153.199 7.17485 152.5 6.93894 151.562 6.93894C150.59 6.93894 149.828 7.15183 149.275 7.57761C148.723 8.00338 148.335 8.45793 148.11 8.94124L146.177 8.25079C146.522 7.44527 146.982 6.81811 147.558 6.36932C148.139 5.91478 148.772 5.59832 149.457 5.41996C150.147 5.23584 150.826 5.14378 151.493 5.14378C151.919 5.14378 152.408 5.19556 152.961 5.29913C153.519 5.39694 154.057 5.6012 154.574 5.9119C155.098 6.2226 155.532 6.69153 155.878 7.31869C156.223 7.94585 156.396 8.78589 156.396 9.83883V18.573H154.359V16.7778H154.255C154.117 17.0655 153.887 17.3733 153.565 17.7013C153.242 18.0293 152.814 18.3083 152.279 18.5385C151.744 18.7686 151.091 18.8837 150.32 18.8837ZM150.63 17.054C151.436 17.054 152.115 16.8958 152.667 16.5793C153.225 16.2629 153.645 15.8544 153.927 15.3538C154.215 14.8532 154.359 14.3267 154.359 13.7744V11.9102C154.272 12.0137 154.083 12.1087 153.789 12.195C153.501 12.2755 153.168 12.3475 152.788 12.4107C152.414 12.4683 152.049 12.5201 151.692 12.5661C151.341 12.6064 151.056 12.6409 150.837 12.6697C150.308 12.7387 149.813 12.8509 149.353 13.0063C148.898 13.1559 148.53 13.3831 148.248 13.6881C147.972 13.9873 147.834 14.3958 147.834 14.9136C147.834 15.6213 148.096 16.1564 148.619 16.5189C149.149 16.8756 149.819 17.054 150.63 17.054ZM174.947 5.31639C174.843 4.44182 174.423 3.76288 173.687 3.27957C172.95 2.79625 172.047 2.55459 170.977 2.55459C170.194 2.55459 169.509 2.68118 168.923 2.93434C168.341 3.18751 167.887 3.53561 167.559 3.97864C167.237 4.42168 167.076 4.92513 167.076 5.489C167.076 5.96081 167.188 6.36645 167.412 6.70592C167.642 7.03963 167.936 7.31869 168.293 7.54308C168.649 7.76173 169.023 7.94297 169.415 8.08681C169.806 8.2249 170.165 8.3371 170.493 8.42341L172.289 8.90672C172.749 9.02755 173.261 9.19441 173.825 9.4073C174.394 9.62018 174.938 9.91075 175.456 10.279C175.98 10.6415 176.411 11.1075 176.751 11.6771C177.09 12.2468 177.26 12.9458 177.26 13.7744C177.26 14.7295 177.009 15.5926 176.509 16.3636C176.014 17.1346 175.289 17.7473 174.334 18.2019C173.385 18.6564 172.231 18.8837 170.873 18.8837C169.607 18.8837 168.511 18.6794 167.585 18.2709C166.664 17.8624 165.939 17.2928 165.41 16.5621C164.886 15.8313 164.59 14.9827 164.521 14.016H166.73C166.788 14.6835 167.012 15.2358 167.404 15.6731C167.801 16.1046 168.301 16.4269 168.905 16.6397C169.515 16.8469 170.171 16.9504 170.873 16.9504C171.69 16.9504 172.424 16.8181 173.074 16.5534C173.724 16.283 174.239 15.909 174.619 15.4315C174.999 14.9481 175.188 14.3843 175.188 13.7399C175.188 13.153 175.024 12.6754 174.696 12.3072C174.369 11.9389 173.937 11.6397 173.402 11.4096C172.867 11.1794 172.289 10.9781 171.667 10.8055L169.492 10.184C168.111 9.78704 167.018 9.2203 166.213 8.48382C165.407 7.74734 165.004 6.78359 165.004 5.59257C165.004 4.60292 165.272 3.73986 165.807 3.00339C166.348 2.26115 167.073 1.68578 167.982 1.27727C168.897 0.862996 169.918 0.655862 171.046 0.655862C172.185 0.655862 173.198 0.860119 174.084 1.26863C174.97 1.6714 175.672 2.22375 176.19 2.92571C176.713 3.62767 176.989 4.42456 177.018 5.31639H174.947ZM181.567 10.5983V18.573H179.531V0.897519H181.567V7.38773H181.74C182.051 6.70304 182.517 6.15931 183.138 5.75655C183.765 5.34803 184.6 5.14378 185.641 5.14378C186.544 5.14378 187.336 5.32502 188.014 5.6875C188.693 6.04424 189.22 6.59372 189.594 7.33595C189.974 8.07243 190.163 9.01029 190.163 10.1495V18.573H188.127V10.2876C188.127 9.23468 187.853 8.42053 187.307 7.84516C186.766 7.26403 186.015 6.97346 185.054 6.97346C184.387 6.97346 183.788 7.11443 183.259 7.39636C182.735 7.6783 182.321 8.08969 182.016 8.63054C181.717 9.17139 181.567 9.82732 181.567 10.5983ZM198.303 18.8492C197.106 18.8492 196.056 18.5644 195.153 17.9947C194.255 17.4251 193.553 16.6282 193.047 15.6041C192.546 14.5799 192.296 13.3831 192.296 12.0137C192.296 10.6328 192.546 9.42743 193.047 8.39751C193.553 7.3676 194.255 6.56783 195.153 5.99821C196.056 5.42859 197.106 5.14378 198.303 5.14378C199.5 5.14378 200.547 5.42859 201.445 5.99821C202.348 6.56783 203.05 7.3676 203.55 8.39751C204.057 9.42743 204.31 10.6328 204.31 12.0137C204.31 13.3831 204.057 14.5799 203.55 15.6041C203.05 16.6282 202.348 17.4251 201.445 17.9947C200.547 18.5644 199.5 18.8492 198.303 18.8492ZM198.303 17.0195C199.212 17.0195 199.96 16.7865 200.547 16.3204C201.134 15.8544 201.568 15.2416 201.85 14.4821C202.132 13.7226 202.273 12.8998 202.273 12.0137C202.273 11.1277 202.132 10.302 201.85 9.53675C201.568 8.77151 201.134 8.15298 200.547 7.68117C199.96 7.20937 199.212 6.97346 198.303 6.97346C197.394 6.97346 196.646 7.20937 196.059 7.68117C195.472 8.15298 195.038 8.77151 194.756 9.53675C194.474 10.302 194.333 11.1277 194.333 12.0137C194.333 12.8998 194.474 13.7226 194.756 14.4821C195.038 15.2416 195.472 15.8544 196.059 16.3204C196.646 16.7865 197.394 17.0195 198.303 17.0195ZM200.098 3.72836L198.303 1.31179L196.508 3.72836H194.575V3.59027L197.371 -6.4107e-05H199.235L202.032 3.59027V3.72836H200.098ZM214.727 0.897519V18.573H212.586V0.897519H214.727ZM218.771 18.573H216.527L223.018 0.897519H225.227L231.717 18.573H229.473L224.191 3.69383H224.053L218.771 18.573ZM219.6 11.6685H228.645V13.5672H219.6V11.6685Z" fill="url(#paint0_linear_14_105)"></path><defs><linearGradient id="paint0_linear_14_105" x1="-3.354" y1="10.073" x2="232.646" y2="10.073" gradientUnits="userSpaceOnUse"><stop stop-color="white"></stop><stop offset="1" stop-color="#FFDCD3"></stop></linearGradient></defs></svg>