<svg xmlns="http://www.w3.org/2000/svg" width="332" height="22" viewBox="0 0 332 22" fill="none"><g clip-path="url(#clip0_0_773)"><path d="M4.55981 4.55908H4.81324V11.288H4.55981V4.55908ZM5.06666 4.55908H5.32009V11.288H5.06666V4.55908ZM6.58834 4.55908H6.84177V11.288H6.58834V4.55908ZM11.5212 4.55908H11.7747V11.288H11.5212V4.55908ZM13.1704 4.55908H13.4238V11.288H13.1704V4.55908ZM14.7695 4.55908H15.023V11.288H14.7695V4.55908ZM15.1816 4.55908H15.4351V11.288H15.182L15.1816 4.55908ZM15.5944 4.55908H15.8478V11.288H15.5944V4.55908ZM16.0582 4.55908H16.3116V11.288H16.0583L16.0582 4.55908ZM16.5219 4.55908H16.7753V11.288H16.5219V4.55908ZM17.8111 4.55908H18.0646V11.288H17.8108L17.8111 4.55908ZM21.0077 4.55908H21.2611V11.288H21.0077V4.55908ZM24.3421 4.55908H24.5954V11.288H24.342L24.3421 4.55908ZM25.2541 4.55908H25.5075V11.288H25.2541V4.55908ZM25.9135 4.55908H26.1669V11.288H25.9135V4.55908ZM26.3192 4.55908H26.5726V11.288H26.3192V4.55908ZM8.26194 4.55908H8.51536V11.288H8.26194V4.55908ZM5.72604 4.55908H6.1824V11.288H5.72604V4.55908ZM8.73755 4.55908H9.19382V11.288H8.73755V4.55908ZM10.8521 4.55908H11.3084V11.288H10.8521V4.55908ZM11.9347 4.55908H12.391V11.288H11.9347V4.55908ZM13.6361 4.55908H14.0924V11.288H13.6361V4.55908ZM18.4867 4.55908H19.1964V11.288H18.4867V4.55908ZM19.4137 4.55908H19.9711V11.288H19.4131L19.4137 4.55908ZM20.3919 4.55908H20.8482V11.288H20.3919V4.55908ZM21.6854 4.55908H22.4462V11.288H21.6854V4.55908ZM23.1752 4.55908H23.9361V11.288H23.1752V4.55908ZM7.09545 4.55908H8.00799V11.288H7.09545V4.55908ZM9.4607 4.55908H10.1704V11.288H9.4607V4.55908Z" fill="white"></path><path d="M4.88855 17.2617V13.4103H6.33379C6.5753 13.4009 6.8162 13.4407 7.04193 13.527C7.21495 13.601 7.3608 13.7268 7.45942 13.887C7.55716 14.0386 7.60962 14.215 7.61064 14.3954C7.61065 14.5599 7.56421 14.7211 7.47668 14.8604C7.37806 15.0138 7.23768 15.1358 7.07204 15.2122C7.28461 15.2668 7.47349 15.3895 7.60995 15.5614C7.73621 15.7292 7.80233 15.9347 7.79769 16.1447C7.79919 16.319 7.76013 16.4913 7.6836 16.6479C7.61891 16.7883 7.52172 16.9113 7.40007 17.0067C7.27345 17.0976 7.13008 17.1624 6.97825 17.1976C6.77466 17.2443 6.56614 17.2659 6.35731 17.2621L4.88855 17.2617ZM5.3987 15.0288H6.23159C6.39425 15.0351 6.55705 15.0201 6.7158 14.9841C6.83199 14.9546 6.93502 14.8872 7.00852 14.7925C7.07696 14.6941 7.11152 14.5761 7.107 14.4562C7.10934 14.3373 7.07742 14.2202 7.01503 14.1189C6.95551 14.0228 6.86297 13.9516 6.75475 13.9188C6.56273 13.8746 6.36563 13.8565 6.16878 13.8649H5.39887L5.3987 15.0288ZM5.3987 16.8073H6.35748C6.47346 16.8104 6.5895 16.8043 6.70452 16.7891C6.80856 16.7722 6.90843 16.7357 6.99881 16.6815C7.0814 16.6281 7.14841 16.5539 7.19306 16.4663C7.2452 16.3668 7.27148 16.2558 7.2695 16.1435C7.27308 16.0094 7.23451 15.8777 7.15923 15.7667C7.0849 15.6603 6.97714 15.5817 6.85305 15.5435C6.66957 15.4939 6.47967 15.4721 6.28972 15.479H5.3987V16.8073ZM8.54252 15.3863C8.5102 14.8375 8.6951 14.298 9.05727 13.8843C9.22797 13.7051 9.43472 13.564 9.66391 13.4706C9.89309 13.3771 10.1395 13.3332 10.3869 13.3419C10.7247 13.3373 11.0572 13.4255 11.3483 13.597C11.6313 13.7643 11.8584 14.0116 12.001 14.3077C12.1548 14.6303 12.2316 14.9841 12.2254 15.3414C12.2319 15.7046 12.151 16.064 11.9897 16.3895C11.8433 16.6857 11.6095 16.9299 11.3199 17.089C11.0336 17.2468 10.7116 17.3287 10.3847 17.3268C10.0426 17.3324 9.70586 17.2416 9.41298 17.0648C9.13118 16.8939 8.90546 16.6444 8.76359 16.347C8.61729 16.0479 8.54166 15.7192 8.54252 15.3863ZM9.0682 15.3944C9.04633 15.7951 9.18142 16.1886 9.44483 16.4915C9.56365 16.6216 9.70901 16.7247 9.87109 16.7938C10.0332 16.863 10.2082 16.8965 10.3843 16.8923C10.5616 16.8968 10.7376 16.8629 10.9005 16.793C11.0634 16.723 11.2092 16.6187 11.328 16.4871C11.5938 16.1658 11.7268 15.7551 11.6999 15.3389C11.7069 15.0572 11.6535 14.7772 11.5433 14.5178C11.4461 14.2942 11.2842 14.1047 11.0784 13.9739C10.8728 13.8446 10.6342 13.7776 10.3913 13.7807C10.2192 13.7781 10.0483 13.8096 9.88841 13.8734C9.72855 13.9372 9.58292 14.0321 9.45992 14.1525C9.3144 14.3224 9.20469 14.5199 9.13737 14.7332C9.07006 14.9465 9.04653 15.1712 9.0682 15.3938V15.3944ZM13.0611 17.262V13.4103H13.5707V16.807H15.4673V17.2617L13.0611 17.262ZM16.2841 17.262V13.4103H19.0691V13.8649H16.7936V15.0448H18.9244V15.4968H16.7936V16.8074H19.1584V17.2621L16.2841 17.262ZM21.0417 17.262V13.8649H19.7721V13.4103H22.825V13.8649H21.5508V17.2617L21.0417 17.262ZM23.295 15.3863C23.2631 14.8374 23.4484 14.2979 23.811 13.8846C23.9817 13.7053 24.1884 13.5643 24.4176 13.4708C24.6468 13.3773 24.8932 13.3335 25.1405 13.3422C25.4783 13.3376 25.8109 13.4258 26.102 13.5972C26.385 13.7645 26.6121 14.0118 26.7547 14.308C26.9085 14.6305 26.9853 14.9844 26.9791 15.3416C26.9854 15.7049 26.9044 16.0643 26.7429 16.3898C26.596 16.6865 26.3613 16.9308 26.0709 17.0897C25.7845 17.2476 25.4626 17.3294 25.1357 17.3276C24.7934 17.3332 24.4564 17.2422 24.1634 17.065C23.8822 16.894 23.657 16.6445 23.5156 16.3473C23.3694 16.0481 23.2939 15.7193 23.295 15.3863ZM23.8207 15.3944C23.7988 15.7951 23.9339 16.1886 24.1973 16.4915C24.3161 16.6216 24.4615 16.7247 24.6235 16.7938C24.7856 16.863 24.9606 16.8965 25.1368 16.8923C25.3145 16.8973 25.4912 16.8638 25.6547 16.7939C25.8182 16.724 25.9646 16.6195 26.0838 16.4876C26.3495 16.1663 26.4825 15.7556 26.4555 15.3395C26.4611 15.0574 26.406 14.7774 26.2941 14.5184C26.1969 14.2947 26.035 14.1052 25.8292 13.9744C25.6237 13.8453 25.3852 13.7782 25.1425 13.7813C24.9704 13.7786 24.7995 13.8101 24.6396 13.874C24.4797 13.9378 24.3341 14.0326 24.2111 14.153C24.0658 14.3229 23.9564 14.5203 23.8893 14.7335C23.8222 14.9467 23.7989 15.1713 23.8207 15.3937V15.3944Z" fill="white"></path></g><path fill-rule="evenodd" clip-rule="evenodd" d="M42.9145 14.8292H40.9805L39.5303 9.29654C39.4615 9.04204 39.3153 8.81704 39.1003 8.711C38.5638 8.44451 37.9726 8.23242 37.3276 8.12546V7.91245H40.4431C40.873 7.91245 41.1955 8.23242 41.2493 8.60403L42.0017 12.5949L43.9347 7.91245H45.8149L42.9145 14.8292ZM46.8899 14.8292H45.0634L46.5674 7.91245H48.3938L46.8899 14.8292ZM50.7568 9.82861C50.8105 9.45607 51.133 9.24306 51.5093 9.24306C52.1005 9.18958 52.7445 9.29655 53.282 9.56211L53.6044 8.0729C53.067 7.85989 52.4758 7.75293 51.9392 7.75293C50.1665 7.75293 48.8766 8.711 48.8766 10.0407C48.8766 11.0522 49.7903 11.5834 50.4353 11.9034C51.133 12.2224 51.4018 12.4354 51.348 12.7545C51.348 13.233 50.8105 13.4461 50.274 13.4461C49.6291 13.4461 48.9841 13.2865 48.3938 13.02L48.0713 14.5102C48.7163 14.7757 49.4141 14.8827 50.059 14.8827C52.0467 14.9353 53.282 13.9781 53.282 12.5415C53.282 10.7323 50.7568 10.6262 50.7568 9.82861V9.82861ZM59.6741 14.8292L58.2238 7.91245H56.6661C56.3436 7.91245 56.0212 8.12546 55.9137 8.44451L53.2282 14.8292H55.1084L55.4837 13.8186H57.7939L58.0089 14.8292H59.6741ZM56.9349 9.77513L57.4714 12.3819H55.9674L56.9349 9.77513Z" fill="white"></path><path d="M86.6727 4.56055C90.11 4.56055 92.8972 7.37929 92.8973 10.8564C92.8973 14.3337 90.1101 17.1533 86.6727 17.1533C85.1317 17.1532 83.7225 16.585 82.6356 15.6465C81.5487 16.5849 80.1395 17.1533 78.5985 17.1533C75.1613 17.1531 72.3749 14.3336 72.3749 10.8564C72.375 7.3794 75.1614 4.56072 78.5985 4.56055C80.1394 4.56055 81.5487 5.12817 82.6356 6.06641C83.7225 5.12804 85.1319 4.56065 86.6727 4.56055Z" fill="white"></path><path d="M86.6731 4.56055C90.1104 4.56055 92.8966 7.37929 92.8967 10.8564C92.8967 14.3337 90.1105 17.1533 86.6731 17.1533C85.132 17.1533 83.723 16.585 82.636 15.6465C83.9735 14.4917 84.8225 12.7748 84.8225 10.8564C84.8224 8.9381 83.9736 7.22118 82.636 6.06641C83.7229 5.12807 85.1322 4.56056 86.6731 4.56055Z" fill="#F4F4F4"></path><path d="M82.6357 6.06641C83.9735 7.22122 84.8232 8.93801 84.8232 10.8564C84.8232 12.7749 83.9734 14.4917 82.6357 15.6465C81.2982 14.4917 80.4492 12.7747 80.4492 10.8564C80.4493 8.93814 81.2982 7.22122 82.6357 6.06641Z" fill="#494949"></path><path d="M108.84 8.53027V7.75293H112.409L113.191 9.45898L113.955 7.75293H122.861L123.763 8.76074L124.732 7.75293H128.87L125.874 11.0762L128.87 14.3711L124.666 14.3623L123.735 13.3359L122.74 14.3623H114.554V13.541L114.203 14.3623H112.167L111.817 13.5586V14.3623H107.881L107.438 13.3086H106.424L105.981 14.3623H102.406L105.393 7.75293H108.444L108.84 8.53027ZM103.99 13.4336H105.264L105.714 12.3711H108.15L108.6 13.4346H110.979V9.71777L112.673 13.4346H113.707L115.393 9.71777L115.402 13.4346H116.558V8.69141H114.659L113.248 11.9053L111.718 8.69141H109.808V13.1738L107.828 8.69141H106.084L103.99 13.4336ZM117.616 13.4316H122.244L123.735 11.8604L125.172 13.4316H126.675L124.491 11.0752L126.675 8.69141H125.238L123.753 10.2441L122.316 8.69141H117.616V13.4316ZM122.989 11.0576L121.653 12.4492H118.777V11.5039H121.34V10.5391H118.777V9.67285H121.709L122.989 11.0576ZM107.734 11.3887H106.129L106.932 9.49414L107.734 11.3887Z" fill="white"></path><path d="M146.524 14.5037V9.79713C146.524 9.59123 146.564 9.38734 146.643 9.19711C146.722 9.00689 146.838 8.83405 146.983 8.68848C147.129 8.54291 147.302 8.42744 147.492 8.34869C147.682 8.26994 147.886 8.22943 148.092 8.22949H149.48C149.895 8.23035 150.292 8.3957 150.585 8.68925C150.878 8.98279 151.043 9.38057 151.043 9.79528V10.797C151.043 11.2129 150.877 11.6118 150.583 11.9058C150.289 12.1999 149.89 12.3651 149.475 12.3651H147.511" stroke="white" stroke-width="0.342304" stroke-linecap="round" stroke-linejoin="round"></path><path d="M151.432 8.22852H152.034C152.204 8.22852 152.368 8.29633 152.489 8.41703C152.61 8.53773 152.677 8.70144 152.677 8.87214V12.3887" stroke="white" stroke-width="0.342304" stroke-linecap="round" stroke-linejoin="round"></path><path d="M152.547 7.68394L152.274 7.41049C152.258 7.39437 152.245 7.37522 152.237 7.35414C152.228 7.33306 152.223 7.31046 152.223 7.28764C152.223 7.26482 152.228 7.24222 152.237 7.22114C152.245 7.20006 152.258 7.18091 152.274 7.16479L152.547 6.8918C152.563 6.87564 152.583 6.86282 152.604 6.85407C152.625 6.84532 152.647 6.84082 152.67 6.84082C152.693 6.84082 152.716 6.84532 152.737 6.85407C152.758 6.86282 152.777 6.87564 152.793 6.8918L153.067 7.16479C153.083 7.18091 153.095 7.20006 153.104 7.22114C153.113 7.24222 153.117 7.26482 153.117 7.28764C153.117 7.31046 153.113 7.33306 153.104 7.35414C153.095 7.37522 153.083 7.39437 153.067 7.41049L152.793 7.68394C152.777 7.7001 152.758 7.71292 152.737 7.72167C152.716 7.73042 152.693 7.73492 152.67 7.73492C152.647 7.73492 152.625 7.73042 152.604 7.72167C152.583 7.71292 152.563 7.7001 152.547 7.68394" fill="white"></path><path d="M153.835 8.22559H154.433C154.74 8.22564 155.035 8.3478 155.253 8.56521L156.651 9.96304C156.694 10.0062 156.745 10.0404 156.801 10.0638C156.858 10.0872 156.918 10.0992 156.979 10.0992C157.04 10.0992 157.1 10.0872 157.156 10.0638C157.213 10.0404 157.264 10.0062 157.307 9.96304L158.701 8.5703C158.809 8.46261 158.937 8.37718 159.077 8.31891C159.218 8.26063 159.369 8.23065 159.521 8.23067H160.007" stroke="white" stroke-width="0.342304" stroke-linecap="round" stroke-linejoin="round"></path><path d="M153.835 12.357H154.433C154.74 12.357 155.035 12.2348 155.253 12.0174L156.651 10.6201C156.694 10.5769 156.745 10.5427 156.801 10.5193C156.858 10.4959 156.918 10.4839 156.979 10.4839C157.04 10.4839 157.1 10.4959 157.156 10.5193C157.213 10.5427 157.264 10.5769 157.307 10.6201L158.701 12.0123C158.809 12.12 158.937 12.2054 159.077 12.2637C159.218 12.322 159.369 12.352 159.521 12.352H160.007" stroke="white" stroke-width="0.342304" stroke-linecap="round" stroke-linejoin="round"></path><path d="M142.96 13.2501C142.813 13.2506 142.666 13.2218 142.53 13.1653C142.394 13.1088 142.27 13.0258 142.166 12.9212L141.019 11.7769C140.978 11.738 140.924 11.7163 140.868 11.7163C140.812 11.7163 140.758 11.738 140.717 11.7769L139.566 12.9276C139.462 13.0323 139.338 13.1153 139.202 13.1718C139.066 13.2282 138.919 13.2571 138.772 13.2566H138.546L139.998 14.7095C140.216 14.9273 140.512 15.0496 140.82 15.0496C141.128 15.0496 141.424 14.9273 141.642 14.7095L143.098 13.2525L142.96 13.2501Z" fill="white"></path><path d="M138.772 9.19328C138.919 9.19294 139.066 9.22183 139.202 9.2783C139.338 9.33476 139.462 9.41768 139.566 9.52227L140.718 10.6735C140.758 10.7133 140.812 10.7357 140.868 10.7357C140.925 10.7357 140.979 10.7133 141.019 10.6735L142.166 9.52643C142.27 9.42184 142.394 9.33893 142.53 9.28246C142.666 9.226 142.813 9.1971 142.96 9.19745H143.099L141.642 7.74086C141.535 7.63292 141.407 7.5473 141.266 7.48888C141.125 7.43046 140.974 7.40039 140.821 7.40039C140.668 7.40039 140.517 7.43046 140.376 7.48888C140.235 7.5473 140.107 7.63292 139.999 7.74086L138.547 9.19328H138.772Z" fill="white"></path><path d="M144.303 10.4023L143.424 9.52313C143.404 9.53108 143.383 9.53532 143.362 9.53562H142.962C142.753 9.53649 142.554 9.61964 142.406 9.76697L141.257 10.9117C141.206 10.9628 141.146 11.0034 141.079 11.031C141.012 11.0587 140.941 11.0728 140.868 11.0727C140.722 11.073 140.582 11.0152 140.479 10.9122L139.328 9.76096C139.18 9.61363 138.981 9.53047 138.772 9.52961H138.28C138.26 9.52923 138.24 9.52516 138.221 9.51758L137.337 10.4013C137.229 10.5092 137.144 10.6373 137.085 10.7782C137.027 10.9192 136.997 11.0703 136.997 11.2229C136.997 11.3755 137.027 11.5265 137.085 11.6675C137.144 11.8085 137.229 11.9365 137.337 12.0444L138.221 12.9282C138.24 12.9206 138.26 12.9165 138.28 12.9161H138.772C138.981 12.9151 139.18 12.832 139.328 12.6848L140.479 11.5336C140.584 11.4335 140.723 11.3776 140.868 11.3776C141.013 11.3776 141.153 11.4335 141.257 11.5336L142.404 12.6806C142.552 12.8278 142.751 12.911 142.96 12.912H143.36C143.381 12.9122 143.403 12.9166 143.422 12.9249L144.302 12.0458C144.519 11.8278 144.642 11.5324 144.642 11.2243C144.642 10.9162 144.519 10.6207 144.302 10.4027" fill="white"></path><path d="M147.719 14.1035C147.646 14.1067 147.574 14.1177 147.504 14.1363V14.4232C147.557 14.4422 147.614 14.4517 147.672 14.4514C147.815 14.4514 147.883 14.4028 147.883 14.2761C147.883 14.1571 147.827 14.1035 147.719 14.1035V14.1035ZM147.455 14.636V14.0692H147.495L147.499 14.0937C147.572 14.0741 147.647 14.062 147.723 14.0577C147.776 14.054 147.828 14.0691 147.87 14.1002C147.894 14.1228 147.912 14.1504 147.923 14.1808C147.934 14.2112 147.938 14.2438 147.935 14.2761C147.938 14.3121 147.931 14.3481 147.915 14.3804C147.898 14.4126 147.873 14.4397 147.843 14.4588C147.791 14.4844 147.734 14.4971 147.676 14.4958C147.617 14.4955 147.559 14.4866 147.503 14.4695V14.636H147.455Z" fill="white"></path><path d="M148.296 14.1021C148.152 14.1021 148.088 14.1483 148.088 14.2737C148.088 14.3991 148.152 14.4514 148.296 14.4514C148.44 14.4514 148.503 14.4052 148.503 14.2802C148.503 14.1553 148.44 14.1021 148.296 14.1021V14.1021ZM148.481 14.4514C148.426 14.4857 148.361 14.5019 148.296 14.4977C148.231 14.5016 148.166 14.4854 148.111 14.4514C148.085 14.4308 148.065 14.4041 148.052 14.3736C148.039 14.3431 148.034 14.3099 148.037 14.277C148.034 14.244 148.039 14.2108 148.052 14.1803C148.065 14.1498 148.085 14.1229 148.111 14.1021C148.166 14.0678 148.231 14.0517 148.296 14.0558C148.361 14.0518 148.426 14.0679 148.481 14.1021C148.507 14.1227 148.527 14.1494 148.54 14.1798C148.553 14.2101 148.558 14.2432 148.555 14.2761C148.558 14.3091 148.553 14.3425 148.54 14.3731C148.527 14.4037 148.507 14.4306 148.481 14.4514" fill="white"></path><path d="M149.162 14.4843L149.002 14.1401H148.998L148.841 14.4843H148.799L148.628 14.0679H148.682L148.824 14.4163H148.827L148.982 14.0679H149.028L149.187 14.4163H149.19L149.329 14.0679H149.381L149.21 14.4843H149.162Z" fill="white"></path><path d="M149.687 14.1011C149.553 14.1011 149.508 14.1603 149.501 14.2459H149.874C149.871 14.1511 149.822 14.1011 149.689 14.1011H149.687ZM149.689 14.4958C149.628 14.5023 149.567 14.4858 149.517 14.4495C149.493 14.4276 149.474 14.4006 149.462 14.3705C149.45 14.3403 149.445 14.3079 149.447 14.2755C149.445 14.242 149.452 14.2084 149.465 14.1776C149.478 14.1467 149.499 14.1194 149.525 14.0979C149.573 14.0677 149.63 14.0531 149.687 14.0562C149.745 14.0526 149.803 14.0666 149.853 14.0965C149.913 14.1367 149.924 14.2075 149.924 14.288H149.498C149.498 14.3732 149.528 14.4491 149.689 14.4491C149.761 14.4473 149.833 14.4393 149.904 14.425V14.4685C149.832 14.4835 149.759 14.4922 149.685 14.4944" fill="white"></path><path d="M150.063 14.4842V14.0677H150.103L150.107 14.0922C150.174 14.0704 150.243 14.0582 150.313 14.0562H150.319V14.1024H150.307C150.241 14.1039 150.175 14.1149 150.112 14.1353V14.4832L150.063 14.4842Z" fill="white"></path><path d="M150.601 14.1012C150.468 14.1012 150.422 14.1604 150.416 14.246H150.789C150.785 14.1511 150.736 14.1012 150.604 14.1012H150.601ZM150.604 14.4959C150.543 14.5022 150.481 14.4858 150.431 14.4496C150.409 14.4274 150.391 14.4004 150.38 14.3706C150.368 14.3407 150.364 14.3088 150.367 14.277C150.365 14.2434 150.371 14.2099 150.384 14.179C150.398 14.1482 150.418 14.1209 150.444 14.0993C150.492 14.0691 150.549 14.0546 150.606 14.0577C150.664 14.0541 150.722 14.0681 150.772 14.0979C150.832 14.1382 150.843 14.209 150.843 14.2895H150.418C150.418 14.3746 150.447 14.4505 150.608 14.4505C150.68 14.4488 150.752 14.4407 150.823 14.4264V14.4699C150.751 14.4849 150.678 14.4936 150.604 14.4959" fill="white"></path><path d="M151.369 14.13C151.316 14.1112 151.259 14.1018 151.202 14.1023C151.058 14.1023 150.99 14.1508 150.99 14.2772C150.99 14.4035 151.046 14.4497 151.154 14.4497C151.227 14.4463 151.299 14.4356 151.369 14.4178V14.13ZM151.379 14.4845L151.375 14.4595C151.301 14.4792 151.226 14.4915 151.15 14.496C151.097 14.5001 151.045 14.4848 151.003 14.453C150.98 14.4305 150.962 14.403 150.95 14.3725C150.939 14.3421 150.935 14.3095 150.938 14.2772C150.935 14.2413 150.942 14.2053 150.959 14.1733C150.975 14.1412 151 14.1142 151.03 14.0953C151.082 14.0691 151.14 14.0562 151.198 14.0578C151.256 14.0585 151.314 14.0674 151.37 14.0842V13.894H151.418V14.4845H151.379Z" fill="white"></path><path d="M152.131 14.1036C152.058 14.1069 151.986 14.1179 151.915 14.1365V14.4225C151.969 14.4421 152.026 14.452 152.083 14.4516C152.227 14.4516 152.295 14.403 152.295 14.2762C152.295 14.1573 152.239 14.1036 152.131 14.1036V14.1036ZM152.255 14.459C152.203 14.4846 152.146 14.4973 152.088 14.496C152.025 14.4954 151.962 14.4847 151.903 14.4646V14.4845H151.87V13.894H151.916V14.0907C151.988 14.0723 152.061 14.0609 152.136 14.0565C152.188 14.0528 152.24 14.0679 152.283 14.099C152.306 14.1216 152.324 14.1492 152.335 14.1796C152.346 14.21 152.351 14.2426 152.347 14.2748C152.35 14.3109 152.343 14.3469 152.327 14.3792C152.31 14.4114 152.286 14.4385 152.255 14.4576" fill="white"></path><path d="M152.409 14.6458V14.5996C152.432 14.5996 152.455 14.6037 152.47 14.6037C152.498 14.606 152.526 14.5989 152.55 14.5833C152.574 14.5678 152.591 14.5449 152.6 14.5181L152.616 14.4853L152.399 14.0688H152.455L152.64 14.427H152.643L152.82 14.0688H152.875L152.644 14.5348C152.601 14.6195 152.555 14.6472 152.47 14.6472C152.45 14.6482 152.429 14.6477 152.409 14.6458Z" fill="white"></path><path d="M153.545 14.2476H153.384V14.3933H153.546C153.657 14.3933 153.699 14.3809 153.699 14.3198C153.699 14.2587 153.641 14.2476 153.545 14.2476V14.2476ZM153.515 14.0116H153.384V14.1597H153.516C153.626 14.1597 153.669 14.1467 153.669 14.0847C153.669 14.0227 153.614 14.0116 153.515 14.0116V14.0116ZM153.765 14.4452C153.706 14.4826 153.634 14.4845 153.504 14.4845H153.258V13.9214H153.498C153.611 13.9214 153.68 13.9214 153.737 13.9575C153.756 13.9689 153.772 13.9854 153.782 14.0052C153.792 14.025 153.797 14.0473 153.795 14.0695C153.796 14.0972 153.788 14.1247 153.772 14.1474C153.756 14.17 153.733 14.1866 153.706 14.1944V14.1976C153.778 14.2138 153.825 14.2508 153.825 14.3309C153.827 14.3536 153.822 14.3764 153.812 14.3966C153.801 14.4168 153.785 14.4336 153.765 14.4452" fill="white"></path><path d="M154.317 14.3097C154.271 14.3056 154.219 14.3033 154.167 14.3033C154.083 14.3033 154.053 14.3204 154.053 14.3592C154.053 14.3981 154.078 14.4148 154.142 14.4148C154.201 14.4127 154.26 14.4045 154.317 14.3902V14.3097ZM154.341 14.4842L154.338 14.4592C154.265 14.48 154.189 14.4923 154.113 14.4957C154.069 14.4987 154.025 14.488 153.987 14.4652C153.972 14.4536 153.96 14.4383 153.952 14.4208C153.944 14.4033 153.94 14.384 153.941 14.3648C153.94 14.3412 153.946 14.3178 153.959 14.2978C153.971 14.2777 153.989 14.2619 154.011 14.2524C154.061 14.2337 154.114 14.2258 154.167 14.2292C154.21 14.2292 154.269 14.2315 154.317 14.2348V14.2292C154.317 14.1644 154.275 14.1432 154.158 14.1432C154.111 14.1432 154.058 14.1455 154.005 14.1506V14.0664C154.063 14.0617 154.129 14.0585 154.183 14.0585C154.25 14.0526 154.317 14.0659 154.377 14.0969C154.423 14.1307 154.433 14.1774 154.433 14.2394V14.4851L154.341 14.4842Z" fill="white"></path><path d="M154.975 14.4842V14.2528C154.975 14.1774 154.936 14.1501 154.867 14.1501C154.81 14.1526 154.753 14.1614 154.698 14.1765V14.4823H154.583V14.0659H154.676L154.68 14.0918C154.752 14.0709 154.827 14.0583 154.902 14.0543C154.953 14.0504 155.004 14.0655 155.044 14.0969C155.061 14.1138 155.074 14.1342 155.082 14.1567C155.09 14.1792 155.093 14.2032 155.09 14.2269V14.4809L154.975 14.4842Z" fill="white"></path><path d="M155.416 14.496C155.361 14.5003 155.306 14.4847 155.262 14.4521C155.238 14.4297 155.22 14.4023 155.208 14.3718C155.197 14.3413 155.193 14.3086 155.196 14.2763C155.194 14.2419 155.2 14.2076 155.215 14.1766C155.23 14.1456 155.253 14.1189 155.281 14.099C155.336 14.0679 155.399 14.0536 155.463 14.0579C155.509 14.0579 155.558 14.0611 155.609 14.0657V14.1546C155.568 14.1509 155.517 14.1472 155.477 14.1472C155.367 14.1472 155.315 14.1819 155.315 14.2772C155.315 14.3725 155.354 14.4053 155.444 14.4053C155.503 14.4035 155.561 14.3964 155.618 14.3841V14.4697C155.552 14.4849 155.484 14.4938 155.416 14.496Z" fill="white"></path><path d="M155.962 14.1447C155.852 14.1447 155.803 14.1794 155.803 14.2738C155.803 14.3682 155.849 14.4085 155.962 14.4085C156.074 14.4085 156.119 14.3747 156.119 14.2803C156.119 14.1859 156.072 14.1447 155.962 14.1447V14.1447ZM156.161 14.452C156.1 14.4862 156.031 14.5015 155.962 14.4959C155.892 14.5013 155.823 14.486 155.762 14.452C155.735 14.4321 155.713 14.4056 155.7 14.3749C155.686 14.3442 155.68 14.3105 155.684 14.2771C155.68 14.2435 155.686 14.2097 155.7 14.1789C155.713 14.148 155.735 14.1213 155.762 14.1012C155.823 14.0674 155.892 14.0522 155.962 14.0578C156.031 14.0524 156.1 14.0676 156.161 14.1012C156.188 14.1212 156.209 14.1479 156.222 14.1785C156.236 14.2092 156.241 14.2428 156.238 14.2761C156.241 14.3096 156.236 14.3434 156.222 14.3742C156.209 14.405 156.188 14.4317 156.161 14.452" fill="white"></path><path d="M156.907 14.4959C156.835 14.5004 156.763 14.4797 156.705 14.4371C156.637 14.3816 156.617 14.2951 156.617 14.2021C156.614 14.1558 156.624 14.1097 156.644 14.0679C156.664 14.0261 156.694 13.99 156.731 13.9628C156.804 13.9226 156.887 13.9042 156.969 13.9096C157.032 13.9096 157.096 13.9138 157.166 13.9193V14.0207C157.106 14.0156 157.032 14.0114 156.975 14.0114C156.814 14.0114 156.746 14.0725 156.746 14.2021C156.746 14.3316 156.809 14.3936 156.927 14.3936C157.012 14.3908 157.096 14.3795 157.178 14.3598V14.4607C157.089 14.4816 156.998 14.4935 156.907 14.4963" fill="white"></path><path d="M157.519 14.1315C157.422 14.1315 157.385 14.1657 157.38 14.2291H157.657C157.654 14.1615 157.615 14.1315 157.519 14.1315ZM157.502 14.4956C157.439 14.5012 157.377 14.4849 157.326 14.4493C157.302 14.4273 157.284 14.4003 157.272 14.3702C157.261 14.3402 157.256 14.3079 157.259 14.2758C157.257 14.2426 157.263 14.2094 157.277 14.179C157.29 14.1486 157.311 14.1218 157.337 14.1009C157.392 14.0681 157.455 14.0529 157.519 14.0574C157.581 14.0535 157.644 14.068 157.699 14.0991C157.765 14.1453 157.771 14.2185 157.772 14.3041H157.377C157.38 14.3674 157.414 14.4082 157.53 14.4082C157.604 14.4065 157.678 14.3994 157.751 14.3869V14.4683C157.669 14.484 157.585 14.4931 157.502 14.4956Z" fill="white"></path><path d="M158.287 14.4842V14.2528C158.287 14.1774 158.249 14.1501 158.18 14.1501C158.123 14.1526 158.066 14.1614 158.011 14.1765V14.4823H157.894V14.0659H157.989L157.993 14.0918C158.066 14.0708 158.14 14.0582 158.215 14.0543C158.266 14.0504 158.317 14.0655 158.358 14.0969C158.374 14.1138 158.387 14.1342 158.395 14.1567C158.403 14.1792 158.406 14.2032 158.404 14.2269V14.4809L158.287 14.4842Z" fill="white"></path><path d="M158.732 14.4958C158.707 14.4983 158.681 14.4942 158.657 14.4838C158.634 14.4734 158.613 14.4572 158.598 14.4366C158.575 14.3988 158.564 14.3548 158.567 14.3107V14.1553H158.483V14.0692H158.567L158.58 13.9434H158.682V14.0692H158.846V14.1553H158.682V14.2885C158.681 14.3154 158.685 14.3424 158.694 14.3677C158.701 14.3811 158.712 14.392 158.726 14.3989C158.739 14.4058 158.754 14.4083 158.769 14.4061C158.797 14.4056 158.825 14.4028 158.852 14.3977V14.481C158.813 14.4897 158.773 14.4946 158.732 14.4958" fill="white"></path><path d="M158.959 14.4842V14.0677H159.052L159.056 14.0936C159.122 14.0713 159.191 14.0586 159.261 14.0562H159.276V14.1552C159.263 14.1552 159.247 14.1552 159.236 14.1552C159.181 14.1554 159.126 14.1625 159.073 14.1765V14.4832L158.959 14.4842Z" fill="white"></path><path d="M159.699 14.3097C159.651 14.3056 159.601 14.3033 159.549 14.3033C159.465 14.3033 159.435 14.3204 159.435 14.3592C159.435 14.3981 159.46 14.4148 159.525 14.4148C159.584 14.4127 159.642 14.4044 159.699 14.3902V14.3097ZM159.724 14.4842L159.719 14.4606C159.646 14.4814 159.57 14.4937 159.494 14.4971C159.45 14.5 159.406 14.4893 159.368 14.4666C159.353 14.4549 159.341 14.4396 159.332 14.4221C159.324 14.4046 159.321 14.3854 159.322 14.3662C159.321 14.3419 159.327 14.3179 159.34 14.2975C159.354 14.2771 159.373 14.2613 159.395 14.2524C159.445 14.2341 159.498 14.2266 159.55 14.2302C159.594 14.2302 159.653 14.2325 159.701 14.2357V14.2292C159.701 14.1644 159.658 14.1432 159.542 14.1432C159.495 14.1432 159.441 14.1455 159.388 14.1506V14.0664C159.447 14.0617 159.513 14.0585 159.567 14.0585C159.634 14.0526 159.701 14.0659 159.76 14.0969C159.806 14.1307 159.817 14.1774 159.817 14.2394V14.4851L159.724 14.4842Z" fill="white"></path><path d="M159.964 13.894H160.08V14.4845H159.964V13.894Z" fill="white"></path><path d="M288.892 12.3491C288.66 12.3508 288.435 12.4268 288.253 12.5649C288.071 12.703 287.943 12.8954 287.889 13.1112C287.835 13.3271 287.858 13.5541 287.955 13.7559C288.051 13.9578 288.216 14.123 288.422 14.225V15.4042H289.285V14.2621C289.508 14.1749 289.692 14.0165 289.806 13.8139C289.92 13.6114 289.957 13.3773 289.911 13.1515C289.865 12.9257 289.738 12.7223 289.552 12.576C289.366 12.4297 289.133 12.3495 288.892 12.3491Z" fill="white"></path><path d="M292.304 10.0453V8.28072C292.323 7.38683 291.97 6.52232 291.323 5.87637C290.676 5.23041 289.788 4.85562 288.852 4.83398C287.917 4.85562 287.029 5.23041 286.382 5.87637C285.735 6.52232 285.382 7.38683 285.401 8.28072V10.0453H284.106V17.0542C284.106 17.2729 284.197 17.4826 284.359 17.6373C284.521 17.7919 284.74 17.8788 284.969 17.8788H292.735C292.964 17.8788 293.184 17.7919 293.346 17.6373C293.507 17.4826 293.598 17.2729 293.598 17.0542V10.0453H292.304ZM286.264 8.28072C286.245 7.60549 286.507 6.95067 286.992 6.45934C287.477 5.96801 288.146 5.68012 288.852 5.65856C289.559 5.68012 290.228 5.96801 290.713 6.45934C291.198 6.95067 291.46 7.60549 291.441 8.28072V10.0453H286.264V8.28072ZM284.969 17.0542V10.8699H292.735V17.0542H284.969Z" fill="white"></path><path d="M189.664 11.1453C190.285 11.1453 190.814 10.9241 191.164 10.514L190.711 10.0823C190.436 10.3845 190.096 10.5302 189.702 10.5302C188.92 10.5302 188.353 9.9798 188.353 9.20279C188.353 8.42578 188.92 7.87539 189.702 7.87539C190.096 7.87539 190.436 8.02108 190.711 8.31786L191.164 7.89158C190.814 7.48149 190.285 7.26025 189.67 7.26025C188.51 7.26025 187.646 8.07504 187.646 9.20279C187.646 10.3305 188.51 11.1453 189.664 11.1453Z" fill="white"></path><path d="M192.961 11.1291C193.857 11.1291 194.499 10.514 194.499 9.65065C194.499 8.7873 193.857 8.17756 192.961 8.17756C192.076 8.17756 191.429 8.7873 191.429 9.65065C191.429 10.514 192.076 11.1291 192.961 11.1291ZM192.961 10.5518C192.476 10.5518 192.109 10.201 192.109 9.65065C192.109 9.10027 192.476 8.74953 192.961 8.74953C193.452 8.74953 193.819 9.10027 193.819 9.65065C193.819 10.201 193.452 10.5518 192.961 10.5518Z" fill="white"></path><path d="M198.781 8.17756C198.322 8.17756 197.934 8.36102 197.702 8.6578C197.502 8.33404 197.151 8.17756 196.731 8.17756C196.337 8.17756 196.002 8.31786 195.786 8.57686V8.20994H195.144V11.0914H195.819V9.62907C195.819 9.0571 196.121 8.76572 196.569 8.76572C196.979 8.76572 197.216 9.01393 197.216 9.52655V11.0914H197.891V9.62907C197.891 9.0571 198.198 8.76572 198.641 8.76572C199.051 8.76572 199.288 9.01393 199.288 9.52655V11.0914H199.963V9.44021C199.963 8.57147 199.477 8.17756 198.781 8.17756Z" fill="white"></path><path d="M202.422 8.17756C202.028 8.17756 201.693 8.31246 201.467 8.58765V8.20994H200.825V12.1382H201.499V10.7406C201.731 11.005 202.055 11.1291 202.422 11.1291C203.264 11.1291 203.884 10.5464 203.884 9.65065C203.884 8.76032 203.264 8.17756 202.422 8.17756ZM202.346 10.5518C201.861 10.5518 201.488 10.201 201.488 9.65065C201.488 9.10027 201.861 8.74953 202.346 8.74953C202.832 8.74953 203.199 9.10027 203.199 9.65065C203.199 10.201 202.832 10.5518 202.346 10.5518Z" fill="white"></path><path d="M205.166 8.63082V8.20994H204.524V11.0914H205.198V9.69382C205.198 9.10566 205.522 8.80349 206.035 8.80349C206.083 8.80349 206.132 8.80889 206.191 8.81968V8.17756C205.711 8.17756 205.36 8.32865 205.166 8.63082Z" fill="white"></path><path d="M207.848 8.17756C207.384 8.17756 206.936 8.29627 206.629 8.53369L206.893 9.02472C207.109 8.84666 207.444 8.73874 207.767 8.73874C208.248 8.73874 208.485 8.97076 208.485 9.36467V9.40784H207.74C206.866 9.40784 206.543 9.78555 206.543 10.2658C206.543 10.7676 206.958 11.1291 207.616 11.1291C208.048 11.1291 208.361 10.9888 208.523 10.7406V11.0914H209.16V9.40244C209.16 8.57147 208.679 8.17756 207.848 8.17756ZM207.757 10.6381C207.411 10.6381 207.206 10.4816 207.206 10.2388C207.206 10.0284 207.33 9.8557 207.789 9.8557H208.485V10.1902C208.372 10.487 208.086 10.6381 207.757 10.6381Z" fill="white"></path><path d="M189.087 16.2645C190.123 16.2645 190.614 15.7465 190.614 15.1422C190.614 13.7554 188.375 14.2788 188.375 13.4748C188.375 13.1889 188.612 12.9622 189.195 12.9622C189.524 12.9622 189.896 13.0594 190.236 13.259L190.458 12.714C190.128 12.4982 189.654 12.3795 189.2 12.3795C188.164 12.3795 187.679 12.8975 187.679 13.5072C187.679 14.9102 189.923 14.376 189.923 15.1908C189.923 15.4713 189.675 15.6818 189.087 15.6818C188.623 15.6818 188.143 15.5091 187.84 15.2663L187.598 15.8113C187.911 16.0811 188.499 16.2645 189.087 16.2645Z" fill="white"></path><path d="M193.954 14.7861C193.954 13.8849 193.338 13.2968 192.497 13.2968C191.639 13.2968 191.007 13.9119 191.007 14.7699C191.007 15.6278 191.633 16.2484 192.599 16.2484C193.096 16.2484 193.5 16.0865 193.759 15.7789L193.398 15.3634C193.193 15.5739 192.939 15.6764 192.615 15.6764C192.114 15.6764 191.763 15.4066 191.682 14.9857H193.943C193.948 14.921 193.954 14.84 193.954 14.7861ZM192.497 13.8364C192.939 13.8364 193.257 14.1224 193.311 14.5378H191.676C191.741 14.117 192.06 13.8364 192.497 13.8364Z" fill="white"></path><path d="M196.819 13.3292V13.7123C196.582 13.4263 196.226 13.2968 195.821 13.2968C194.995 13.2968 194.364 13.8472 194.364 14.6835C194.364 15.5199 194.995 16.0811 195.821 16.0811C196.209 16.0811 196.549 15.957 196.787 15.698V15.8491C196.787 16.4318 196.506 16.7232 195.869 16.7232C195.47 16.7232 195.06 16.5883 194.806 16.3779L194.504 16.8851C194.833 17.1549 195.368 17.2952 195.907 17.2952C196.916 17.2952 197.461 16.8203 197.461 15.7735V13.3292H196.819ZM195.923 15.5091C195.411 15.5091 195.044 15.1746 195.044 14.6835C195.044 14.1979 195.411 13.8687 195.923 13.8687C196.431 13.8687 196.798 14.1979 196.798 14.6835C196.798 15.1746 196.431 15.5091 195.923 15.5091Z" fill="white"></path><path d="M200.463 13.3292V14.7861C200.463 15.3634 200.145 15.6548 199.675 15.6548C199.249 15.6548 199.001 15.4066 199.001 14.8832V13.3292H198.326V14.9749C198.326 15.8437 198.828 16.2484 199.568 16.2484C199.94 16.2484 200.28 16.1081 200.496 15.8437V16.2106H201.138V13.3292H200.463Z" fill="white"></path><path d="M202.663 13.75V13.3292H202.021V16.2106H202.695V14.813C202.695 14.2249 203.019 13.9227 203.532 13.9227C203.58 13.9227 203.629 13.9281 203.688 13.9389V13.2968C203.208 13.2968 202.857 13.4479 202.663 13.75Z" fill="white"></path><path d="M205.345 13.2968C204.881 13.2968 204.433 13.4155 204.126 13.6529L204.39 14.1439C204.606 13.9659 204.941 13.858 205.264 13.858C205.745 13.858 205.982 14.09 205.982 14.4839V14.5271H205.237C204.363 14.5271 204.04 14.9048 204.04 15.385C204.04 15.8868 204.455 16.2484 205.113 16.2484C205.545 16.2484 205.858 16.1081 206.02 15.8598V16.2106H206.657V14.5217C206.657 13.6907 206.176 13.2968 205.345 13.2968ZM205.254 15.7573C204.908 15.7573 204.703 15.6008 204.703 15.358C204.703 15.1476 204.827 14.9749 205.286 14.9749H205.982V15.3095C205.869 15.6062 205.583 15.7573 205.254 15.7573Z" fill="white"></path><path d="M243.693 11.1454C244.729 11.1454 245.22 10.6274 245.22 10.023C245.22 8.63629 242.981 9.1597 242.981 8.3557C242.981 8.06972 243.218 7.84309 243.801 7.84309C244.13 7.84309 244.502 7.94022 244.842 8.13987L245.063 7.59488C244.734 7.37904 244.259 7.26033 243.806 7.26033C242.77 7.26033 242.284 7.77834 242.284 8.38808C242.284 9.79102 244.529 9.25682 244.529 10.0716C244.529 10.3522 244.281 10.5626 243.693 10.5626C243.229 10.5626 242.748 10.39 242.446 10.1472L242.203 10.6921C242.516 10.9619 243.105 11.1454 243.693 11.1454Z" fill="white"></path><path d="M246.951 8.17764C246.487 8.17764 246.039 8.29635 245.732 8.53377L245.996 9.0248C246.212 8.84673 246.547 8.73881 246.87 8.73881C247.351 8.73881 247.588 8.97084 247.588 9.36474V9.40791H246.843C245.969 9.40791 245.646 9.78563 245.646 10.2659C245.646 10.7677 246.061 11.1292 246.719 11.1292C247.151 11.1292 247.464 10.9889 247.626 10.7407V11.0914H248.263V9.40251C248.263 8.57154 247.782 8.17764 246.951 8.17764ZM246.86 10.6382C246.514 10.6382 246.309 10.4817 246.309 10.2389C246.309 10.0284 246.433 9.85577 246.892 9.85577H247.588V10.1903C247.475 10.4871 247.189 10.6382 246.86 10.6382Z" fill="white"></path><path d="M250.671 10.4547C250.569 10.5357 250.434 10.5734 250.294 10.5734C250.035 10.5734 249.894 10.4223 249.894 10.1418V8.77119H250.666V8.2316H249.894V7.57329H249.22V8.2316H248.745V8.77119H249.22V10.1579C249.22 10.7947 249.582 11.1292 250.213 11.1292C250.456 11.1292 250.698 11.0645 250.86 10.935L250.671 10.4547Z" fill="white"></path><path d="M251.755 7.73517C252.009 7.73517 252.187 7.55171 252.187 7.31429C252.187 7.09305 252.003 6.92578 251.755 6.92578C251.507 6.92578 251.323 7.10385 251.323 7.33048C251.323 7.55711 251.507 7.73517 251.755 7.73517ZM251.415 11.0914H252.09V8.21001H251.415V11.0914Z" fill="white"></path><path d="M253.865 11.1292C254.675 11.1292 255.171 10.7785 255.171 10.2389C255.171 9.11113 253.39 9.62914 253.39 9.04638C253.39 8.85752 253.585 8.72263 253.995 8.72263C254.27 8.72263 254.545 8.77659 254.82 8.93846L255.079 8.42585C254.82 8.26937 254.383 8.17764 254 8.17764C253.223 8.17764 252.732 8.53377 252.732 9.07876C252.732 10.2281 254.513 9.71008 254.513 10.2605C254.513 10.4601 254.335 10.5788 253.908 10.5788C253.547 10.5788 253.158 10.4601 252.905 10.2928L252.646 10.8055C252.905 10.9889 253.385 11.1292 253.865 11.1292Z" fill="white"></path><path d="M256.923 7.59488C257.063 7.59488 257.193 7.64344 257.295 7.71359L257.484 7.20637C257.333 7.09845 257.106 7.04989 256.874 7.04989C256.205 7.04989 255.844 7.44379 255.844 8.04814V8.2316H255.369V8.77119H255.844V11.0914H256.518V8.77119H257.29V8.2316H256.497V8.05893C256.497 7.75136 256.642 7.59488 256.923 7.59488Z" fill="white"></path><path d="M258.792 8.17764C258.328 8.17764 257.88 8.29635 257.572 8.53377L257.837 9.0248C258.053 8.84673 258.387 8.73881 258.711 8.73881C259.191 8.73881 259.429 8.97084 259.429 9.36474V9.40791H258.684C257.81 9.40791 257.486 9.78563 257.486 10.2659C257.486 10.7677 257.902 11.1292 258.56 11.1292C258.992 11.1292 259.305 10.9889 259.466 10.7407V11.0914H260.103V9.40251C260.103 8.57154 259.623 8.17764 258.792 8.17764ZM258.7 10.6382C258.355 10.6382 258.15 10.4817 258.15 10.2389C258.15 10.0284 258.274 9.85577 258.733 9.85577H259.429V10.1903C259.315 10.4871 259.029 10.6382 258.7 10.6382Z" fill="white"></path><path d="M262.312 10.5518C261.815 10.5518 261.438 10.2119 261.438 9.65073C261.438 9.09495 261.815 8.74961 262.312 8.74961C262.598 8.74961 262.857 8.87371 263.029 9.14891L263.547 8.84673C263.326 8.40966 262.878 8.17764 262.317 8.17764C261.405 8.17764 260.758 8.78738 260.758 9.65073C260.758 10.4116 261.259 10.9781 261.999 11.1022L261.864 11.6041H262.031C262.236 11.6041 262.317 11.6796 262.317 11.7821C262.317 11.9008 262.231 11.9764 262.031 11.9764C261.896 11.9764 261.777 11.9494 261.664 11.89L261.54 12.2084C261.675 12.2839 261.842 12.3217 262.036 12.3217C262.479 12.3217 262.77 12.1221 262.77 11.8091C262.77 11.5771 262.619 11.3936 262.301 11.3558L262.36 11.1292C262.9 11.1184 263.332 10.8756 263.547 10.4547L263.029 10.1525C262.857 10.4277 262.598 10.5518 262.312 10.5518Z" fill="white"></path><path d="M264.945 7.45998C265.139 7.45998 265.323 7.81611 265.679 7.81611C266.024 7.81611 266.251 7.53013 266.262 7.10924H265.9C265.889 7.3035 265.787 7.41681 265.636 7.41681C265.442 7.41681 265.258 7.06068 264.902 7.06068C264.557 7.06068 264.33 7.34127 264.319 7.78373H264.681C264.692 7.57869 264.794 7.45998 264.945 7.45998ZM265.231 8.17764C264.767 8.17764 264.319 8.29635 264.012 8.53377L264.276 9.0248C264.492 8.84673 264.826 8.73881 265.15 8.73881C265.63 8.73881 265.868 8.97084 265.868 9.36474V9.40791H265.123C264.249 9.40791 263.925 9.78563 263.925 10.2659C263.925 10.7677 264.341 11.1292 264.999 11.1292C265.431 11.1292 265.744 10.9889 265.906 10.7407V11.0914H266.542V9.40251C266.542 8.57154 266.062 8.17764 265.231 8.17764ZM265.139 10.6382C264.794 10.6382 264.589 10.4817 264.589 10.2389C264.589 10.0284 264.713 9.85577 265.172 9.85577H265.868V10.1903C265.755 10.4871 265.469 10.6382 265.139 10.6382Z" fill="white"></path><path d="M268.729 11.1292C269.625 11.1292 270.267 10.5141 270.267 9.65073C270.267 8.78738 269.625 8.17764 268.729 8.17764C267.844 8.17764 267.197 8.78738 267.197 9.65073C267.197 10.5141 267.844 11.1292 268.729 11.1292ZM268.729 10.5518C268.244 10.5518 267.877 10.2011 267.877 9.65073C267.877 9.10034 268.244 8.74961 268.729 8.74961C269.22 8.74961 269.587 9.10034 269.587 9.65073C269.587 10.2011 269.22 10.5518 268.729 10.5518Z" fill="white"></path><path d="M245.101 15.4552C244.858 15.5955 244.594 15.6495 244.324 15.6495C243.525 15.6495 242.959 15.0883 242.959 14.3221C242.959 13.5397 243.525 12.9947 244.329 12.9947C244.734 12.9947 245.074 13.1296 245.371 13.4264L245.813 12.9947C245.457 12.59 244.928 12.3795 244.297 12.3795C243.115 12.3795 242.252 13.1943 242.252 14.3221C242.252 15.4498 243.115 16.2646 244.286 16.2646C244.821 16.2646 245.371 16.1027 245.765 15.7844V14.2789H245.101V15.4552Z" fill="white"></path><path d="M247.726 13.2969C247.262 13.2969 246.814 13.4156 246.507 13.653L246.771 14.144C246.987 13.966 247.321 13.858 247.645 13.858C248.125 13.858 248.363 14.0901 248.363 14.484V14.5271H247.618C246.744 14.5271 246.42 14.9048 246.42 15.3851C246.42 15.8869 246.836 16.2484 247.494 16.2484C247.926 16.2484 248.239 16.1081 248.401 15.8599V16.2107H249.037V14.5217C249.037 13.6908 248.557 13.2969 247.726 13.2969ZM247.634 15.7574C247.289 15.7574 247.084 15.6009 247.084 15.3581C247.084 15.1477 247.208 14.975 247.667 14.975H248.363V15.3095C248.249 15.6063 247.963 15.7574 247.634 15.7574Z" fill="white"></path><path d="M250.545 13.7501V13.3292H249.903V16.2107H250.577V14.8131C250.577 14.225 250.901 13.9228 251.414 13.9228C251.462 13.9228 251.511 13.9282 251.57 13.939V13.2969C251.09 13.2969 250.739 13.4479 250.545 13.7501Z" fill="white"></path><path d="M253.227 13.2969C252.763 13.2969 252.315 13.4156 252.008 13.653L252.272 14.144C252.488 13.966 252.823 13.858 253.146 13.858C253.627 13.858 253.864 14.0901 253.864 14.484V14.5271H253.119C252.245 14.5271 251.922 14.9048 251.922 15.3851C251.922 15.8869 252.337 16.2484 252.995 16.2484C253.427 16.2484 253.74 16.1081 253.902 15.8599V16.2107H254.539V14.5217C254.539 13.6908 254.058 13.2969 253.227 13.2969ZM253.136 15.7574C252.79 15.7574 252.585 15.6009 252.585 15.3581C252.585 15.1477 252.709 14.975 253.168 14.975H253.864V15.3095C253.751 15.6063 253.465 15.7574 253.136 15.7574Z" fill="white"></path><path d="M257.039 13.2969C256.618 13.2969 256.268 13.4371 256.046 13.7016V13.3292H255.404V16.2107H256.079V14.7538C256.079 14.1764 256.402 13.885 256.883 13.885C257.314 13.885 257.568 14.1332 257.568 14.6458V16.2107H258.242V14.5595C258.242 13.6908 257.73 13.2969 257.039 13.2969Z" fill="white"></path><path d="M260.641 15.5739C260.539 15.6549 260.404 15.6926 260.264 15.6926C260.005 15.6926 259.864 15.5416 259.864 15.261V13.8904H260.636V13.3508H259.864V12.6925H259.19V13.3508H258.715V13.8904H259.19V15.2772C259.19 15.9139 259.551 16.2484 260.183 16.2484C260.425 16.2484 260.668 16.1837 260.83 16.0542L260.641 15.5739Z" fill="white"></path><path d="M261.725 12.8544C261.979 12.8544 262.157 12.6709 262.157 12.4335C262.157 12.2123 261.973 12.045 261.725 12.045C261.477 12.045 261.293 12.2231 261.293 12.4497C261.293 12.6763 261.477 12.8544 261.725 12.8544ZM261.385 16.2107H262.06V13.3292H261.385V16.2107Z" fill="white"></path><path d="M265.092 12.2069V13.6854C264.866 13.421 264.537 13.2969 264.164 13.2969C263.328 13.2969 262.707 13.8742 262.707 14.7699C262.707 15.6657 263.328 16.2484 264.164 16.2484C264.558 16.2484 264.893 16.1135 265.119 15.8383V16.2107H265.767V12.2069H265.092ZM264.245 15.6711C263.76 15.6711 263.387 15.3203 263.387 14.7699C263.387 14.2196 263.76 13.8688 264.245 13.8688C264.731 13.8688 265.103 14.2196 265.103 14.7699C265.103 15.3203 264.731 15.6711 264.245 15.6711Z" fill="white"></path><path d="M267.75 13.2969C267.286 13.2969 266.838 13.4156 266.531 13.653L266.795 14.144C267.011 13.966 267.345 13.858 267.669 13.858C268.149 13.858 268.387 14.0901 268.387 14.484V14.5271H267.642C266.768 14.5271 266.444 14.9048 266.444 15.3851C266.444 15.8869 266.86 16.2484 267.518 16.2484C267.95 16.2484 268.263 16.1081 268.424 15.8599V16.2107H269.061V14.5217C269.061 13.6908 268.581 13.2969 267.75 13.2969ZM267.658 15.7574C267.313 15.7574 267.108 15.6009 267.108 15.3581C267.108 15.1477 267.232 14.975 267.691 14.975H268.387V15.3095C268.273 15.6063 267.987 15.7574 267.658 15.7574Z" fill="white"></path><path d="M300.952 7.31429H299.398V11.0914H300.1V10.0015H300.952C301.945 10.0015 302.56 9.48885 302.56 8.65788C302.56 7.82151 301.945 7.31429 300.952 7.31429ZM300.92 9.40791H300.1V7.90784H300.92C301.535 7.90784 301.853 8.18303 301.853 8.65788C301.853 9.13272 301.535 9.40791 300.92 9.40791Z" fill="white"></path><path d="M303.812 8.6309V8.21001H303.17V11.0914H303.844V9.69389C303.844 9.10574 304.168 8.80357 304.681 8.80357C304.729 8.80357 304.778 8.80896 304.837 8.81975V8.17764C304.357 8.17764 304.006 8.32872 303.812 8.6309Z" fill="white"></path><path d="M305.749 7.73517C306.003 7.73517 306.181 7.55171 306.181 7.31429C306.181 7.09305 305.997 6.92578 305.749 6.92578C305.501 6.92578 305.318 7.10385 305.318 7.33048C305.318 7.55711 305.501 7.73517 305.749 7.73517ZM305.409 11.0914H306.084V8.21001H305.409V11.0914Z" fill="white"></path><path d="M309.019 8.21001L308.097 10.3468L307.201 8.21001H306.5L307.735 11.0914H308.431L309.667 8.21001H309.019Z" fill="white"></path><path d="M311.1 8.17764C310.636 8.17764 310.188 8.29635 309.88 8.53377L310.145 9.0248C310.36 8.84673 310.695 8.73881 311.019 8.73881C311.499 8.73881 311.736 8.97084 311.736 9.36474V9.40791H310.992C310.118 9.40791 309.794 9.78563 309.794 10.2659C309.794 10.7677 310.209 11.1292 310.868 11.1292C311.299 11.1292 311.612 10.9889 311.774 10.7407V11.0914H312.411V9.40251C312.411 8.57154 311.931 8.17764 311.1 8.17764ZM311.008 10.6382C310.663 10.6382 310.458 10.4817 310.458 10.2389C310.458 10.0284 310.582 9.85577 311.04 9.85577H311.736V10.1903C311.623 10.4871 311.337 10.6382 311.008 10.6382Z" fill="white"></path><path d="M314.625 11.1292C315.186 11.1292 315.634 10.8864 315.855 10.4547L315.337 10.1525C315.165 10.4277 314.906 10.5518 314.62 10.5518C314.123 10.5518 313.745 10.2119 313.745 9.65073C313.745 9.09495 314.123 8.74961 314.62 8.74961C314.906 8.74961 315.165 8.87371 315.337 9.14891L315.855 8.84673C315.634 8.40966 315.186 8.17764 314.625 8.17764C313.713 8.17764 313.065 8.78738 313.065 9.65073C313.065 10.5141 313.713 11.1292 314.625 11.1292Z" fill="white"></path><path d="M316.778 7.73517C317.032 7.73517 317.21 7.55171 317.21 7.31429C317.21 7.09305 317.026 6.92578 316.778 6.92578C316.53 6.92578 316.347 7.10385 316.347 7.33048C316.347 7.55711 316.53 7.73517 316.778 7.73517ZM316.438 11.0914H317.113V8.21001H316.438V11.0914Z" fill="white"></path><path d="M320.146 7.08766V8.56614C319.919 8.30174 319.59 8.17764 319.217 8.17764C318.381 8.17764 317.761 8.755 317.761 9.65073C317.761 10.5465 318.381 11.1292 319.217 11.1292C319.611 11.1292 319.946 10.9943 320.173 10.7191V11.0914H320.82V7.08766H320.146ZM319.298 10.5518C318.813 10.5518 318.44 10.2011 318.44 9.65073C318.44 9.10034 318.813 8.74961 319.298 8.74961C319.784 8.74961 320.156 9.10034 320.156 9.65073C320.156 10.2011 319.784 10.5518 319.298 10.5518Z" fill="white"></path><path d="M322.803 8.17764C322.339 8.17764 321.891 8.29635 321.584 8.53377L321.848 9.0248C322.064 8.84673 322.399 8.73881 322.722 8.73881C323.203 8.73881 323.44 8.97084 323.44 9.36474V9.40791H322.695C321.821 9.40791 321.497 9.78563 321.497 10.2659C321.497 10.7677 321.913 11.1292 322.571 11.1292C323.003 11.1292 323.316 10.9889 323.478 10.7407V11.0914H324.114V9.40251C324.114 8.57154 323.634 8.17764 322.803 8.17764ZM322.711 10.6382C322.366 10.6382 322.161 10.4817 322.161 10.2389C322.161 10.0284 322.285 9.85577 322.744 9.85577H323.44V10.1903C323.327 10.4871 323.041 10.6382 322.711 10.6382Z" fill="white"></path><path d="M327.154 7.08766V8.56614C326.927 8.30174 326.598 8.17764 326.226 8.17764C325.39 8.17764 324.769 8.755 324.769 9.65073C324.769 10.5465 325.39 11.1292 326.226 11.1292C326.62 11.1292 326.954 10.9943 327.181 10.7191V11.0914H327.828V7.08766H327.154ZM326.307 10.5518C325.821 10.5518 325.449 10.2011 325.449 9.65073C325.449 9.10034 325.821 8.74961 326.307 8.74961C326.792 8.74961 327.165 9.10034 327.165 9.65073C327.165 10.2011 326.792 10.5518 326.307 10.5518Z" fill="white"></path><path d="M331.42 9.66692C331.42 8.76579 330.804 8.17764 329.963 8.17764C329.105 8.17764 328.473 8.79277 328.473 9.65073C328.473 10.5087 329.099 11.1292 330.065 11.1292C330.562 11.1292 330.966 10.9673 331.225 10.6598L330.864 10.2443C330.659 10.4547 330.405 10.5572 330.081 10.5572C329.58 10.5572 329.229 10.2874 329.148 9.86656H331.409C331.414 9.80181 331.42 9.72087 331.42 9.66692ZM329.963 8.71723C330.405 8.71723 330.724 9.00322 330.777 9.4187H329.143C329.207 8.99782 329.526 8.71723 329.963 8.71723Z" fill="white"></path><path d="M300.952 12.4335H299.398V16.2107H300.1V15.1207H300.952C301.945 15.1207 302.56 14.6081 302.56 13.7771C302.56 12.9407 301.945 12.4335 300.952 12.4335ZM300.92 14.5271H300.1V13.0271H300.92C301.535 13.0271 301.853 13.3023 301.853 13.7771C301.853 14.2519 301.535 14.5271 300.92 14.5271Z" fill="white"></path><path d="M303.812 13.7501V13.3292H303.17V16.2107H303.844V14.8131C303.844 14.225 304.168 13.9228 304.681 13.9228C304.729 13.9228 304.778 13.9282 304.837 13.939V13.2969C304.357 13.2969 304.006 13.4479 303.812 13.7501Z" fill="white"></path><path d="M306.678 16.2484C307.574 16.2484 308.216 15.6333 308.216 14.7699C308.216 13.9066 307.574 13.2969 306.678 13.2969C305.793 13.2969 305.145 13.9066 305.145 14.7699C305.145 15.6333 305.793 16.2484 306.678 16.2484ZM306.678 15.6711C306.192 15.6711 305.825 15.3203 305.825 14.7699C305.825 14.2196 306.192 13.8688 306.678 13.8688C307.169 13.8688 307.536 14.2196 307.536 14.7699C307.536 15.3203 307.169 15.6711 306.678 15.6711Z" fill="white"></path><path d="M310.404 15.5739C310.301 15.6549 310.167 15.6926 310.026 15.6926C309.767 15.6926 309.627 15.5416 309.627 15.261V13.8904H310.399V13.3508H309.627V12.6925H308.952V13.3508H308.478V13.8904H308.952V15.2772C308.952 15.9139 309.314 16.2484 309.945 16.2484C310.188 16.2484 310.431 16.1837 310.593 16.0542L310.404 15.5739Z" fill="white"></path><path d="M313.762 14.7861C313.762 13.885 313.146 13.2969 312.305 13.2969C311.447 13.2969 310.815 13.912 310.815 14.7699C310.815 15.6279 311.441 16.2484 312.407 16.2484C312.904 16.2484 313.308 16.0866 313.567 15.779L313.206 15.3635C313.001 15.5739 312.747 15.6765 312.423 15.6765C311.922 15.6765 311.571 15.4067 311.49 14.9858H313.751C313.756 14.921 313.762 14.8401 313.762 14.7861ZM312.305 13.8364C312.747 13.8364 313.066 14.1224 313.12 14.5379H311.485C311.549 14.117 311.868 13.8364 312.305 13.8364Z" fill="white"></path><path d="M316.627 13.3292V13.7123C316.39 13.4264 316.034 13.2969 315.629 13.2969C314.803 13.2969 314.172 13.8472 314.172 14.6836C314.172 15.52 314.803 16.0812 315.629 16.0812C316.017 16.0812 316.357 15.9571 316.595 15.698V15.8491C316.595 16.4319 316.314 16.7233 315.678 16.7233C315.278 16.7233 314.868 16.5884 314.615 16.3779L314.312 16.8852C314.642 17.1549 315.176 17.2952 315.715 17.2952C316.724 17.2952 317.269 16.8204 317.269 15.7736V13.3292H316.627ZM315.732 15.5092C315.219 15.5092 314.852 15.1746 314.852 14.6836C314.852 14.198 315.219 13.8688 315.732 13.8688C316.239 13.8688 316.606 14.198 316.606 14.6836C316.606 15.1746 316.239 15.5092 315.732 15.5092Z" fill="white"></path><path d="M318.496 12.8544C318.75 12.8544 318.928 12.6709 318.928 12.4335C318.928 12.2123 318.744 12.045 318.496 12.045C318.248 12.045 318.064 12.2231 318.064 12.4497C318.064 12.6763 318.248 12.8544 318.496 12.8544ZM318.156 16.2107H318.831V13.3292H318.156V16.2107Z" fill="white"></path><path d="M321.863 12.2069V13.6854C321.637 13.421 321.308 13.2969 320.935 13.2969C320.099 13.2969 319.478 13.8742 319.478 14.7699C319.478 15.6657 320.099 16.2484 320.935 16.2484C321.329 16.2484 321.664 16.1135 321.89 15.8383V16.2107H322.538V12.2069H321.863ZM321.016 15.6711C320.531 15.6711 320.158 15.3203 320.158 14.7699C320.158 14.2196 320.531 13.8688 321.016 13.8688C321.502 13.8688 321.874 14.2196 321.874 14.7699C321.874 15.3203 321.502 15.6711 321.016 15.6711Z" fill="white"></path><path d="M324.521 13.2969C324.057 13.2969 323.609 13.4156 323.302 13.653L323.566 14.144C323.782 13.966 324.116 13.858 324.44 13.858C324.92 13.858 325.158 14.0901 325.158 14.484V14.5271H324.413C323.539 14.5271 323.215 14.9048 323.215 15.3851C323.215 15.8869 323.631 16.2484 324.289 16.2484C324.721 16.2484 325.034 16.1081 325.196 15.8599V16.2107H325.832V14.5217C325.832 13.6908 325.352 13.2969 324.521 13.2969ZM324.429 15.7574C324.084 15.7574 323.879 15.6009 323.879 15.3581C323.879 15.1477 324.003 14.975 324.462 14.975H325.158V15.3095C325.044 15.6063 324.758 15.7574 324.429 15.7574Z" fill="white"></path><path d="M176.706 4.83398L170.916 6.67812V12.2105C170.916 15.2663 173.508 17.7429 176.706 17.7429C179.904 17.7429 182.496 15.2663 182.496 12.2105V6.67812L176.706 4.83398ZM181.41 12.2105C181.41 14.6929 179.304 16.7056 176.706 16.7056C174.108 16.7056 172.002 14.6929 172.002 12.2105V7.45611L176.706 5.87131L181.41 7.45611V12.2105Z" fill="white"></path><path d="M174.692 10.7563C174.641 10.708 174.582 10.6697 174.516 10.6435C174.45 10.6174 174.379 10.6039 174.308 10.6039C174.237 10.6039 174.166 10.6174 174.1 10.6435C174.034 10.6697 173.975 10.708 173.924 10.7563C173.874 10.8044 173.834 10.8615 173.806 10.9244C173.779 10.9873 173.765 11.0548 173.765 11.123C173.765 11.1911 173.779 11.2586 173.806 11.3215C173.834 11.3844 173.874 11.4416 173.924 11.4896L175.875 13.3539L175.907 13.3842C175.954 13.4297 176.011 13.4659 176.073 13.4905C176.135 13.5152 176.202 13.5279 176.269 13.5279C176.337 13.5279 176.404 13.5152 176.466 13.4905C176.528 13.4659 176.584 13.4297 176.632 13.3842L180.002 10.1642C180.049 10.1187 180.087 10.0647 180.113 10.0052C180.139 9.94576 180.152 9.88203 180.152 9.81766C180.152 9.75329 180.139 9.68956 180.113 9.6301C180.087 9.57064 180.049 9.51663 180.002 9.47116L179.96 9.43082C179.912 9.38527 179.855 9.34912 179.793 9.32446C179.731 9.2998 179.664 9.28711 179.597 9.28711C179.53 9.28711 179.463 9.2998 179.401 9.32446C179.338 9.34912 179.282 9.38527 179.234 9.43082L176.269 12.2633L174.692 10.7563Z" fill="white"></path><path fill-rule="evenodd" clip-rule="evenodd" d="M225.989 10.5135C225.227 10.409 224.53 10.0454 224.026 9.48953C223.522 8.93365 223.244 8.22272 223.244 7.48713V7.07948C223.244 6.2919 223.913 5.6527 224.737 5.6527H225.894C226.089 5.17575 226.573 4.8374 227.142 4.8374H232.998C233.268 4.83755 233.531 4.91544 233.754 5.06091C233.976 5.20637 234.148 5.41263 234.245 5.6527H235.402C236.227 5.6527 236.896 6.2919 236.896 7.07948V7.48713C236.896 8.22272 236.618 8.93365 236.114 9.48953C235.61 10.0454 234.913 10.409 234.151 10.5135C233.971 11.0744 233.666 11.5917 233.258 12.0302C232.85 12.4687 232.348 12.8182 231.787 13.0548L231.909 14.2337C231.914 14.2745 231.935 14.3316 232.007 14.4001C232.08 14.471 232.192 14.5387 232.325 14.5851C232.566 14.6691 232.852 14.8085 233.084 15.0482C233.327 15.301 233.483 15.6377 233.483 16.0478V16.6593H234.549C234.719 16.6593 234.882 16.7237 235.002 16.8384C235.122 16.953 235.189 17.1086 235.189 17.2707C235.189 17.4329 235.122 17.5884 235.002 17.7031C234.882 17.8178 234.719 17.8822 234.549 17.8822H225.591C225.421 17.8822 225.258 17.8178 225.138 17.7031C225.018 17.5884 224.951 17.4329 224.951 17.2707C224.951 17.1086 225.018 16.953 225.138 16.8384C225.258 16.7237 225.421 16.6593 225.591 16.6593H226.657V16.0478C226.657 15.6377 226.812 15.301 227.056 15.0482C227.287 14.8085 227.573 14.6691 227.815 14.5851C227.934 14.5459 228.042 14.4828 228.133 14.4001C228.205 14.3308 228.226 14.2753 228.23 14.2337L228.353 13.0548C227.792 12.8181 227.29 12.4686 226.882 12.0301C226.474 11.5916 226.17 11.0744 225.99 10.5135H225.989ZM225.804 6.87565H224.737C224.681 6.87565 224.627 6.89713 224.587 6.93535C224.547 6.97358 224.524 7.02542 224.524 7.07948V7.48713C224.524 8.28612 225.058 8.96527 225.804 9.2172V6.87565ZM229.607 13.3736L229.504 14.3552C229.425 15.1094 228.772 15.5537 228.253 15.7339C228.157 15.7623 228.069 15.8114 227.997 15.8774C227.965 15.91 227.937 15.9532 227.937 16.0486V16.6601H232.203V16.0486C232.203 15.9532 232.175 15.91 232.143 15.8774C232.071 15.8114 231.983 15.7623 231.887 15.7339C231.368 15.5537 230.715 15.1094 230.636 14.356L230.534 13.3744C230.226 13.4063 229.915 13.4063 229.607 13.3744V13.3736ZM234.336 9.21801V6.87565H235.402C235.459 6.87565 235.513 6.89713 235.553 6.93535C235.593 6.97358 235.616 7.02542 235.616 7.07948V7.48713C235.616 7.86657 235.493 8.23672 235.264 8.54656C235.034 8.85641 234.71 9.09072 234.336 9.2172V9.21801ZM227.084 6.11579C227.084 6.08563 227.109 6.06035 227.142 6.06035H232.998C233.03 6.06035 233.056 6.08481 233.056 6.11579V9.32156C233.056 10.0784 232.741 10.8042 232.181 11.3393C231.621 11.8745 230.862 12.1751 230.07 12.1751C229.278 12.1751 228.518 11.8745 227.958 11.3393C227.398 10.8042 227.084 10.0784 227.084 9.32156V6.11579Z" fill="white"></path><path d="M230.073 6.79297L230.533 8.14503H232.021L230.817 8.98065L231.277 10.3327L230.073 9.49709L228.869 10.3327L229.329 8.98065L228.126 8.14503H229.613L230.073 6.79297Z" fill="white"></path><defs><clipPath id="clip0_0_773"><rect width="22.4191" height="12.7694" fill="white" transform="translate(4.55981 4.55908)"></rect></clipPath></defs></svg>