<svg xmlns="http://www.w3.org/2000/svg" width="363" height="309" viewBox="0 0 363 309" fill="none"><path d="M62.5971 23.6493L60.9202 21.9481C59.6321 22.9931 57.9551 23.5521 56.108 23.5521C51.6847 23.5521 48.4037 20.4412 48.4037 14.8028C48.4037 9.16428 51.6847 6.0777 56.108 6.0777C60.5313 6.0777 63.8366 9.16428 63.8366 14.8028C63.8366 17.2817 63.1804 19.299 62.0867 20.7329L63.8123 22.4828L62.5971 23.6493ZM56.108 21.8022C57.469 21.8022 58.6599 21.4134 59.6077 20.6114L56.424 17.4033L57.6391 16.2367L60.7014 19.3233C61.4062 18.2053 61.7951 16.6985 61.7951 14.8028C61.7951 10.185 59.4133 7.82757 56.108 7.82757C52.827 7.82757 50.4452 10.185 50.4452 14.8028C50.4452 19.4205 52.827 21.8022 56.108 21.8022ZM68.086 18.0838C68.086 20.4898 69.1067 21.8995 71.3427 21.8995C73.5786 21.8995 75.0612 20.4898 75.0612 18.0838V10.6711H77.0055V23.3091H75.0612V20.8301H75.0126C74.7938 21.6807 73.5786 23.5521 70.6622 23.5521C68.1589 23.5521 66.1417 22.1911 66.1417 18.4726V10.6711H68.086V18.0838ZM85.2317 23.5521C81.7563 23.5521 79.2287 21.462 79.2287 17.0144C79.2287 12.421 81.9021 10.4281 85.1345 10.4281C88.3912 10.4281 90.773 12.4696 90.773 16.6985C90.773 17.1116 90.7487 17.3547 90.7001 17.5977H81.1001C81.2459 20.5628 82.7041 21.9967 85.256 21.9967C86.8115 21.9967 88.2211 21.4863 88.8287 19.7607H90.6029C89.7765 22.5557 87.6378 23.5521 85.2317 23.5521ZM81.1001 16.1152H88.9016C88.8773 13.466 87.4434 11.9592 85.1102 11.9592C82.8986 11.9592 81.2945 13.2959 81.1001 16.1152ZM109.609 15.8964C109.609 13.4904 108.662 12.0807 106.571 12.0807C104.554 12.0807 103.217 13.4904 103.217 15.8964V23.3091H101.273V15.8964C101.273 13.4904 100.35 12.0807 98.2595 12.0807C96.2423 12.0807 94.9056 13.4904 94.9056 15.8964V23.3091H92.9613V10.6711H94.9056V13.1501H94.9542C95.1486 12.2995 96.3152 10.4281 98.9643 10.4281C100.763 10.4281 102.294 11.2301 102.926 13.2716C103.242 12.3238 104.433 10.4281 107.203 10.4281C109.634 10.4281 111.554 11.7891 111.554 15.5076V23.3091H109.609V15.8964ZM131.418 27.9268H129.474V21.1947C128.599 22.7258 126.874 23.5521 125.002 23.5521C122.086 23.5521 119.315 21.5349 119.315 16.9901C119.315 12.421 122.086 10.4281 125.002 10.4281C126.874 10.4281 128.599 11.2301 129.474 12.7612V10.6711H131.418V27.9268ZM125.367 21.8995C127.505 21.8995 129.571 20.344 129.571 16.9901C129.571 13.6119 127.505 12.0564 125.367 12.0564C123.204 12.0564 121.162 13.6119 121.162 16.9901C121.162 20.344 123.204 21.8995 125.367 21.8995ZM136.179 18.0838C136.179 20.4898 137.2 21.8995 139.436 21.8995C141.672 21.8995 143.154 20.4898 143.154 18.0838V10.6711H145.099V23.3091H143.154V20.8301H143.106C142.887 21.6807 141.672 23.5521 138.755 23.5521C136.252 23.5521 134.235 22.1911 134.235 18.4726V10.6711H136.179V18.0838ZM153.325 23.5521C149.85 23.5521 147.322 21.462 147.322 17.0144C147.322 12.421 149.995 10.4281 153.228 10.4281C156.485 10.4281 158.866 12.4696 158.866 16.6985C158.866 17.1116 158.842 17.3547 158.793 17.5977H149.193C149.339 20.5628 150.797 21.9967 153.349 21.9967C154.905 21.9967 156.314 21.4863 156.922 19.7607H158.696C157.87 22.5557 155.731 23.5521 153.325 23.5521ZM149.193 16.1152H156.995C156.971 13.466 155.537 11.9592 153.204 11.9592C150.992 11.9592 149.388 13.2959 149.193 16.1152ZM161.055 23.3091V10.6711H162.999V13.4904H163.048C163.388 12.1779 164.579 10.5253 167.033 10.5253C167.349 10.5253 167.69 10.5496 167.981 10.6468V12.2995C167.665 12.2509 167.374 12.2266 167.058 12.2266C164.506 12.2266 162.999 13.9521 162.999 16.6498V23.3091H161.055ZM180.35 23.5521C177.434 23.5521 174.663 21.5349 174.663 16.9901C174.663 12.421 177.434 10.4281 180.35 10.4281C182.222 10.4281 183.947 11.2301 184.822 12.7612V6.29643H186.766V23.3091H184.822V21.1947C183.947 22.7258 182.222 23.5521 180.35 23.5521ZM180.715 21.8995C182.854 21.8995 184.919 20.344 184.919 16.9901C184.919 13.6119 182.854 12.0564 180.715 12.0564C178.552 12.0564 176.51 13.6119 176.51 16.9901C176.51 20.344 178.552 21.8995 180.715 21.8995ZM189.583 23.3091V10.6711H191.527V23.3091H189.583ZM190.555 8.16782C189.899 8.16782 189.316 7.60884 189.316 6.92833C189.316 6.24783 189.899 5.71314 190.555 5.71314C191.211 5.71314 191.77 6.24783 191.77 6.92833C191.77 7.60884 191.211 8.16782 190.555 8.16782ZM203.249 15.8964C203.249 13.4904 202.229 12.0807 199.993 12.0807C197.757 12.0807 196.274 13.4904 196.274 15.8964V23.3091H194.33V10.6711H196.274V13.1501H196.323C196.542 12.2995 197.757 10.4281 200.673 10.4281C203.176 10.4281 205.194 11.7891 205.194 15.5076V23.3091H203.249V15.8964ZM216.944 15.8964C216.944 13.4904 215.923 12.0807 213.687 12.0807C211.451 12.0807 209.969 13.4904 209.969 15.8964V23.3091H208.025V6.29643H209.969V13.1501H210.017C210.236 12.2995 211.451 10.4281 214.368 10.4281C216.871 10.4281 218.888 11.7891 218.888 15.5076V23.3091H216.944V15.8964ZM227.115 23.5521C223.639 23.5521 221.112 21.462 221.112 17.0144C221.112 12.421 223.785 10.4281 227.017 10.4281C230.274 10.4281 232.656 12.4696 232.656 16.6985C232.656 17.1116 232.632 17.3547 232.583 17.5977H222.983C223.129 20.5628 224.587 21.9967 227.139 21.9967C228.694 21.9967 230.104 21.4863 230.712 19.7607H232.486C231.659 22.5557 229.521 23.5521 227.115 23.5521ZM222.983 16.1152H230.784C230.76 13.466 229.326 11.9592 226.993 11.9592C224.781 11.9592 223.177 13.2959 222.983 16.1152ZM234.844 23.3091V10.6711H236.788V23.3091H234.844ZM235.816 8.16782C235.16 8.16782 234.577 7.60884 234.577 6.92833C234.577 6.24783 235.16 5.71314 235.816 5.71314C236.472 5.71314 237.031 6.24783 237.031 6.92833C237.031 7.60884 236.472 8.16782 235.816 8.16782ZM239.591 23.3091V10.6711H241.535V13.4904H241.584C241.924 12.1779 243.115 10.5253 245.57 10.5253C245.886 10.5253 246.226 10.5496 246.518 10.6468V12.2995C246.202 12.2509 245.91 12.2266 245.594 12.2266C243.042 12.2266 241.535 13.9521 241.535 16.6498V23.3091H239.591ZM253.58 23.5521C250.445 23.5521 247.504 21.4863 247.504 16.9901C247.504 12.4939 250.445 10.4281 253.58 10.4281C256.715 10.4281 259.656 12.4939 259.656 16.9901C259.656 21.4863 256.715 23.5521 253.58 23.5521ZM253.58 21.8995C255.767 21.8995 257.784 20.3926 257.784 16.9901C257.784 13.5876 255.767 12.0564 253.58 12.0564C251.368 12.0564 249.351 13.5876 249.351 16.9901C249.351 20.3926 251.368 21.8995 253.58 21.8995ZM267.455 23.3091V10.6711H269.399V13.4904H269.448C269.788 12.1779 270.979 10.5253 273.434 10.5253C273.75 10.5253 274.09 10.5496 274.381 10.6468V12.2995C274.065 12.2509 273.774 12.2266 273.458 12.2266C270.906 12.2266 269.399 13.9521 269.399 16.6498V23.3091H267.455ZM279.263 23.5521C276.857 23.5521 275.107 22.4584 275.107 20.0767C275.107 17.8407 276.638 16.7471 279.093 16.4554L282.325 16.0909C283.637 15.945 284.026 15.6777 284.026 15.2645V14.7541C284.026 12.6154 282.957 11.9349 280.867 11.9349C278.777 11.9349 277.707 12.6154 277.707 14.2924V14.584H275.836V14.1223C275.836 11.5947 277.634 10.4281 280.94 10.4281C284.366 10.4281 285.971 11.7162 285.971 14.7541V23.3091H284.148V21.1217H284.051C283.759 21.7536 282.374 23.5521 279.263 23.5521ZM279.724 21.9967C282.665 21.9967 284.026 20.0524 284.026 18.7886V16.9658C283.929 17.2331 283.516 17.4519 282.203 17.622L279.554 17.9379C277.683 18.1567 277.051 18.8615 277.051 19.9795C277.051 21.4377 278.145 21.9967 279.724 21.9967ZM280.089 9.16428L282.544 5.98048H284.318L281.863 9.16428H280.089ZM288.911 27.9268V10.6711H290.855V12.7612C291.73 11.2301 293.455 10.4281 295.327 10.4281C298.243 10.4281 301.014 12.421 301.014 16.9901C301.014 21.5349 298.243 23.5521 295.327 23.5521C293.455 23.5521 291.73 22.7258 290.855 21.1947V27.9268H288.911ZM294.962 21.8995C297.125 21.8995 299.167 20.344 299.167 16.9901C299.167 13.6119 297.125 12.0564 294.962 12.0564C292.823 12.0564 290.758 13.6119 290.758 16.9901C290.758 20.344 292.823 21.8995 294.962 21.8995ZM303.198 23.3091V10.6711H305.143V23.3091H303.198ZM304.171 8.16782C303.514 8.16782 302.931 7.60884 302.931 6.92833C302.931 6.24783 303.514 5.71314 304.171 5.71314C304.827 5.71314 305.386 6.24783 305.386 6.92833C305.386 7.60884 304.827 8.16782 304.171 8.16782ZM313.001 23.5521C310.084 23.5521 307.313 21.5349 307.313 16.9901C307.313 12.421 310.084 10.4281 313.001 10.4281C314.872 10.4281 316.597 11.2301 317.472 12.7612V6.29643H319.417V23.3091H317.472V21.1947C316.597 22.7258 314.872 23.5521 313.001 23.5521ZM313.365 21.8995C315.504 21.8995 317.57 20.344 317.57 16.9901C317.57 13.6119 315.504 12.0564 313.365 12.0564C311.202 12.0564 309.161 13.6119 309.161 16.9901C309.161 20.344 311.202 21.8995 313.365 21.8995ZM327.702 23.5521C324.566 23.5521 321.626 21.4863 321.626 16.9901C321.626 12.4939 324.566 10.4281 327.702 10.4281C330.837 10.4281 333.778 12.4939 333.778 16.9901C333.778 21.4863 330.837 23.5521 327.702 23.5521ZM327.702 21.8995C329.889 21.8995 331.906 20.3926 331.906 16.9901C331.906 13.5876 329.889 12.0564 327.702 12.0564C325.49 12.0564 323.473 13.5876 323.473 16.9901C323.473 20.3926 325.49 21.8995 327.702 21.8995ZM53.2402 51.5521C50.348 51.5521 48.1607 50.3612 48.0391 47.7121H49.789C50.0321 49.4377 51.6118 50.021 53.2645 50.021C54.99 50.021 56.3753 49.3891 56.3753 47.8093C56.3753 46.5698 55.5247 46.1567 54.1637 45.8407L51.7819 45.2817C49.546 44.7471 48.428 43.6048 48.428 41.8792C48.428 39.6433 50.3237 38.4281 53.1916 38.4281C56.0351 38.4281 57.9065 39.6433 58.0523 42.1709H56.3997C56.1323 40.5182 54.9414 39.9592 53.1916 39.9592C51.3445 39.9592 50.3237 40.5668 50.3237 41.8792C50.3237 42.8514 50.907 43.459 52.4381 43.7992L54.7956 44.3582C56.8857 44.8443 58.3683 45.6463 58.3683 47.785C58.3683 50.5557 55.8407 51.5521 53.2402 51.5521ZM65.8409 51.5521C62.3655 51.5521 59.8379 49.462 59.8379 45.0144C59.8379 40.421 62.5113 38.4281 65.7437 38.4281C69.0004 38.4281 71.3822 40.4696 71.3822 44.6985C71.3822 45.1116 71.3579 45.3547 71.3093 45.5977H61.7093C61.8551 48.5628 63.3133 49.9967 65.8652 49.9967C67.4207 49.9967 68.8303 49.4863 69.4379 47.7607H71.212C70.3857 50.5557 68.247 51.5521 65.8409 51.5521ZM61.7093 44.1152H69.5108C69.4865 41.466 68.0526 39.9592 65.7194 39.9592C63.5077 39.9592 61.9037 41.2959 61.7093 44.1152ZM90.2186 43.8964C90.2186 41.4904 89.2707 40.0807 87.1806 40.0807C85.1634 40.0807 83.8267 41.4904 83.8267 43.8964V51.3091H81.8824V43.8964C81.8824 41.4904 80.9588 40.0807 78.8687 40.0807C76.8515 40.0807 75.5148 41.4904 75.5148 43.8964V51.3091H73.5705V38.6711H75.5148V41.1501H75.5634C75.7578 40.2995 76.9244 38.4281 79.5735 38.4281C81.372 38.4281 82.9031 39.2301 83.535 41.2716C83.851 40.3238 85.0418 38.4281 87.8125 38.4281C90.2429 38.4281 92.1629 39.7891 92.1629 43.5076V51.3091H90.2186V43.8964ZM104.105 51.5521C101.698 51.5521 99.9486 50.4584 99.9486 48.0767C99.9486 45.8407 101.48 44.7471 103.934 44.4554L107.167 44.0909C108.479 43.945 108.868 43.6777 108.868 43.2645V42.7541C108.868 40.6154 107.799 39.9349 105.709 39.9349C103.618 39.9349 102.549 40.6154 102.549 42.2924V42.584H100.678V42.1223C100.678 39.5947 102.476 38.4281 105.782 38.4281C109.208 38.4281 110.812 39.7162 110.812 42.7541V51.3091H108.99V49.1217H108.892C108.601 49.7536 107.215 51.5521 104.105 51.5521ZM104.566 49.9967C107.507 49.9967 108.868 48.0524 108.868 46.7886V44.9658C108.771 45.2331 108.358 45.4519 107.045 45.622L104.396 45.9379C102.525 46.1567 101.893 46.8615 101.893 47.9795C101.893 49.4377 102.987 49.9967 104.566 49.9967ZM113.752 55.9268V38.6711H115.697V40.7612C116.572 39.2301 118.297 38.4281 120.169 38.4281C123.085 38.4281 125.856 40.421 125.856 44.9901C125.856 49.5349 123.085 51.5521 120.169 51.5521C118.297 51.5521 116.572 50.7258 115.697 49.1947V55.9268H113.752ZM119.804 49.8995C121.967 49.8995 124.009 48.344 124.009 44.9901C124.009 41.6119 121.967 40.0564 119.804 40.0564C117.665 40.0564 115.599 41.6119 115.599 44.9901C115.599 48.344 117.665 49.8995 119.804 49.8995ZM128.04 51.3091V34.2964H129.985V51.3091H128.04ZM132.787 51.3091V38.6711H134.732V51.3091H132.787ZM133.759 36.1678C133.103 36.1678 132.52 35.6088 132.52 34.9283C132.52 34.2478 133.103 33.7131 133.759 33.7131C134.416 33.7131 134.975 34.2478 134.975 34.9283C134.975 35.6088 134.416 36.1678 133.759 36.1678ZM143.027 51.5521C139.77 51.5521 136.926 49.4863 136.926 45.0144C136.926 40.5182 139.77 38.4281 143.027 38.4281C145.287 38.4281 147.936 39.4245 148.398 42.9729H146.624C146.259 40.8585 144.655 40.0807 143.002 40.0807C140.548 40.0807 138.774 41.8063 138.774 45.0144C138.774 48.2225 140.548 49.8752 143.002 49.8752C144.679 49.8752 146.259 49.1217 146.624 46.9344H148.398C147.96 50.5314 145.287 51.5521 143.027 51.5521ZM153.97 51.5521C151.564 51.5521 149.814 50.4584 149.814 48.0767C149.814 45.8407 151.345 44.7471 153.8 44.4554L157.032 44.0909C158.345 43.945 158.734 43.6777 158.734 43.2645V42.7541C158.734 40.6154 157.664 39.9349 155.574 39.9349C153.484 39.9349 152.415 40.6154 152.415 42.2924V42.584H150.543V42.1223C150.543 39.5947 152.342 38.4281 155.647 38.4281C159.074 38.4281 160.678 39.7162 160.678 42.7541V51.3091H158.855V49.1217H158.758C158.466 49.7536 157.081 51.5521 153.97 51.5521ZM154.432 49.9967C157.373 49.9967 158.734 48.0524 158.734 46.7886V44.9658C158.636 45.2331 158.223 45.4519 156.911 45.622L154.262 45.9379C152.39 46.1567 151.758 46.8615 151.758 47.9795C151.758 49.4377 152.852 49.9967 154.432 49.9967ZM163.618 51.3091V38.6711H165.562V41.4904H165.611C165.951 40.1779 167.142 38.5253 169.597 38.5253C169.913 38.5253 170.253 38.5496 170.544 38.6468V40.2995C170.229 40.2509 169.937 40.2266 169.621 40.2266C167.069 40.2266 165.562 41.9521 165.562 44.6498V51.3091H163.618ZM62.5971 107.649L60.9202 105.948C59.6321 106.993 57.9551 107.552 56.108 107.552C51.6847 107.552 48.4037 104.441 48.4037 98.8028C48.4037 93.1643 51.6847 90.0777 56.108 90.0777C60.5313 90.0777 63.8366 93.1643 63.8366 98.8028C63.8366 101.282 63.1804 103.299 62.0867 104.733L63.8123 106.483L62.5971 107.649ZM56.108 105.802C57.469 105.802 58.6599 105.413 59.6077 104.611L56.424 101.403L57.6391 100.237L60.7014 103.323C61.4062 102.205 61.7951 100.698 61.7951 98.8028C61.7951 94.185 59.4133 91.8276 56.108 91.8276C52.827 91.8276 50.4452 94.185 50.4452 98.8028C50.4452 103.42 52.827 105.802 56.108 105.802ZM68.086 102.084C68.086 104.49 69.1067 105.899 71.3427 105.899C73.5786 105.899 75.0612 104.49 75.0612 102.084V94.6711H77.0055V107.309H75.0612V104.83H75.0126C74.7938 105.681 73.5786 107.552 70.6622 107.552C68.1589 107.552 66.1417 106.191 66.1417 102.473V94.6711H68.086V102.084ZM85.2317 107.552C81.7563 107.552 79.2287 105.462 79.2287 101.014C79.2287 96.421 81.9021 94.4281 85.1345 94.4281C88.3912 94.4281 90.773 96.4696 90.773 100.698C90.773 101.112 90.7487 101.355 90.7001 101.598H81.1001C81.2459 104.563 82.7041 105.997 85.256 105.997C86.8115 105.997 88.2211 105.486 88.8287 103.761H90.6029C89.7765 106.556 87.6378 107.552 85.2317 107.552ZM81.1001 100.115H88.9016C88.8773 97.466 87.4434 95.9592 85.1102 95.9592C82.8986 95.9592 81.2945 97.2959 81.1001 100.115ZM109.609 99.8964C109.609 97.4904 108.662 96.0807 106.571 96.0807C104.554 96.0807 103.217 97.4904 103.217 99.8964V107.309H101.273V99.8964C101.273 97.4904 100.35 96.0807 98.2595 96.0807C96.2423 96.0807 94.9056 97.4904 94.9056 99.8964V107.309H92.9613V94.6711H94.9056V97.1501H94.9542C95.1486 96.2995 96.3152 94.4281 98.9643 94.4281C100.763 94.4281 102.294 95.2301 102.926 97.2716C103.242 96.3238 104.433 94.4281 107.203 94.4281C109.634 94.4281 111.554 95.7891 111.554 99.5076V107.309H109.609V99.8964ZM128.867 99.8964C128.867 97.4904 127.846 96.0807 125.61 96.0807C123.374 96.0807 121.891 97.4904 121.891 99.8964V107.309H119.947V94.6711H121.891V97.1501H121.94C122.159 96.2995 123.374 94.4281 126.29 94.4281C128.794 94.4281 130.811 95.7891 130.811 99.5076V107.309H128.867V99.8964ZM137.19 107.552C134.784 107.552 133.034 106.458 133.034 104.077C133.034 101.841 134.565 100.747 137.02 100.455L140.252 100.091C141.565 99.945 141.954 99.6777 141.954 99.2645V98.7541C141.954 96.6154 140.884 95.9349 138.794 95.9349C136.704 95.9349 135.635 96.6154 135.635 98.2924V98.584H133.763V98.1223C133.763 95.5947 135.562 94.4281 138.867 94.4281C142.294 94.4281 143.898 95.7162 143.898 98.7541V107.309H142.075V105.122H141.978C141.686 105.754 140.301 107.552 137.19 107.552ZM137.652 105.997C140.593 105.997 141.954 104.052 141.954 102.789V100.966C141.856 101.233 141.443 101.452 140.131 101.622L137.482 101.938C135.61 102.157 134.978 102.861 134.978 103.979C134.978 105.438 136.072 105.997 137.652 105.997ZM140.714 92.6296C138.964 92.6296 138.6 90.9769 137.409 90.9769C136.704 90.9769 136.364 91.5359 136.388 92.0463H135.124C135.124 90.4909 135.975 89.7131 137.214 89.7131C138.964 89.7131 139.329 91.3658 140.52 91.3658C141.2 91.3658 141.54 90.8068 141.54 90.2964H142.78C142.78 91.8519 141.929 92.6296 140.714 92.6296ZM152.069 107.552C148.934 107.552 145.993 105.486 145.993 100.99C145.993 96.4939 148.934 94.4281 152.069 94.4281C155.204 94.4281 158.145 96.4939 158.145 100.99C158.145 105.486 155.204 107.552 152.069 107.552ZM152.069 105.899C154.256 105.899 156.273 104.393 156.273 100.99C156.273 97.5876 154.256 96.0564 152.069 96.0564C149.857 96.0564 147.84 97.5876 147.84 100.99C147.84 104.393 149.857 105.899 152.069 105.899ZM177.415 111.927H175.471V105.195C174.596 106.726 172.87 107.552 170.999 107.552C168.083 107.552 165.312 105.535 165.312 100.99C165.312 96.421 168.083 94.4281 170.999 94.4281C172.87 94.4281 174.596 95.2301 175.471 96.7612V94.6711H177.415V111.927ZM171.364 105.899C173.502 105.899 175.568 104.344 175.568 100.99C175.568 97.6119 173.502 96.0564 171.364 96.0564C169.201 96.0564 167.159 97.6119 167.159 100.99C167.159 104.344 169.201 105.899 171.364 105.899ZM182.176 102.084C182.176 104.49 183.197 105.899 185.433 105.899C187.669 105.899 189.151 104.49 189.151 102.084V94.6711H191.096V107.309H189.151V104.83H189.103C188.884 105.681 187.669 107.552 184.752 107.552C182.249 107.552 180.232 106.191 180.232 102.473V94.6711H182.176V102.084ZM199.322 107.552C195.846 107.552 193.319 105.462 193.319 101.014C193.319 96.421 195.992 94.4281 199.225 94.4281C202.481 94.4281 204.863 96.4696 204.863 100.698C204.863 101.112 204.839 101.355 204.79 101.598H195.19C195.336 104.563 196.794 105.997 199.346 105.997C200.902 105.997 202.311 105.486 202.919 103.761H204.693C203.867 106.556 201.728 107.552 199.322 107.552ZM195.19 100.115H202.992C202.967 97.466 201.533 95.9592 199.2 95.9592C196.989 95.9592 195.385 97.2959 195.19 100.115ZM207.051 107.309V94.6711H208.996V97.4904H209.044C209.385 96.1779 210.575 94.5253 213.03 94.5253C213.346 94.5253 213.686 94.5496 213.978 94.6468V96.2995C213.662 96.2509 213.37 96.2266 213.054 96.2266C210.503 96.2266 208.996 97.9521 208.996 100.65V107.309H207.051ZM225.764 107.552C222.872 107.552 220.684 106.361 220.563 103.712H222.313C222.556 105.438 224.135 106.021 225.788 106.021C227.514 106.021 228.899 105.389 228.899 103.809C228.899 102.57 228.048 102.157 226.687 101.841L224.306 101.282C222.07 100.747 220.952 99.6048 220.952 97.8792C220.952 95.6433 222.847 94.4281 225.715 94.4281C228.559 94.4281 230.43 95.6433 230.576 98.1709H228.923C228.656 96.5182 227.465 95.9592 225.715 95.9592C223.868 95.9592 222.847 96.5668 222.847 97.8792C222.847 98.8514 223.431 99.459 224.962 99.7992L227.319 100.358C229.409 100.844 230.892 101.646 230.892 103.785C230.892 106.556 228.364 107.552 225.764 107.552ZM238.365 107.552C234.889 107.552 232.362 105.462 232.362 101.014C232.362 96.421 235.035 94.4281 238.267 94.4281C241.524 94.4281 243.906 96.4696 243.906 100.698C243.906 101.112 243.882 101.355 243.833 101.598H234.233C234.379 104.563 235.837 105.997 238.389 105.997C239.944 105.997 241.354 105.486 241.962 103.761H243.736C242.909 106.556 240.771 107.552 238.365 107.552ZM234.233 100.115H242.034C242.01 97.466 240.576 95.9592 238.243 95.9592C236.031 95.9592 234.427 97.2959 234.233 100.115ZM251.511 112.389C248.886 112.389 246.018 111.392 245.994 108.427H247.72C247.793 109.958 249.421 110.833 251.487 110.833C253.796 110.833 255.643 109.788 255.643 107.115V104.781H255.594C254.719 106.264 252.969 107.042 251.171 107.042C248.303 107.042 245.605 105.146 245.605 100.723C245.605 96.2995 248.327 94.4281 251.171 94.4281C252.969 94.4281 254.719 95.2058 255.594 96.6883H255.643V94.6711H257.587V107.115C257.587 111.319 254.233 112.389 251.511 112.389ZM251.56 105.389C253.698 105.389 255.74 103.907 255.74 100.723C255.74 97.539 253.698 96.0564 251.56 96.0564C249.421 96.0564 247.452 97.539 247.452 100.723C247.452 103.907 249.421 105.389 251.56 105.389ZM262.326 102.084C262.326 104.49 263.347 105.899 265.583 105.899C267.819 105.899 269.302 104.49 269.302 102.084V94.6711H271.246V107.309H269.302V104.83H269.253C269.034 105.681 267.819 107.552 264.903 107.552C262.399 107.552 260.382 106.191 260.382 102.473V94.6711H262.326V102.084ZM274.077 107.309V94.6711H276.021V107.309H274.077ZM275.049 92.1678C274.393 92.1678 273.809 91.6088 273.809 90.9283C273.809 90.2478 274.393 89.7131 275.049 89.7131C275.705 89.7131 276.264 90.2478 276.264 90.9283C276.264 91.6088 275.705 92.1678 275.049 92.1678ZM278.824 107.309V94.6711H280.768V97.4904H280.816C281.157 96.1779 282.348 94.5253 284.802 94.5253C285.118 94.5253 285.458 94.5496 285.75 94.6468V96.2995C285.434 96.2509 285.142 96.2266 284.827 96.2266C282.275 96.2266 280.768 97.9521 280.768 100.65V107.309H278.824ZM293.064 111.927V94.6711H295.008V96.7612C295.883 95.2301 297.609 94.4281 299.48 94.4281C302.397 94.4281 305.167 96.421 305.167 100.99C305.167 105.535 302.397 107.552 299.48 107.552C297.609 107.552 295.883 106.726 295.008 105.195V111.927H293.064ZM299.116 105.899C301.279 105.899 303.32 104.344 303.32 100.99C303.32 97.6119 301.279 96.0564 299.116 96.0564C296.977 96.0564 294.911 97.6119 294.911 100.99C294.911 104.344 296.977 105.899 299.116 105.899ZM310.9 107.552C308.494 107.552 306.744 106.458 306.744 104.077C306.744 101.841 308.276 100.747 310.73 100.455L313.963 100.091C315.275 99.945 315.664 99.6777 315.664 99.2645V98.7541C315.664 96.6154 314.594 95.9349 312.504 95.9349C310.414 95.9349 309.345 96.6154 309.345 98.2924V98.584H307.473V98.1223C307.473 95.5947 309.272 94.4281 312.577 94.4281C316.004 94.4281 317.608 95.7162 317.608 98.7541V107.309H315.785V105.122H315.688C315.397 105.754 314.011 107.552 310.9 107.552ZM311.362 105.997C314.303 105.997 315.664 104.052 315.664 102.789V100.966C315.567 101.233 315.153 101.452 313.841 101.622L311.192 101.938C309.321 102.157 308.689 102.861 308.689 103.979C308.689 105.438 309.782 105.997 311.362 105.997ZM324.901 107.552C322.009 107.552 319.822 106.361 319.7 103.712H321.45C321.693 105.438 323.273 106.021 324.926 106.021C326.651 106.021 328.037 105.389 328.037 103.809C328.037 102.57 327.186 102.157 325.825 101.841L323.443 101.282C321.207 100.747 320.089 99.6048 320.089 97.8792C320.089 95.6433 321.985 94.4281 324.853 94.4281C327.696 94.4281 329.568 95.6433 329.714 98.1709H328.061C327.794 96.5182 326.603 95.9592 324.853 95.9592C323.006 95.9592 321.985 96.5668 321.985 97.8792C321.985 98.8514 322.568 99.459 324.099 99.7992L326.457 100.358C328.547 100.844 330.029 101.646 330.029 103.785C330.029 106.556 327.502 107.552 324.901 107.552ZM336.579 107.552C333.686 107.552 331.499 106.361 331.378 103.712H333.127C333.37 105.438 334.95 106.021 336.603 106.021C338.328 106.021 339.714 105.389 339.714 103.809C339.714 102.57 338.863 102.157 337.502 101.841L335.12 101.282C332.884 100.747 331.766 99.6048 331.766 97.8792C331.766 95.6433 333.662 94.4281 336.53 94.4281C339.374 94.4281 341.245 95.6433 341.391 98.1709H339.738C339.471 96.5182 338.28 95.9592 336.53 95.9592C334.683 95.9592 333.662 96.5668 333.662 97.8792C333.662 98.8514 334.245 99.459 335.777 99.7992L338.134 100.358C340.224 100.844 341.707 101.646 341.707 103.785C341.707 106.556 339.179 107.552 336.579 107.552ZM349.252 107.552C346.117 107.552 343.176 105.486 343.176 100.99C343.176 96.4939 346.117 94.4281 349.252 94.4281C352.387 94.4281 355.328 96.4939 355.328 100.99C355.328 105.486 352.387 107.552 349.252 107.552ZM349.252 105.899C351.44 105.899 353.457 104.393 353.457 100.99C353.457 97.5876 351.44 96.0564 349.252 96.0564C347.041 96.0564 345.023 97.5876 345.023 100.99C345.023 104.393 347.041 105.899 349.252 105.899ZM52.3166 135.552C49.9105 135.552 48.1607 134.458 48.1607 132.077C48.1607 129.841 49.6918 128.747 52.1465 128.455L55.3789 128.091C56.6913 127.945 57.0802 127.678 57.0802 127.265V126.754C57.0802 124.615 56.0108 123.935 53.9207 123.935C51.8305 123.935 50.7612 124.615 50.7612 126.292V126.584H48.8898V126.122C48.8898 123.595 50.6883 122.428 53.9936 122.428C57.4204 122.428 59.0245 123.716 59.0245 126.754V135.309H57.2017V133.122H57.1045C56.8128 133.754 55.4275 135.552 52.3166 135.552ZM52.7784 133.997C55.7191 133.997 57.0802 132.052 57.0802 130.789V128.966C56.9829 129.233 56.5698 129.452 55.2574 129.622L52.6083 129.938C50.7369 130.157 50.105 130.861 50.105 131.979C50.105 133.438 51.1986 133.997 52.7784 133.997ZM67.447 139.927V122.671H69.3914V124.761C70.2663 123.23 71.9919 122.428 73.8632 122.428C76.7797 122.428 79.5503 124.421 79.5503 128.99C79.5503 133.535 76.7797 135.552 73.8632 135.552C71.9919 135.552 70.2663 134.726 69.3914 133.195V139.927H67.447ZM73.4987 133.899C75.6617 133.899 77.7032 132.344 77.7032 128.99C77.7032 125.612 75.6617 124.056 73.4987 124.056C71.36 124.056 69.2941 125.612 69.2941 128.99C69.2941 132.344 71.36 133.899 73.4987 133.899ZM85.2834 135.552C82.8773 135.552 81.1274 134.458 81.1274 132.077C81.1274 129.841 82.6586 128.747 85.1132 128.455L88.3456 128.091C89.6581 127.945 90.0469 127.678 90.0469 127.265V126.754C90.0469 124.615 88.9775 123.935 86.8874 123.935C84.7973 123.935 83.7279 124.615 83.7279 126.292V126.584H81.8565V126.122C81.8565 123.595 83.655 122.428 86.9603 122.428C90.3872 122.428 91.9912 123.716 91.9912 126.754V135.309H90.1684V133.122H90.0712C89.7796 133.754 88.3943 135.552 85.2834 135.552ZM85.7451 133.997C88.6859 133.997 90.0469 132.052 90.0469 130.789V128.966C89.9497 129.233 89.5365 129.452 88.2241 129.622L85.575 129.938C83.7036 130.157 83.0717 130.861 83.0717 131.979C83.0717 133.438 84.1654 133.997 85.7451 133.997ZM99.2844 135.552C96.3923 135.552 94.2049 134.361 94.0834 131.712H95.8333C96.0763 133.438 97.6561 134.021 99.3087 134.021C101.034 134.021 102.42 133.389 102.42 131.809C102.42 130.57 101.569 130.157 100.208 129.841L97.8262 129.282C95.5903 128.747 94.4723 127.605 94.4723 125.879C94.4723 123.643 96.368 122.428 99.2358 122.428C102.079 122.428 103.951 123.643 104.097 126.171H102.444C102.177 124.518 100.986 123.959 99.2358 123.959C97.3887 123.959 96.368 124.567 96.368 125.879C96.368 126.851 96.9513 127.459 98.4824 127.799L100.84 128.358C102.93 128.844 104.413 129.646 104.413 131.785C104.413 134.556 101.885 135.552 99.2844 135.552ZM110.962 135.552C108.069 135.552 105.882 134.361 105.761 131.712H107.511C107.754 133.438 109.333 134.021 110.986 134.021C112.712 134.021 114.097 133.389 114.097 131.809C114.097 130.57 113.246 130.157 111.885 129.841L109.503 129.282C107.267 128.747 106.149 127.605 106.149 125.879C106.149 123.643 108.045 122.428 110.913 122.428C113.757 122.428 115.628 123.643 115.774 126.171H114.121C113.854 124.518 112.663 123.959 110.913 123.959C109.066 123.959 108.045 124.567 108.045 125.879C108.045 126.851 108.628 127.459 110.16 127.799L112.517 128.358C114.607 128.844 116.09 129.646 116.09 131.785C116.09 134.556 113.562 135.552 110.962 135.552ZM123.635 135.552C120.5 135.552 117.559 133.486 117.559 128.99C117.559 124.494 120.5 122.428 123.635 122.428C126.77 122.428 129.711 124.494 129.711 128.99C129.711 133.486 126.77 135.552 123.635 135.552ZM123.635 133.899C125.823 133.899 127.84 132.393 127.84 128.99C127.84 125.588 125.823 124.056 123.635 124.056C121.424 124.056 119.406 125.588 119.406 128.99C119.406 132.393 121.424 133.899 123.635 133.899ZM62.5971 191.649L60.9202 189.948C59.6321 190.993 57.9551 191.552 56.108 191.552C51.6847 191.552 48.4037 188.441 48.4037 182.803C48.4037 177.164 51.6847 174.078 56.108 174.078C60.5313 174.078 63.8366 177.164 63.8366 182.803C63.8366 185.282 63.1804 187.299 62.0867 188.733L63.8123 190.483L62.5971 191.649ZM56.108 189.802C57.469 189.802 58.6599 189.413 59.6077 188.611L56.424 185.403L57.6391 184.237L60.7014 187.323C61.4062 186.205 61.7951 184.698 61.7951 182.803C61.7951 178.185 59.4133 175.828 56.108 175.828C52.827 175.828 50.4452 178.185 50.4452 182.803C50.4452 187.42 52.827 189.802 56.108 189.802ZM68.086 186.084C68.086 188.49 69.1067 189.899 71.3427 189.899C73.5786 189.899 75.0612 188.49 75.0612 186.084V178.671H77.0055V191.309H75.0612V188.83H75.0126C74.7938 189.681 73.5786 191.552 70.6622 191.552C68.1589 191.552 66.1417 190.191 66.1417 186.473V178.671H68.086V186.084ZM85.2317 191.552C81.7563 191.552 79.2287 189.462 79.2287 185.014C79.2287 180.421 81.9021 178.428 85.1345 178.428C88.3912 178.428 90.773 180.47 90.773 184.698C90.773 185.112 90.7487 185.355 90.7001 185.598H81.1001C81.2459 188.563 82.7041 189.997 85.256 189.997C86.8115 189.997 88.2211 189.486 88.8287 187.761H90.6029C89.7765 190.556 87.6378 191.552 85.2317 191.552ZM81.1001 184.115H88.9016C88.8773 181.466 87.4434 179.959 85.1102 179.959C82.8986 179.959 81.2945 181.296 81.1001 184.115ZM109.609 183.896C109.609 181.49 108.662 180.081 106.571 180.081C104.554 180.081 103.217 181.49 103.217 183.896V191.309H101.273V183.896C101.273 181.49 100.35 180.081 98.2595 180.081C96.2423 180.081 94.9056 181.49 94.9056 183.896V191.309H92.9613V178.671H94.9056V181.15H94.9542C95.1486 180.299 96.3152 178.428 98.9643 178.428C100.763 178.428 102.294 179.23 102.926 181.272C103.242 180.324 104.433 178.428 107.203 178.428C109.634 178.428 111.554 179.789 111.554 183.508V191.309H109.609V183.896ZM119.947 195.927V178.671H121.891V180.761C122.766 179.23 124.492 178.428 126.363 178.428C129.28 178.428 132.05 180.421 132.05 184.99C132.05 189.535 129.28 191.552 126.363 191.552C124.492 191.552 122.766 190.726 121.891 189.195V195.927H119.947ZM125.999 189.899C128.162 189.899 130.203 188.344 130.203 184.99C130.203 181.612 128.162 180.056 125.999 180.056C123.86 180.056 121.794 181.612 121.794 184.99C121.794 188.344 123.86 189.899 125.999 189.899ZM134.235 191.309V178.671H136.179V181.49H136.228C136.568 180.178 137.759 178.525 140.214 178.525C140.53 178.525 140.87 178.55 141.162 178.647V180.299C140.846 180.251 140.554 180.227 140.238 180.227C137.686 180.227 136.179 181.952 136.179 184.65V191.309H134.235ZM148.224 191.552C145.089 191.552 142.148 189.486 142.148 184.99C142.148 180.494 145.089 178.428 148.224 178.428C151.359 178.428 154.3 180.494 154.3 184.99C154.3 189.486 151.359 191.552 148.224 191.552ZM148.224 189.899C150.411 189.899 152.428 188.393 152.428 184.99C152.428 181.588 150.411 180.056 148.224 180.056C146.012 180.056 143.995 181.588 143.995 184.99C143.995 188.393 146.012 189.899 148.224 189.899ZM162.109 191.552C158.852 191.552 156.009 189.486 156.009 185.014C156.009 180.518 158.852 178.428 162.109 178.428C164.369 178.428 167.018 179.425 167.48 182.973H165.706C165.341 180.858 163.737 180.081 162.085 180.081C159.63 180.081 157.856 181.806 157.856 185.014C157.856 188.223 159.63 189.875 162.085 189.875C163.762 189.875 165.341 189.122 165.706 186.934H167.48C167.043 190.531 164.369 191.552 162.109 191.552ZM171.567 186.084C171.567 188.49 172.588 189.899 174.824 189.899C177.06 189.899 178.542 188.49 178.542 186.084V178.671H180.486V191.309H178.542V188.83H178.494C178.275 189.681 177.06 191.552 174.143 191.552C171.64 191.552 169.623 190.191 169.623 186.473V178.671H171.567V186.084ZM183.317 191.309V178.671H185.262V181.49H185.31C185.65 180.178 186.841 178.525 189.296 178.525C189.612 178.525 189.952 178.55 190.244 178.647V180.299C189.928 180.251 189.636 180.227 189.32 180.227C186.768 180.227 185.262 181.952 185.262 184.65V191.309H183.317ZM195.125 191.552C192.719 191.552 190.969 190.458 190.969 188.077C190.969 185.841 192.5 184.747 194.955 184.455L198.187 184.091C199.5 183.945 199.889 183.678 199.889 183.265V182.754C199.889 180.615 198.819 179.935 196.729 179.935C194.639 179.935 193.57 180.615 193.57 182.292V182.584H191.698V182.122C191.698 179.595 193.497 178.428 196.802 178.428C200.229 178.428 201.833 179.716 201.833 182.754V191.309H200.01V189.122H199.913C199.621 189.754 198.236 191.552 195.125 191.552ZM195.587 189.997C198.528 189.997 199.889 188.052 199.889 186.789V184.966C199.791 185.233 199.378 185.452 198.066 185.622L195.417 185.938C193.545 186.157 192.913 186.861 192.913 187.979C192.913 189.438 194.007 189.997 195.587 189.997ZM211.155 176.994C211.155 174.661 212.54 173.908 214.411 173.908H215.772V175.439H214.922C213.585 175.439 213.099 175.949 213.099 177.31V178.671H215.7V180.227H213.099V191.309H211.155V180.227H209.405V178.671H211.155V176.994ZM222.773 191.552C219.638 191.552 216.697 189.486 216.697 184.99C216.697 180.494 219.638 178.428 222.773 178.428C225.908 178.428 228.849 180.494 228.849 184.99C228.849 189.486 225.908 191.552 222.773 191.552ZM222.773 189.899C224.96 189.899 226.977 188.393 226.977 184.99C226.977 181.588 224.96 180.056 222.773 180.056C220.561 180.056 218.544 181.588 218.544 184.99C218.544 188.393 220.561 189.899 222.773 189.899ZM221.825 177.164L224.28 173.98H226.054L223.599 177.164H221.825ZM231.047 191.309V178.671H232.991V181.49H233.04C233.38 180.178 234.571 178.525 237.025 178.525C237.341 178.525 237.682 178.55 237.973 178.647V180.299C237.657 180.251 237.366 180.227 237.05 180.227C234.498 180.227 232.991 181.952 232.991 184.65V191.309H231.047ZM256.571 183.896C256.571 181.49 255.623 180.081 253.533 180.081C251.516 180.081 250.179 181.49 250.179 183.896V191.309H248.235V183.896C248.235 181.49 247.312 180.081 245.221 180.081C243.204 180.081 241.868 181.49 241.868 183.896V191.309H239.923V178.671H241.868V181.15H241.916C242.111 180.299 243.277 178.428 245.926 178.428C247.725 178.428 249.256 179.23 249.888 181.272C250.204 180.324 251.395 178.428 254.165 178.428C256.596 178.428 258.516 179.789 258.516 183.508V191.309H256.571V183.896ZM263.133 186.084C263.133 188.49 264.154 189.899 266.39 189.899C268.626 189.899 270.109 188.49 270.109 186.084V178.671H272.053V191.309H270.109V188.83H270.06C269.841 189.681 268.626 191.552 265.71 191.552C263.206 191.552 261.189 190.191 261.189 186.473V178.671H263.133V186.084ZM274.884 191.309V174.296H276.828V191.309H274.884ZM283.179 191.552C280.773 191.552 279.023 190.458 279.023 188.077C279.023 185.841 280.554 184.747 283.009 184.455L286.241 184.091C287.554 183.945 287.942 183.678 287.942 183.265V182.754C287.942 180.615 286.873 179.935 284.783 179.935C282.693 179.935 281.623 180.615 281.623 182.292V182.584H279.752V182.122C279.752 179.595 281.55 178.428 284.856 178.428C288.283 178.428 289.887 179.716 289.887 182.754V191.309H288.064V189.122H287.967C287.675 189.754 286.29 191.552 283.179 191.552ZM283.641 189.997C286.581 189.997 287.942 188.052 287.942 186.789V184.966C287.845 185.233 287.432 185.452 286.12 185.622L283.47 185.938C281.599 186.157 280.967 186.861 280.967 187.979C280.967 189.438 282.061 189.997 283.641 189.997ZM65.4164 211.896C65.4164 209.49 64.4685 208.081 62.3784 208.081C60.3612 208.081 59.0245 209.49 59.0245 211.896V219.309H57.0802V211.896C57.0802 209.49 56.1566 208.081 54.0665 208.081C52.0493 208.081 50.7126 209.49 50.7126 211.896V219.309H48.7683V206.671H50.7126V209.15H50.7612C50.9556 208.299 52.1222 206.428 54.7713 206.428C56.5698 206.428 58.1009 207.23 58.7328 209.272C59.0488 208.324 60.2396 206.428 63.0103 206.428C65.4407 206.428 67.3607 207.789 67.3607 211.508V219.309H65.4164V211.896ZM73.7011 219.552C71.295 219.552 69.5451 218.458 69.5451 216.077C69.5451 213.841 71.0763 212.747 73.531 212.455L76.7634 212.091C78.0758 211.945 78.4646 211.678 78.4646 211.265V210.754C78.4646 208.615 77.3953 207.935 75.3051 207.935C73.215 207.935 72.1457 208.615 72.1457 210.292V210.584H70.2743V210.122C70.2743 207.595 72.0727 206.428 75.3781 206.428C78.8049 206.428 80.4089 207.716 80.4089 210.754V219.309H78.5862V217.122H78.4889C78.1973 217.754 76.812 219.552 73.7011 219.552ZM74.1629 217.997C77.1036 217.997 78.4646 216.052 78.4646 214.789V212.966C78.3674 213.233 77.9543 213.452 76.6419 213.622L73.9927 213.938C72.1214 214.157 71.4895 214.861 71.4895 215.979C71.4895 217.438 72.5831 217.997 74.1629 217.997ZM74.5274 205.164L76.9821 201.98H78.7563L76.3016 205.164H74.5274ZM88.4098 224.389C85.785 224.389 82.9172 223.392 82.8929 220.427H84.6184C84.6913 221.958 86.3197 222.833 88.3855 222.833C90.6944 222.833 92.5415 221.788 92.5415 219.115V216.781H92.4929C91.6179 218.264 89.868 219.042 88.0696 219.042C85.2017 219.042 82.504 217.146 82.504 212.723C82.504 208.299 85.226 206.428 88.0696 206.428C89.868 206.428 91.6179 207.206 92.4929 208.688H92.5415V206.671H94.4858V219.115C94.4858 223.319 91.1318 224.389 88.4098 224.389ZM88.4584 217.389C90.5972 217.389 92.6387 215.907 92.6387 212.723C92.6387 209.539 90.5972 208.056 88.4584 208.056C86.3197 208.056 84.3511 209.539 84.3511 212.723C84.3511 215.907 86.3197 217.389 88.4584 217.389ZM97.2809 219.309V206.671H99.2252V219.309H97.2809ZM98.253 204.168C97.5968 204.168 97.0136 203.609 97.0136 202.928C97.0136 202.248 97.5968 201.713 98.253 201.713C98.9092 201.713 99.4682 202.248 99.4682 202.928C99.4682 203.609 98.9092 204.168 98.253 204.168ZM107.52 219.552C104.264 219.552 101.42 217.486 101.42 213.014C101.42 208.518 104.264 206.428 107.52 206.428C109.781 206.428 112.43 207.425 112.892 210.973H111.117C110.753 208.858 109.149 208.081 107.496 208.081C105.041 208.081 103.267 209.806 103.267 213.014C103.267 216.223 105.041 217.875 107.496 217.875C109.173 217.875 110.753 217.122 111.117 214.934H112.892C112.454 218.531 109.781 219.552 107.52 219.552ZM118.464 219.552C116.058 219.552 114.308 218.458 114.308 216.077C114.308 213.841 115.839 212.747 118.294 212.455L121.526 212.091C122.838 211.945 123.227 211.678 123.227 211.265V210.754C123.227 208.615 122.158 207.935 120.068 207.935C117.978 207.935 116.908 208.615 116.908 210.292V210.584H115.037V210.122C115.037 207.595 116.835 206.428 120.141 206.428C123.568 206.428 125.172 207.716 125.172 210.754V219.309H123.349V217.122H123.252C122.96 217.754 121.575 219.552 118.464 219.552ZM118.925 217.997C121.866 217.997 123.227 216.052 123.227 214.789V212.966C123.13 213.233 122.717 213.452 121.404 213.622L118.755 213.938C116.884 214.157 116.252 214.861 116.252 215.979C116.252 217.438 117.346 217.997 118.925 217.997ZM62.5971 275.649L60.9202 273.948C59.6321 274.993 57.9551 275.552 56.108 275.552C51.6847 275.552 48.4037 272.441 48.4037 266.803C48.4037 261.164 51.6847 258.078 56.108 258.078C60.5313 258.078 63.8366 261.164 63.8366 266.803C63.8366 269.282 63.1804 271.299 62.0867 272.733L63.8123 274.483L62.5971 275.649ZM56.108 273.802C57.469 273.802 58.6599 273.413 59.6077 272.611L56.424 269.403L57.6391 268.237L60.7014 271.323C61.4062 270.205 61.7951 268.698 61.7951 266.803C61.7951 262.185 59.4133 259.828 56.108 259.828C52.827 259.828 50.4452 262.185 50.4452 266.803C50.4452 271.42 52.827 273.802 56.108 273.802ZM68.086 270.084C68.086 272.49 69.1067 273.899 71.3427 273.899C73.5786 273.899 75.0612 272.49 75.0612 270.084V262.671H77.0055V275.309H75.0612V272.83H75.0126C74.7938 273.681 73.5786 275.552 70.6622 275.552C68.1589 275.552 66.1417 274.191 66.1417 270.473V262.671H68.086V270.084ZM85.2317 275.552C81.7563 275.552 79.2287 273.462 79.2287 269.014C79.2287 264.421 81.9021 262.428 85.1345 262.428C88.3912 262.428 90.773 264.47 90.773 268.698C90.773 269.112 90.7487 269.355 90.7001 269.598H81.1001C81.2459 272.563 82.7041 273.997 85.256 273.997C86.8115 273.997 88.2211 273.486 88.8287 271.761H90.6029C89.7765 274.556 87.6378 275.552 85.2317 275.552ZM81.1001 268.115H88.9016C88.8773 265.466 87.4434 263.959 85.1102 263.959C82.8986 263.959 81.2945 265.296 81.1001 268.115ZM109.609 267.896C109.609 265.49 108.662 264.081 106.571 264.081C104.554 264.081 103.217 265.49 103.217 267.896V275.309H101.273V267.896C101.273 265.49 100.35 264.081 98.2595 264.081C96.2423 264.081 94.9056 265.49 94.9056 267.896V275.309H92.9613V262.671H94.9056V265.15H94.9542C95.1486 264.299 96.3152 262.428 98.9643 262.428C100.763 262.428 102.294 263.23 102.926 265.272C103.242 264.324 104.433 262.428 107.203 262.428C109.634 262.428 111.554 263.789 111.554 267.508V275.309H109.609V267.896ZM131.418 279.927H129.474V273.195C128.599 274.726 126.874 275.552 125.002 275.552C122.086 275.552 119.315 273.535 119.315 268.99C119.315 264.421 122.086 262.428 125.002 262.428C126.874 262.428 128.599 263.23 129.474 264.761V262.671H131.418V279.927ZM125.367 273.899C127.505 273.899 129.571 272.344 129.571 268.99C129.571 265.612 127.505 264.056 125.367 264.056C123.204 264.056 121.162 265.612 121.162 268.99C121.162 272.344 123.204 273.899 125.367 273.899ZM136.179 270.084C136.179 272.49 137.2 273.899 139.436 273.899C141.672 273.899 143.154 272.49 143.154 270.084V262.671H145.099V275.309H143.154V272.83H143.106C142.887 273.681 141.672 275.552 138.755 275.552C136.252 275.552 134.235 274.191 134.235 270.473V262.671H136.179V270.084ZM153.325 275.552C149.85 275.552 147.322 273.462 147.322 269.014C147.322 264.421 149.995 262.428 153.228 262.428C156.485 262.428 158.866 264.47 158.866 268.698C158.866 269.112 158.842 269.355 158.793 269.598H149.193C149.339 272.563 150.797 273.997 153.349 273.997C154.905 273.997 156.314 273.486 156.922 271.761H158.696C157.87 274.556 155.731 275.552 153.325 275.552ZM149.193 268.115H156.995C156.971 265.466 155.537 263.959 153.204 263.959C150.992 263.959 149.388 265.296 149.193 268.115ZM161.055 275.309V262.671H162.999V265.49H163.048C163.388 264.178 164.579 262.525 167.033 262.525C167.349 262.525 167.69 262.55 167.981 262.647V264.299C167.665 264.251 167.374 264.227 167.058 264.227C164.506 264.227 162.999 265.952 162.999 268.65V275.309H161.055ZM180.788 275.552C177.531 275.552 174.687 273.486 174.687 269.014C174.687 264.518 177.531 262.428 180.788 262.428C183.048 262.428 185.697 263.425 186.159 266.973H184.385C184.02 264.858 182.416 264.081 180.763 264.081C178.309 264.081 176.535 265.806 176.535 269.014C176.535 272.223 178.309 273.875 180.763 273.875C182.44 273.875 184.02 273.122 184.385 270.934H186.159C185.721 274.531 183.048 275.552 180.788 275.552ZM193.651 275.552C190.516 275.552 187.575 273.486 187.575 268.99C187.575 264.494 190.516 262.428 193.651 262.428C196.786 262.428 199.727 264.494 199.727 268.99C199.727 273.486 196.786 275.552 193.651 275.552ZM193.651 273.899C195.838 273.899 197.856 272.393 197.856 268.99C197.856 265.588 195.838 264.056 193.651 264.056C191.439 264.056 189.422 265.588 189.422 268.99C189.422 272.393 191.439 273.899 193.651 273.899ZM210.844 267.896C210.844 265.49 209.824 264.081 207.588 264.081C205.352 264.081 203.869 265.49 203.869 267.896V275.309H201.925V262.671H203.869V265.15H203.918C204.136 264.299 205.352 262.428 208.268 262.428C210.771 262.428 212.789 263.789 212.789 267.508V275.309H210.844V267.896ZM219.805 275.479C217.91 275.479 216.573 274.677 216.573 272.344V264.251H214.531V262.671H216.573V259.512H218.517V262.671H221.021V264.251H218.517V271.979C218.517 273.34 218.979 273.875 220.34 273.875C220.656 273.875 220.875 273.875 221.215 273.827V275.309C220.778 275.406 220.316 275.479 219.805 275.479ZM223.286 275.309V262.671H225.23V275.309H223.286ZM224.258 260.168C223.602 260.168 223.018 259.609 223.018 258.928C223.018 258.248 223.602 257.713 224.258 257.713C224.914 257.713 225.473 258.248 225.473 258.928C225.473 259.609 224.914 260.168 224.258 260.168ZM236.952 267.896C236.952 265.49 235.931 264.081 233.695 264.081C231.459 264.081 229.977 265.49 229.977 267.896V275.309H228.032V262.671H229.977V265.15H230.025C230.244 264.299 231.459 262.428 234.376 262.428C236.879 262.428 238.896 263.789 238.896 267.508V275.309H236.952V267.896ZM243.553 270.084C243.553 272.49 244.573 273.899 246.809 273.899C249.045 273.899 250.528 272.49 250.528 270.084V262.671H252.472V275.309H250.528V272.83H250.479C250.26 273.681 249.045 275.552 246.129 275.552C243.626 275.552 241.608 274.191 241.608 270.473V262.671H243.553V270.084ZM258.851 275.552C256.445 275.552 254.695 274.458 254.695 272.077C254.695 269.841 256.226 268.747 258.681 268.455L261.914 268.091C263.226 267.945 263.615 267.678 263.615 267.265V266.754C263.615 264.615 262.545 263.935 260.455 263.935C258.365 263.935 257.296 264.615 257.296 266.292V266.584H255.424V266.122C255.424 263.595 257.223 262.428 260.528 262.428C263.955 262.428 265.559 263.716 265.559 266.754V275.309H263.736V273.122H263.639C263.347 273.754 261.962 275.552 258.851 275.552ZM259.313 273.997C262.254 273.997 263.615 272.052 263.615 270.789V268.966C263.518 269.233 263.104 269.452 261.792 269.622L259.143 269.938C257.272 270.157 256.64 270.861 256.64 271.979C256.64 273.438 257.733 273.997 259.313 273.997ZM268.499 275.309V262.671H270.443V265.49H270.492C270.832 264.178 272.023 262.525 274.478 262.525C274.794 262.525 275.134 262.55 275.426 262.647V264.299C275.11 264.251 274.818 264.227 274.502 264.227C271.95 264.227 270.443 265.952 270.443 268.65V275.309H268.499ZM291.659 267.896C291.659 265.49 290.638 264.081 288.402 264.081C286.166 264.081 284.684 265.49 284.684 267.896V275.309H282.74V262.671H284.684V265.15H284.733C284.951 264.299 286.166 262.428 289.083 262.428C291.586 262.428 293.603 263.789 293.603 267.508V275.309H291.659V267.896ZM301.903 275.552C298.767 275.552 295.827 273.486 295.827 268.99C295.827 264.494 298.767 262.428 301.903 262.428C305.038 262.428 307.979 264.494 307.979 268.99C307.979 273.486 305.038 275.552 301.903 275.552ZM301.903 273.899C304.09 273.899 306.107 272.393 306.107 268.99C306.107 265.588 304.09 264.056 301.903 264.056C299.691 264.056 297.674 265.588 297.674 268.99C297.674 272.393 299.691 273.899 301.903 273.899ZM65.4164 295.896C65.4164 293.49 64.4685 292.081 62.3784 292.081C60.3612 292.081 59.0245 293.49 59.0245 295.896V303.309H57.0802V295.896C57.0802 293.49 56.1566 292.081 54.0665 292.081C52.0493 292.081 50.7126 293.49 50.7126 295.896V303.309H48.7683V290.671H50.7126V293.15H50.7612C50.9556 292.299 52.1222 290.428 54.7713 290.428C56.5698 290.428 58.1009 291.23 58.7328 293.272C59.0488 292.324 60.2396 290.428 63.0103 290.428C65.4407 290.428 67.3607 291.789 67.3607 295.508V303.309H65.4164V295.896ZM75.6211 303.552C72.4859 303.552 69.5451 301.486 69.5451 296.99C69.5451 292.494 72.4859 290.428 75.6211 290.428C78.7563 290.428 81.697 292.494 81.697 296.99C81.697 301.486 78.7563 303.552 75.6211 303.552ZM75.6211 301.899C77.8084 301.899 79.8256 300.393 79.8256 296.99C79.8256 293.588 77.8084 292.056 75.6211 292.056C73.4095 292.056 71.3922 293.588 71.3922 296.99C71.3922 300.393 73.4095 301.899 75.6211 301.899ZM89.0687 303.552C86.1522 303.552 83.3816 301.535 83.3816 296.99C83.3816 292.421 86.1522 290.428 89.0687 290.428C90.9401 290.428 92.6656 291.23 93.5406 292.761V286.296H95.4849V303.309H93.5406V301.195C92.6656 302.726 90.9401 303.552 89.0687 303.552ZM89.4332 301.899C91.572 301.899 93.6378 300.344 93.6378 296.99C93.6378 293.612 91.572 292.056 89.4332 292.056C87.2702 292.056 85.2287 293.612 85.2287 296.99C85.2287 300.344 87.2702 301.899 89.4332 301.899ZM103.77 303.552C100.635 303.552 97.6939 301.486 97.6939 296.99C97.6939 292.494 100.635 290.428 103.77 290.428C106.905 290.428 109.846 292.494 109.846 296.99C109.846 301.486 106.905 303.552 103.77 303.552ZM103.77 301.899C105.957 301.899 107.974 300.393 107.974 296.99C107.974 293.588 105.957 292.056 103.77 292.056C101.558 292.056 99.541 293.588 99.541 296.99C99.541 300.393 101.558 301.899 103.77 301.899ZM134.293 295.896C134.293 293.49 133.345 292.081 131.255 292.081C129.238 292.081 127.901 293.49 127.901 295.896V303.309H125.957V295.896C125.957 293.49 125.033 292.081 122.943 292.081C120.926 292.081 119.589 293.49 119.589 295.896V303.309H117.645V290.671H119.589V293.15H119.638C119.832 292.299 120.999 290.428 123.648 290.428C125.446 290.428 126.977 291.23 127.609 293.272C127.925 292.324 129.116 290.428 131.887 290.428C134.317 290.428 136.237 291.789 136.237 295.508V303.309H134.293V295.896ZM142.578 303.552C140.172 303.552 138.422 302.458 138.422 300.077C138.422 297.841 139.953 296.747 142.408 296.455L145.64 296.091C146.952 295.945 147.341 295.678 147.341 295.265V294.754C147.341 292.615 146.272 291.935 144.182 291.935C142.092 291.935 141.022 292.615 141.022 294.292V294.584H139.151V294.122C139.151 291.595 140.949 290.428 144.255 290.428C147.681 290.428 149.285 291.716 149.285 294.754V303.309H147.463V301.122H147.365C147.074 301.754 145.689 303.552 142.578 303.552ZM143.039 301.997C145.98 301.997 147.341 300.052 147.341 298.789V296.966C147.244 297.233 146.831 297.452 145.518 297.622L142.869 297.938C140.998 298.157 140.366 298.861 140.366 299.979C140.366 301.438 141.46 301.997 143.039 301.997ZM161.145 295.896C161.145 293.49 160.124 292.081 157.888 292.081C155.652 292.081 154.17 293.49 154.17 295.896V303.309H152.225V290.671H154.17V293.15H154.218C154.437 292.299 155.652 290.428 158.569 290.428C161.072 290.428 163.089 291.789 163.089 295.508V303.309H161.145V295.896ZM167.746 298.084C167.746 300.49 168.766 301.899 171.002 301.899C173.238 301.899 174.721 300.49 174.721 298.084V290.671H176.665V303.309H174.721V300.83H174.672C174.454 301.681 173.238 303.552 170.322 303.552C167.819 303.552 165.801 302.191 165.801 298.473V290.671H167.746V298.084ZM183.044 303.552C180.638 303.552 178.888 302.458 178.888 300.077C178.888 297.841 180.42 296.747 182.874 296.455L186.107 296.091C187.419 295.945 187.808 295.678 187.808 295.265V294.754C187.808 292.615 186.739 291.935 184.648 291.935C182.558 291.935 181.489 292.615 181.489 294.292V294.584H179.618V294.122C179.618 291.595 181.416 290.428 184.721 290.428C188.148 290.428 189.752 291.716 189.752 294.754V303.309H187.929V301.122H187.832C187.541 301.754 186.155 303.552 183.044 303.552ZM183.506 301.997C186.447 301.997 187.808 300.052 187.808 298.789V296.966C187.711 297.233 187.298 297.452 185.985 297.622L183.336 297.938C181.465 298.157 180.833 298.861 180.833 299.979C180.833 301.438 181.926 301.997 183.506 301.997ZM192.574 303.309V286.296H194.518V303.309H192.574Z" fill="#FDF1EE"></path><path fill-rule="evenodd" clip-rule="evenodd" d="M0 14.6327C0 6.5513 6.5513 0 14.6327 0C22.7142 0 29.2654 6.5513 29.2654 14.6327C29.2654 22.714 22.7142 29.2654 14.6327 29.2654C6.5513 29.2654 0 22.714 0 14.6327ZM14.6327 2.09895C7.71052 2.09895 2.09898 7.71052 2.09898 14.6327C2.09898 21.5549 7.71052 27.1665 14.6327 27.1665C21.5549 27.1665 27.1664 21.5549 27.1664 14.6327C27.1664 7.71052 21.5549 2.09895 14.6327 2.09895ZM19.833 9.43295C20.2643 9.86437 20.2643 10.5639 19.833 10.9953L16.1953 14.633L19.833 18.2707C20.2643 18.7021 20.2643 19.4016 19.833 19.833C19.4016 20.2644 18.7021 20.2644 18.2707 19.833L14.633 16.1953L10.9953 19.833C10.5639 20.2644 9.86437 20.2644 9.43295 19.833C9.00154 19.4016 9.00154 18.7021 9.43295 18.2707L13.0707 14.633L9.43295 10.9953C9.00154 10.5639 9.00154 9.86437 9.43295 9.43295C9.86437 9.00154 10.5639 9.00154 10.9953 9.43295L14.633 13.0707L18.2707 9.43295C18.7021 9.00154 19.4016 9.00154 19.833 9.43295Z" fill="#FF0000"></path><path fill-rule="evenodd" clip-rule="evenodd" d="M0 98.6327C0 90.5513 6.5513 84 14.6327 84C22.7142 84 29.2654 90.5513 29.2654 98.6327C29.2654 106.714 22.7142 113.265 14.6327 113.265C6.5513 113.265 0 106.714 0 98.6327ZM14.6327 86.099C7.71052 86.099 2.09898 91.7105 2.09898 98.6327C2.09898 105.555 7.71052 111.166 14.6327 111.166C21.5549 111.166 27.1664 105.555 27.1664 98.6327C27.1664 91.7105 21.5549 86.099 14.6327 86.099ZM19.833 93.433C20.2643 93.8644 20.2643 94.5639 19.833 94.9953L16.1953 98.633L19.833 102.271C20.2643 102.702 20.2643 103.402 19.833 103.833C19.4016 104.264 18.7021 104.264 18.2707 103.833L14.633 100.195L10.9953 103.833C10.5639 104.264 9.86437 104.264 9.43295 103.833C9.00154 103.402 9.00154 102.702 9.43295 102.271L13.0707 98.633L9.43295 94.9953C9.00154 94.5639 9.00154 93.8644 9.43295 93.433C9.86437 93.0015 10.5639 93.0015 10.9953 93.433L14.633 97.0707L18.2707 93.433C18.7021 93.0015 19.4016 93.0015 19.833 93.433Z" fill="#FF0000"></path><path fill-rule="evenodd" clip-rule="evenodd" d="M0 185.633C0 177.551 6.5513 171 14.6327 171C22.7142 171 29.2654 177.551 29.2654 185.633C29.2654 193.714 22.7142 200.265 14.6327 200.265C6.5513 200.265 0 193.714 0 185.633ZM14.6327 173.099C7.71052 173.099 2.09898 178.711 2.09898 185.633C2.09898 192.555 7.71052 198.166 14.6327 198.166C21.5549 198.166 27.1664 192.555 27.1664 185.633C27.1664 178.711 21.5549 173.099 14.6327 173.099ZM19.833 180.433C20.2643 180.864 20.2643 181.564 19.833 181.995L16.1953 185.633L19.833 189.271C20.2643 189.702 20.2643 190.402 19.833 190.833C19.4016 191.264 18.7021 191.264 18.2707 190.833L14.633 187.195L10.9953 190.833C10.5639 191.264 9.86437 191.264 9.43295 190.833C9.00154 190.402 9.00154 189.702 9.43295 189.271L13.0707 185.633L9.43295 181.995C9.00154 181.564 9.00154 180.864 9.43295 180.433C9.86437 180.002 10.5639 180.002 10.9953 180.433L14.633 184.071L18.2707 180.433C18.7021 180.002 19.4016 180.002 19.833 180.433Z" fill="#FF0000"></path><path fill-rule="evenodd" clip-rule="evenodd" d="M0 269.324C0 261.242 6.5513 254.691 14.6327 254.691C22.7142 254.691 29.2654 261.242 29.2654 269.324C29.2654 277.405 22.7142 283.956 14.6327 283.956C6.5513 283.956 0 277.405 0 269.324ZM14.6327 256.79C7.71052 256.79 2.09898 262.401 2.09898 269.324C2.09898 276.246 7.71052 281.857 14.6327 281.857C21.5549 281.857 27.1664 276.246 27.1664 269.324C27.1664 262.401 21.5549 256.79 14.6327 256.79ZM19.833 264.124C20.2643 264.555 20.2643 265.255 19.833 265.686L16.1953 269.324L19.833 272.962C20.2643 273.393 20.2643 274.093 19.833 274.524C19.4016 274.955 18.7021 274.955 18.2707 274.524L14.633 270.886L10.9953 274.524C10.5639 274.955 9.86437 274.955 9.43295 274.524C9.00154 274.093 9.00154 273.393 9.43295 272.962L13.0707 269.324L9.43295 265.686C9.00154 265.255 9.00154 264.555 9.43295 264.124C9.86437 263.692 10.5639 263.692 10.9953 264.124L14.633 267.762L18.2707 264.124C18.7021 263.692 19.4016 263.692 19.833 264.124Z" fill="#FF0000"></path></svg>