<svg xmlns="http://www.w3.org/2000/svg" width="413" height="370" viewBox="0 0 413 370" fill="none"><path fill-rule="evenodd" clip-rule="evenodd" d="M22.3091 13C14.2277 13 7.67639 19.5513 7.67639 27.6327C7.67639 35.714 14.2277 42.2654 22.3091 42.2654C30.3906 42.2654 36.9417 35.714 36.9417 27.6327C36.9417 19.5513 30.3906 13 22.3091 13ZM9.77537 27.6327C9.77537 20.7105 15.3869 15.099 22.3091 15.099C29.2313 15.099 34.8428 20.7105 34.8428 27.6327C34.8428 34.5549 29.2313 40.1665 22.3091 40.1665C15.3869 40.1665 9.77537 34.5549 9.77537 27.6327ZM28.184 23.2975C28.5351 22.7985 28.4153 22.1094 27.9164 21.7583C27.4174 21.4072 26.7283 21.527 26.3772 22.026L20.1436 30.8843L17.5741 28.2672C17.1466 27.8319 16.4472 27.8255 16.0118 28.2529C15.5765 28.6804 15.5701 29.3798 15.9975 29.8151L19.4958 33.3782C19.7255 33.6122 20.0472 33.7319 20.374 33.7052C20.7008 33.6787 20.9988 33.5081 21.1875 33.2399L28.184 23.2975Z" fill="white"></path><path fill-rule="evenodd" clip-rule="evenodd" d="M14.6327 117C6.5513 117 0 123.551 0 131.633C0 139.714 6.5513 146.265 14.6327 146.265C22.7142 146.265 29.2654 139.714 29.2654 131.633C29.2654 123.551 22.7142 117 14.6327 117ZM2.09898 131.633C2.09898 124.711 7.71052 119.099 14.6327 119.099C21.5549 119.099 27.1664 124.711 27.1664 131.633C27.1664 138.555 21.5549 144.166 14.6327 144.166C7.71052 144.166 2.09898 138.555 2.09898 131.633ZM20.5076 127.298C20.8587 126.799 20.7389 126.109 20.24 125.758C19.741 125.407 19.0519 125.527 18.7008 126.026L12.4672 134.884L9.89769 132.267C9.47023 131.832 8.77079 131.825 8.33544 132.253C7.90007 132.68 7.89366 133.38 8.32112 133.815L11.8194 137.378C12.0491 137.612 12.3708 137.732 12.6976 137.705C13.0244 137.679 13.3224 137.508 13.5111 137.24L20.5076 127.298Z" fill="white"></path><path fill-rule="evenodd" clip-rule="evenodd" d="M14.6327 198C6.5513 198 0 204.551 0 212.633C0 220.714 6.5513 227.265 14.6327 227.265C22.7142 227.265 29.2654 220.714 29.2654 212.633C29.2654 204.551 22.7142 198 14.6327 198ZM2.09898 212.633C2.09898 205.711 7.71052 200.099 14.6327 200.099C21.5549 200.099 27.1664 205.711 27.1664 212.633C27.1664 219.555 21.5549 225.166 14.6327 225.166C7.71052 225.166 2.09898 219.555 2.09898 212.633ZM20.5076 208.298C20.8587 207.799 20.7389 207.109 20.24 206.758C19.741 206.407 19.0519 206.527 18.7008 207.026L12.4672 215.884L9.89769 213.267C9.47023 212.832 8.77079 212.825 8.33544 213.253C7.90007 213.68 7.89366 214.38 8.32112 214.815L11.8194 218.378C12.0491 218.612 12.3708 218.732 12.6976 218.705C13.0244 218.679 13.3224 218.508 13.5111 218.24L20.5076 208.298Z" fill="white"></path><path fill-rule="evenodd" clip-rule="evenodd" d="M14.6327 321.782C6.5513 321.782 0 328.334 0 336.415C0 344.496 6.5513 351.048 14.6327 351.048C22.7142 351.048 29.2654 344.496 29.2654 336.415C29.2654 328.334 22.7142 321.782 14.6327 321.782ZM2.09898 336.415C2.09898 329.493 7.71052 323.881 14.6327 323.881C21.5549 323.881 27.1664 329.493 27.1664 336.415C27.1664 343.337 21.5549 348.949 14.6327 348.949C7.71052 348.949 2.09898 343.337 2.09898 336.415ZM20.5076 332.08C20.8587 331.581 20.7389 330.892 20.24 330.541C19.741 330.19 19.0519 330.31 18.7008 330.808L12.4672 339.667L9.89769 337.05C9.47023 336.614 8.77079 336.608 8.33544 337.035C7.90007 337.463 7.89366 338.162 8.32112 338.598L11.8194 342.161C12.0491 342.395 12.3708 342.514 12.6976 342.488C13.0244 342.461 13.3224 342.291 13.5111 342.022L20.5076 332.08Z" fill="white"></path><path d="M47.9888 28V10.9874H51.9746L56.9326 23.6982L61.8906 10.9874H65.8764V28H62.6926V16.5772H62.5711L58.1478 28H55.7174L51.2698 16.5772H51.1726V28H47.9888ZM71.5823 22.5803C71.5823 24.6461 72.4815 25.6668 74.1585 25.6668C75.8597 25.6668 77.0992 24.6461 77.0992 22.5803V15.362H80.2101V28H77.0992V25.3995H77.002C76.759 26.4932 75.5438 28.243 72.8704 28.243C70.3914 28.243 68.4714 26.7362 68.4714 23.3094V15.362H71.5823V22.5803ZM82.8305 28V10.9874H85.9414V28H82.8305ZM97.1783 20.7818C97.1783 18.716 96.2791 17.6952 94.6021 17.6952C92.9009 17.6952 91.6614 18.716 91.6614 20.7818V28H88.5505V10.9874H91.6614V17.9625H91.7586C92.0016 16.8689 93.2168 15.119 95.8902 15.119C98.3692 15.119 100.289 16.6258 100.289 20.0527V28H97.1783V20.7818ZM108.548 28.243C105.267 28.243 102.302 26.3716 102.302 21.6567C102.302 16.9904 105.194 15.119 108.5 15.119C111.756 15.119 114.43 16.9175 114.43 21.5352C114.43 21.9727 114.405 22.2157 114.357 22.483H105.243C105.437 24.8405 106.628 25.8613 108.621 25.8613C110.201 25.8613 111.124 25.2537 111.489 24.0385H114.26C113.579 26.9063 111.367 28.243 108.548 28.243ZM105.267 20.5873H111.489C111.416 18.8132 110.492 17.5008 108.451 17.5008C106.628 17.5008 105.486 18.5215 105.267 20.5873ZM116.414 28V15.362H119.525V18.3757H119.598C120.011 16.6744 121.202 15.2162 123.341 15.2162C123.633 15.2162 123.973 15.2405 124.313 15.3377V17.9625C123.949 17.9139 123.657 17.8896 123.341 17.8896C121.251 17.8896 119.525 19.1534 119.525 22.1185V28H116.414ZM131.357 28.243C128.076 28.243 125.111 26.3716 125.111 21.6567C125.111 16.9904 128.003 15.119 131.308 15.119C134.565 15.119 137.238 16.9175 137.238 21.5352C137.238 21.9727 137.214 22.2157 137.165 22.483H128.051C128.246 24.8405 129.437 25.8613 131.43 25.8613C133.009 25.8613 133.933 25.2537 134.297 24.0385H137.068C136.388 26.9063 134.176 28.243 131.357 28.243ZM128.076 20.5873H134.297C134.225 18.8132 133.301 17.5008 131.259 17.5008C129.437 17.5008 128.294 18.5215 128.076 20.5873ZM143.889 28.243C140.633 28.243 138.518 26.8577 138.494 24.0142H141.264C141.435 25.3509 142.455 25.8856 143.914 25.8856C145.25 25.8856 146.198 25.4238 146.198 24.3544C146.198 23.5767 145.688 23.1879 144.716 22.9934L142.382 22.483C139.831 21.8997 138.834 20.563 138.834 18.8618C138.834 16.48 140.876 15.119 143.914 15.119C147.122 15.119 148.944 16.6501 148.993 19.3235H146.417C146.222 17.9382 145.299 17.4765 143.938 17.4765C142.553 17.4765 141.848 17.9382 141.848 18.8132C141.848 19.5423 142.358 20.0041 143.379 20.1985L145.785 20.7332C147.778 21.1949 149.406 22.0699 149.406 24.2815C149.406 27.0765 146.83 28.243 143.889 28.243ZM168.863 32.6177H165.752V26.1772C165.144 27.3681 163.686 28.243 161.839 28.243C159.117 28.243 156.274 26.2987 156.274 21.681C156.274 17.0633 159.117 15.119 161.839 15.119C163.686 15.119 165.144 15.9939 165.752 17.1848V15.362H168.863V32.6177ZM162.568 25.6425C164.269 25.6425 165.898 24.403 165.898 21.681C165.898 18.959 164.269 17.7195 162.568 17.7195C160.818 17.7195 159.19 18.959 159.19 21.681C159.19 24.403 160.818 25.6425 162.568 25.6425ZM174.589 22.5803C174.589 24.6461 175.488 25.6668 177.165 25.6668C178.866 25.6668 180.105 24.6461 180.105 22.5803V15.362H183.216V28H180.105V25.3995H180.008C179.765 26.4932 178.55 28.243 175.877 28.243C173.398 28.243 171.478 26.7362 171.478 23.3094V15.362H174.589V22.5803ZM191.475 28.243C188.194 28.243 185.229 26.3716 185.229 21.6567C185.229 16.9904 188.121 15.119 191.427 15.119C194.683 15.119 197.357 16.9175 197.357 21.5352C197.357 21.9727 197.333 22.2157 197.284 22.483H188.17C188.364 24.8405 189.555 25.8613 191.548 25.8613C193.128 25.8613 194.051 25.2537 194.416 24.0385H197.187C196.506 26.9063 194.295 28.243 191.475 28.243ZM188.194 20.5873H194.416C194.343 18.8132 193.42 17.5008 191.378 17.5008C189.555 17.5008 188.413 18.5215 188.194 20.5873ZM216.925 32.6177H213.814V26.1772C213.206 27.3681 211.748 28.243 209.901 28.243C207.179 28.243 204.335 26.2987 204.335 21.681C204.335 17.0633 207.179 15.119 209.901 15.119C211.748 15.119 213.206 15.9939 213.814 17.1848V15.362H216.925V32.6177ZM210.63 25.6425C212.331 25.6425 213.96 24.403 213.96 21.681C213.96 18.959 212.331 17.7195 210.63 17.7195C208.88 17.7195 207.252 18.959 207.252 21.681C207.252 24.403 208.88 25.6425 210.63 25.6425ZM222.65 22.5803C222.65 24.6461 223.549 25.6668 225.226 25.6668C226.928 25.6668 228.167 24.6461 228.167 22.5803V15.362H231.278V28H228.167V25.3995H228.07C227.827 26.4932 226.612 28.243 223.938 28.243C221.459 28.243 219.539 26.7362 219.539 23.3094V15.362H222.65V22.5803ZM239.537 28.243C236.256 28.243 233.291 26.3716 233.291 21.6567C233.291 16.9904 236.183 15.119 239.488 15.119C242.745 15.119 245.418 16.9175 245.418 21.5352C245.418 21.9727 245.394 22.2157 245.346 22.483H236.232C236.426 24.8405 237.617 25.8613 239.61 25.8613C241.19 25.8613 242.113 25.2537 242.478 24.0385H245.248C244.568 26.9063 242.356 28.243 239.537 28.243ZM236.256 20.5873H242.478C242.405 18.8132 241.481 17.5008 239.44 17.5008C237.617 17.5008 236.475 18.5215 236.256 20.5873ZM247.403 28V15.362H250.514V18.3757H250.587C251 16.6744 252.191 15.2162 254.33 15.2162C254.621 15.2162 254.962 15.2405 255.302 15.3377V17.9625C254.937 17.9139 254.646 17.8896 254.33 17.8896C252.24 17.8896 250.514 19.1534 250.514 22.1185V28H247.403ZM262.346 28.243C259.064 28.243 256.099 26.3716 256.099 21.6567C256.099 16.9904 258.992 15.119 262.297 15.119C265.554 15.119 268.227 16.9175 268.227 21.5352C268.227 21.9727 268.203 22.2157 268.154 22.483H259.04C259.235 24.8405 260.426 25.8613 262.418 25.8613C263.998 25.8613 264.922 25.2537 265.286 24.0385H268.057C267.376 26.9063 265.165 28.243 262.346 28.243ZM259.064 20.5873H265.286C265.213 18.8132 264.29 17.5008 262.248 17.5008C260.426 17.5008 259.283 18.5215 259.064 20.5873ZM286.277 20.7818C286.277 18.716 285.426 17.6952 283.919 17.6952C282.437 17.6952 281.343 18.716 281.343 20.7818V28H278.232V20.7818C278.232 18.716 277.406 17.6952 275.899 17.6952C274.416 17.6952 273.323 18.716 273.323 20.7818V28H270.212V15.362H273.323V17.9625H273.42C273.614 16.8689 274.878 15.119 277.211 15.119C278.985 15.119 280.492 16.0182 281.076 18.0354C281.319 16.9175 282.631 15.119 285.134 15.119C287.565 15.119 289.387 16.6258 289.387 20.0527V28H286.277V20.7818ZM301.417 28L296.75 15.362H299.91L303.312 25.0349H303.434L306.836 15.362H310.02L305.33 28H301.417ZM316.554 28.243C313.273 28.243 310.308 26.3716 310.308 21.6567C310.308 16.9904 313.2 15.119 316.506 15.119C319.762 15.119 322.436 16.9175 322.436 21.5352C322.436 21.9727 322.412 22.2157 322.363 22.483H313.249C313.443 24.8405 314.634 25.8613 316.627 25.8613C318.207 25.8613 319.131 25.2537 319.495 24.0385H322.266C321.585 26.9063 319.374 28.243 316.554 28.243ZM313.273 20.5873H319.495C319.422 18.8132 318.499 17.5008 316.457 17.5008C314.634 17.5008 313.492 18.5215 313.273 20.5873ZM333.048 20.7818C333.048 18.716 332.149 17.6952 330.472 17.6952C328.771 17.6952 327.531 18.716 327.531 20.7818V28H324.421V15.362H327.531V17.9625H327.629C327.872 16.8689 329.087 15.119 331.76 15.119C334.239 15.119 336.159 16.6258 336.159 20.0527V28H333.048V20.7818ZM343.738 28.243C341.016 28.243 338.172 26.2987 338.172 21.681C338.172 17.0633 341.016 15.119 343.738 15.119C345.585 15.119 347.043 15.9939 347.651 17.1848V10.9874H350.762V28H347.651V26.1772C347.043 27.3681 345.585 28.243 343.738 28.243ZM344.467 25.6425C346.168 25.6425 347.796 24.403 347.796 21.681C347.796 18.959 346.168 17.7195 344.467 17.7195C342.717 17.7195 341.089 18.959 341.089 21.681C341.089 24.403 342.717 25.6425 344.467 25.6425ZM359.015 28.243C355.734 28.243 352.769 26.3716 352.769 21.6567C352.769 16.9904 355.661 15.119 358.966 15.119C362.223 15.119 364.896 16.9175 364.896 21.5352C364.896 21.9727 364.872 22.2157 364.823 22.483H355.709C355.904 24.8405 357.095 25.8613 359.088 25.8613C360.667 25.8613 361.591 25.2537 361.956 24.0385H364.726C364.046 26.9063 361.834 28.243 359.015 28.243ZM355.734 20.5873H361.956C361.883 18.8132 360.959 17.5008 358.918 17.5008C357.095 17.5008 355.952 18.5215 355.734 20.5873ZM366.881 28V15.362H369.992V18.3757H370.065C370.478 16.6744 371.669 15.2162 373.808 15.2162C374.099 15.2162 374.439 15.2405 374.78 15.3377V17.9625C374.415 17.9139 374.124 17.8896 373.808 17.8896C371.717 17.8896 369.992 19.1534 369.992 22.1185V28H366.881ZM52.6551 65.243C49.3984 65.243 47.284 63.8577 47.2597 61.0142H50.0303C50.2004 62.3509 51.2212 62.8856 52.6794 62.8856C54.0161 62.8856 54.964 62.4238 54.964 61.3544C54.964 60.5767 54.4536 60.1879 53.4815 59.9934L51.1483 59.483C48.5964 58.8997 47.5999 57.563 47.5999 55.8618C47.5999 53.48 49.6415 52.119 52.6794 52.119C55.8875 52.119 57.7103 53.6501 57.7589 56.3235H55.1827C54.9883 54.9382 54.0647 54.4765 52.7037 54.4765C51.3184 54.4765 50.6136 54.9382 50.6136 55.8132C50.6136 56.5423 51.124 57.0041 52.1447 57.1985L54.5508 57.7332C56.5437 58.1949 58.1721 59.0699 58.1721 61.2815C58.1721 64.0765 55.5959 65.243 52.6551 65.243ZM65.6842 65.243C62.4032 65.243 59.4382 63.3716 59.4382 58.6567C59.4382 53.9904 62.3303 52.119 65.6356 52.119C68.8923 52.119 71.5657 53.9175 71.5657 58.5352C71.5657 58.9727 71.5414 59.2157 71.4928 59.483H62.3789C62.5733 61.8405 63.7642 62.8613 65.7571 62.8613C67.3369 62.8613 68.2604 62.2537 68.625 61.0385H71.3956C70.7151 63.9063 68.5035 65.243 65.6842 65.243ZM62.4032 57.5873H68.625C68.5521 55.8132 67.6285 54.5008 65.587 54.5008C63.7642 54.5008 62.622 55.5215 62.4032 57.5873ZM89.6153 57.7818C89.6153 55.716 88.7647 54.6952 87.2578 54.6952C85.7753 54.6952 84.6816 55.716 84.6816 57.7818V65H81.5707V57.7818C81.5707 55.716 80.7444 54.6952 79.2376 54.6952C77.755 54.6952 76.6614 55.716 76.6614 57.7818V65H73.5505V52.362H76.6614V54.9625H76.7586C76.953 53.8689 78.2168 52.119 80.55 52.119C82.3242 52.119 83.831 53.0182 84.4143 55.0354C84.6573 53.9175 85.9697 52.119 88.473 52.119C90.9034 52.119 92.7262 53.6258 92.7262 57.0527V65H89.6153V57.7818ZM104.391 65.243C102.252 65.243 100.332 64.2223 100.332 61.6947C100.332 59.0699 102.398 58.3165 104.707 58.0005L107.064 57.6846C108.304 57.5144 108.668 57.2957 108.668 56.6395V56.3722C108.668 54.841 107.745 54.3792 106.384 54.3792C104.998 54.3792 103.929 54.841 103.929 56.2263V56.4937H101.013V55.9347C101.013 53.48 102.69 52.119 106.457 52.119C110.175 52.119 111.731 53.4557 111.731 56.2506V65H108.741V62.7397H108.62C108.352 63.4446 107.21 65.243 104.391 65.243ZM105.412 62.9828C107.405 62.9828 108.668 61.6461 108.668 60.6253V59.0213C108.498 59.3129 107.891 59.4587 107.186 59.556L105.193 59.8719C103.856 60.0663 103.443 60.6739 103.443 61.4273C103.443 62.3995 104.099 62.9828 105.412 62.9828ZM114.444 69.6177V52.362H117.555V54.1848C118.163 52.9939 119.621 52.119 121.468 52.119C124.19 52.119 127.034 54.0633 127.034 58.681C127.034 63.2987 124.19 65.243 121.468 65.243C119.621 65.243 118.163 64.3681 117.555 63.1772V69.6177H114.444ZM120.739 62.6425C122.489 62.6425 124.117 61.403 124.117 58.681C124.117 55.959 122.489 54.7195 120.739 54.7195C119.038 54.7195 117.41 55.959 117.41 58.681C117.41 61.403 119.038 62.6425 120.739 62.6425ZM132.492 65.243C130.353 65.243 128.433 64.2223 128.433 61.6947C128.433 59.0699 130.499 58.3165 132.808 58.0005L135.166 57.6846C136.405 57.5144 136.77 57.2957 136.77 56.6395V56.3722C136.77 54.841 135.846 54.3792 134.485 54.3792C133.1 54.3792 132.03 54.841 132.03 56.2263V56.4937H129.114V55.9347C129.114 53.48 130.791 52.119 134.558 52.119C138.276 52.119 139.832 53.4557 139.832 56.2506V65H136.842V62.7397H136.721C136.454 63.4446 135.311 65.243 132.492 65.243ZM133.513 62.9828C135.506 62.9828 136.77 61.6461 136.77 60.6253V59.0213C136.599 59.3129 135.992 59.4587 135.287 59.556L133.294 59.8719C131.957 60.0663 131.544 60.6739 131.544 61.4273C131.544 62.3995 132.2 62.9828 133.513 62.9828ZM142.546 65V52.362H145.657V55.3757H145.729C146.143 53.6744 147.334 52.2162 149.472 52.2162C149.764 52.2162 150.104 52.2405 150.444 52.3377V54.9625C150.08 54.9139 149.788 54.8896 149.472 54.8896C147.382 54.8896 145.657 56.1534 145.657 59.1185V65H142.546ZM157.488 65.243C154.207 65.243 151.242 63.3716 151.242 58.6567C151.242 53.9904 154.134 52.119 157.439 52.119C160.696 52.119 163.369 53.9175 163.369 58.5352C163.369 58.9727 163.345 59.2157 163.297 59.483H154.183C154.377 61.8405 155.568 62.8613 157.561 62.8613C159.141 62.8613 160.064 62.2537 160.429 61.0385H163.199C162.519 63.9063 160.307 65.243 157.488 65.243ZM154.207 57.5873H160.429C160.356 55.8132 159.432 54.5008 157.391 54.5008C155.568 54.5008 154.426 55.5215 154.207 57.5873ZM171.16 65.243C168 65.243 164.865 63.3716 164.865 58.7053C164.865 54.039 168 52.119 171.16 52.119C173.372 52.119 176.361 53.0182 176.823 57.1013H174.004C173.688 55.4 172.57 54.7438 171.136 54.7438C168.973 54.7438 167.782 56.3235 167.782 58.7053C167.782 61.0871 168.973 62.6182 171.136 62.6182C172.618 62.6182 173.688 61.9134 174.004 60.2365H176.823C176.434 64.2952 173.396 65.243 171.16 65.243ZM184.379 65.243C181.098 65.243 178.133 63.3716 178.133 58.6567C178.133 53.9904 181.025 52.119 184.33 52.119C187.587 52.119 190.26 53.9175 190.26 58.5352C190.26 58.9727 190.236 59.2157 190.187 59.483H181.073C181.268 61.8405 182.459 62.8613 184.452 62.8613C186.031 62.8613 186.955 62.2537 187.32 61.0385H190.09C189.41 63.9063 187.198 65.243 184.379 65.243ZM181.098 57.5873H187.32C187.247 55.8132 186.323 54.5008 184.282 54.5008C182.459 54.5008 181.317 55.5215 181.098 57.5873ZM192.245 65V52.362H195.356V55.3757H195.429C195.842 53.6744 197.033 52.2162 199.172 52.2162C199.463 52.2162 199.804 52.2405 200.144 52.3377V54.9625C199.779 54.9139 199.488 54.8896 199.172 54.8896C197.081 54.8896 195.356 56.1534 195.356 59.1185V65H192.245ZM61.6475 139.486L60.1407 137.955C58.8769 138.781 57.3458 139.243 55.6202 139.243C50.8566 139.243 47.6242 135.816 47.6242 130.494C47.6242 125.147 50.8566 121.769 55.6202 121.769C60.3837 121.769 63.6404 125.147 63.6404 130.494C63.6404 132.73 63.0571 134.65 62.0364 136.108L63.5675 137.663L61.6475 139.486ZM55.6202 136.472C56.5437 136.472 57.3458 136.254 58.0263 135.816L55.4744 133.24L57.3944 131.417L59.7275 133.775C60.1164 132.875 60.3351 131.782 60.3351 130.494C60.3351 126.751 58.5366 124.539 55.6202 124.539C52.7037 124.539 50.9053 126.751 50.9053 130.494C50.9053 134.212 52.7037 136.472 55.6202 136.472ZM68.8766 133.58C68.8766 135.646 69.7758 136.667 71.4528 136.667C73.154 136.667 74.3935 135.646 74.3935 133.58V126.362H77.5044V139H74.3935V136.399H74.2963C74.0533 137.493 72.8381 139.243 70.1647 139.243C67.6857 139.243 65.7657 137.736 65.7657 134.309V126.362H68.8766V133.58ZM85.7633 139.243C82.4823 139.243 79.5173 137.372 79.5173 132.657C79.5173 127.99 82.4094 126.119 85.7147 126.119C88.9714 126.119 91.6448 127.917 91.6448 132.535C91.6448 132.973 91.6205 133.216 91.5719 133.483H82.458C82.6524 135.841 83.8433 136.861 85.8362 136.861C87.416 136.861 88.3395 136.254 88.7041 135.038H91.4747C90.7942 137.906 88.5826 139.243 85.7633 139.243ZM82.4823 131.587H88.7041C88.6312 129.813 87.7076 128.501 85.6661 128.501C83.8433 128.501 82.7011 129.522 82.4823 131.587ZM109.694 131.782C109.694 129.716 108.844 128.695 107.337 128.695C105.854 128.695 104.761 129.716 104.761 131.782V139H101.65V131.782C101.65 129.716 100.824 128.695 99.3167 128.695C97.8341 128.695 96.7405 129.716 96.7405 131.782V139H93.6296V126.362H96.7405V128.963H96.8377C97.0321 127.869 98.2959 126.119 100.629 126.119C102.403 126.119 103.91 127.018 104.493 129.035C104.736 127.917 106.049 126.119 108.552 126.119C110.982 126.119 112.805 127.626 112.805 131.053V139H109.694V131.782ZM133.001 143.618H129.89V137.177C129.282 138.368 127.824 139.243 125.977 139.243C123.255 139.243 120.411 137.299 120.411 132.681C120.411 128.063 123.255 126.119 125.977 126.119C127.824 126.119 129.282 126.994 129.89 128.185V126.362H133.001V143.618ZM126.706 136.643C128.407 136.643 130.036 135.403 130.036 132.681C130.036 129.959 128.407 128.719 126.706 128.719C124.956 128.719 123.328 129.959 123.328 132.681C123.328 135.403 124.956 136.643 126.706 136.643ZM138.726 133.58C138.726 135.646 139.625 136.667 141.302 136.667C143.004 136.667 144.243 135.646 144.243 133.58V126.362H147.354V139H144.243V136.399H144.146C143.903 137.493 142.688 139.243 140.014 139.243C137.535 139.243 135.615 137.736 135.615 134.309V126.362H138.726V133.58ZM155.613 139.243C152.332 139.243 149.367 137.372 149.367 132.657C149.367 127.99 152.259 126.119 155.564 126.119C158.821 126.119 161.494 127.917 161.494 132.535C161.494 132.973 161.47 133.216 161.422 133.483H152.308C152.502 135.841 153.693 136.861 155.686 136.861C157.266 136.861 158.189 136.254 158.554 135.038H161.324C160.644 137.906 158.432 139.243 155.613 139.243ZM152.332 131.587H158.554C158.481 129.813 157.557 128.501 155.516 128.501C153.693 128.501 152.551 129.522 152.332 131.587ZM163.479 139V126.362H166.59V129.376H166.663C167.076 127.674 168.267 126.216 170.406 126.216C170.697 126.216 171.038 126.241 171.378 126.338V128.963C171.013 128.914 170.722 128.89 170.406 128.89C168.316 128.89 166.59 130.153 166.59 133.118V139H163.479ZM183.169 139.243C179.913 139.243 177.798 137.858 177.774 135.014H180.544C180.715 136.351 181.735 136.886 183.194 136.886C184.53 136.886 185.478 136.424 185.478 135.354C185.478 134.577 184.968 134.188 183.996 133.993L181.662 133.483C179.111 132.9 178.114 131.563 178.114 129.862C178.114 127.48 180.156 126.119 183.194 126.119C186.402 126.119 188.224 127.65 188.273 130.324H185.697C185.502 128.938 184.579 128.476 183.218 128.476C181.833 128.476 181.128 128.938 181.128 129.813C181.128 130.542 181.638 131.004 182.659 131.198L185.065 131.733C187.058 132.195 188.686 133.07 188.686 135.282C188.686 138.076 186.11 139.243 183.169 139.243ZM194.082 139.243C191.944 139.243 190.024 138.222 190.024 135.695C190.024 133.07 192.089 132.316 194.398 132.001L196.756 131.685C197.995 131.514 198.36 131.296 198.36 130.639V130.372C198.36 128.841 197.436 128.379 196.075 128.379C194.69 128.379 193.62 128.841 193.62 130.226V130.494H190.704V129.935C190.704 127.48 192.381 126.119 196.148 126.119C199.867 126.119 201.422 127.456 201.422 130.251V139H198.433V136.74H198.311C198.044 137.445 196.901 139.243 194.082 139.243ZM195.103 136.983C197.096 136.983 198.36 135.646 198.36 134.625V133.021C198.19 133.313 197.582 133.459 196.877 133.556L194.884 133.872C193.548 134.066 193.134 134.674 193.134 135.427C193.134 136.399 193.791 136.983 195.103 136.983ZM204.017 139V126.362H207.128V139H204.017ZM205.573 124.588C204.625 124.588 203.798 123.834 203.798 122.838C203.798 121.842 204.625 121.088 205.573 121.088C206.496 121.088 207.323 121.842 207.323 122.838C207.323 123.834 206.496 124.588 205.573 124.588ZM209.737 139V126.362H212.848V129.376H212.921C213.334 127.674 214.525 126.216 216.664 126.216C216.955 126.216 217.296 126.241 217.636 126.338V128.963C217.271 128.914 216.98 128.89 216.664 128.89C214.574 128.89 212.848 130.153 212.848 133.118V139H209.737ZM229.719 139.243C226.997 139.243 224.153 137.299 224.153 132.681C224.153 128.063 226.997 126.119 229.719 126.119C231.566 126.119 233.024 126.994 233.632 128.185V121.987H236.743V139H233.632V137.177C233.024 138.368 231.566 139.243 229.719 139.243ZM230.448 136.643C232.149 136.643 233.778 135.403 233.778 132.681C233.778 129.959 232.149 128.719 230.448 128.719C228.698 128.719 227.07 129.959 227.07 132.681C227.07 135.403 228.698 136.643 230.448 136.643ZM245.02 139.243C241.836 139.243 238.75 137.25 238.75 132.681C238.75 128.112 241.836 126.119 245.02 126.119C248.18 126.119 251.291 128.112 251.291 132.681C251.291 137.25 248.18 139.243 245.02 139.243ZM245.02 136.643C246.843 136.643 248.35 135.427 248.35 132.681C248.35 129.935 246.843 128.719 245.02 128.719C243.173 128.719 241.666 129.935 241.666 132.681C241.666 135.427 243.173 136.643 245.02 136.643ZM258.55 139V136.375L265.21 128.987H258.793V126.362H268.904V128.987L262.269 136.375H268.904V139H258.55ZM276.966 139.243C273.685 139.243 270.72 137.372 270.72 132.657C270.72 127.99 273.612 126.119 276.917 126.119C280.174 126.119 282.847 127.917 282.847 132.535C282.847 132.973 282.823 133.216 282.774 133.483H273.66C273.855 135.841 275.046 136.861 277.039 136.861C278.618 136.861 279.542 136.254 279.907 135.038H282.677C281.997 137.906 279.785 139.243 276.966 139.243ZM273.685 131.587H279.907C279.834 129.813 278.91 128.501 276.869 128.501C275.046 128.501 273.903 129.522 273.685 131.587ZM284.832 139V126.362H287.943V129.376H288.016C288.429 127.674 289.62 126.216 291.759 126.216C292.05 126.216 292.39 126.241 292.731 126.338V128.963C292.366 128.914 292.075 128.89 291.759 128.89C289.668 128.89 287.943 130.153 287.943 133.118V139H284.832ZM299.799 139.243C296.615 139.243 293.528 137.25 293.528 132.681C293.528 128.112 296.615 126.119 299.799 126.119C302.958 126.119 306.069 128.112 306.069 132.681C306.069 137.25 302.958 139.243 299.799 139.243ZM299.799 136.643C301.621 136.643 303.128 135.427 303.128 132.681C303.128 129.935 301.621 128.719 299.799 128.719C297.951 128.719 296.445 129.935 296.445 132.681C296.445 135.427 297.951 136.643 299.799 136.643ZM61.6475 213.486L60.1407 211.955C58.8769 212.781 57.3458 213.243 55.6202 213.243C50.8566 213.243 47.6242 209.816 47.6242 204.494C47.6242 199.147 50.8566 195.769 55.6202 195.769C60.3837 195.769 63.6404 199.147 63.6404 204.494C63.6404 206.73 63.0571 208.65 62.0364 210.108L63.5675 211.663L61.6475 213.486ZM55.6202 210.472C56.5437 210.472 57.3458 210.254 58.0263 209.816L55.4744 207.24L57.3944 205.417L59.7275 207.775C60.1164 206.875 60.3351 205.782 60.3351 204.494C60.3351 200.751 58.5366 198.539 55.6202 198.539C52.7037 198.539 50.9053 200.751 50.9053 204.494C50.9053 208.212 52.7037 210.472 55.6202 210.472ZM68.8766 207.58C68.8766 209.646 69.7758 210.667 71.4528 210.667C73.154 210.667 74.3935 209.646 74.3935 207.58V200.362H77.5044V213H74.3935V210.399H74.2963C74.0533 211.493 72.8381 213.243 70.1647 213.243C67.6857 213.243 65.7657 211.736 65.7657 208.309V200.362H68.8766V207.58ZM85.7633 213.243C82.4823 213.243 79.5173 211.372 79.5173 206.657C79.5173 201.99 82.4094 200.119 85.7147 200.119C88.9714 200.119 91.6448 201.917 91.6448 206.535C91.6448 206.973 91.6205 207.216 91.5719 207.483H82.458C82.6524 209.841 83.8433 210.861 85.8362 210.861C87.416 210.861 88.3395 210.254 88.7041 209.038H91.4747C90.7942 211.906 88.5826 213.243 85.7633 213.243ZM82.4823 205.587H88.7041C88.6312 203.813 87.7076 202.501 85.6661 202.501C83.8433 202.501 82.7011 203.522 82.4823 205.587ZM109.694 205.782C109.694 203.716 108.844 202.695 107.337 202.695C105.854 202.695 104.761 203.716 104.761 205.782V213H101.65V205.782C101.65 203.716 100.824 202.695 99.3167 202.695C97.8341 202.695 96.7405 203.716 96.7405 205.782V213H93.6296V200.362H96.7405V202.963H96.8377C97.0321 201.869 98.2959 200.119 100.629 200.119C102.403 200.119 103.91 201.018 104.493 203.035C104.736 201.917 106.049 200.119 108.552 200.119C110.982 200.119 112.805 201.626 112.805 205.053V213H109.694V205.782ZM121.019 217.618V200.362H124.13V202.185C124.737 200.994 126.196 200.119 128.043 200.119C130.765 200.119 133.608 202.063 133.608 206.681C133.608 211.299 130.765 213.243 128.043 213.243C126.196 213.243 124.737 212.368 124.13 211.177V217.618H121.019ZM127.313 210.643C129.063 210.643 130.692 209.403 130.692 206.681C130.692 203.959 129.063 202.719 127.313 202.719C125.612 202.719 123.984 203.959 123.984 206.681C123.984 209.403 125.612 210.643 127.313 210.643ZM141.397 213.243C138.213 213.243 135.126 211.25 135.126 206.681C135.126 202.112 138.213 200.119 141.397 200.119C144.556 200.119 147.667 202.112 147.667 206.681C147.667 211.25 144.556 213.243 141.397 213.243ZM141.397 210.643C143.22 210.643 144.726 209.427 144.726 206.681C144.726 203.935 143.22 202.719 141.397 202.719C139.55 202.719 138.043 203.935 138.043 206.681C138.043 209.427 139.55 210.643 141.397 210.643ZM154.743 213.243C152.021 213.243 149.177 211.299 149.177 206.681C149.177 202.063 152.021 200.119 154.743 200.119C156.59 200.119 158.048 200.994 158.656 202.185V195.987H161.766V213H158.656V211.177C158.048 212.368 156.59 213.243 154.743 213.243ZM155.472 210.643C157.173 210.643 158.801 209.403 158.801 206.681C158.801 203.959 157.173 202.719 155.472 202.719C153.722 202.719 152.093 203.959 152.093 206.681C152.093 209.403 153.722 210.643 155.472 210.643ZM170.02 213.243C166.739 213.243 163.774 211.372 163.774 206.657C163.774 201.99 166.666 200.119 169.971 200.119C173.228 200.119 175.901 201.917 175.901 206.535C175.901 206.973 175.877 207.216 175.828 207.483H166.714C166.909 209.841 168.1 210.861 170.093 210.861C171.672 210.861 172.596 210.254 172.96 209.038H175.731C175.05 211.906 172.839 213.243 170.02 213.243ZM166.739 205.587H172.96C172.887 203.813 171.964 202.501 169.922 202.501C168.1 202.501 166.957 203.522 166.739 205.587ZM188.445 213.243C185.723 213.243 182.88 211.299 182.88 206.681C182.88 202.063 185.723 200.119 188.445 200.119C190.292 200.119 191.75 200.994 192.358 202.185V195.987H195.469V213H192.358V211.177C191.75 212.368 190.292 213.243 188.445 213.243ZM189.174 210.643C190.875 210.643 192.504 209.403 192.504 206.681C192.504 203.959 190.875 202.719 189.174 202.719C187.424 202.719 185.796 203.959 185.796 206.681C185.796 209.403 187.424 210.643 189.174 210.643ZM203.722 213.243C200.441 213.243 197.476 211.372 197.476 206.657C197.476 201.99 200.368 200.119 203.674 200.119C206.93 200.119 209.604 201.917 209.604 206.535C209.604 206.973 209.579 207.216 209.531 207.483H200.417C200.611 209.841 201.802 210.861 203.795 210.861C205.375 210.861 206.298 210.254 206.663 209.038H209.434C208.753 211.906 206.541 213.243 203.722 213.243ZM200.441 205.587H206.663C206.59 203.813 205.666 202.501 203.625 202.501C201.802 202.501 200.66 203.522 200.441 205.587ZM216.665 213.243C213.943 213.243 211.099 211.299 211.099 206.681C211.099 202.063 213.943 200.119 216.665 200.119C218.512 200.119 219.97 200.994 220.578 202.185V195.987H223.689V213H220.578V211.177C219.97 212.368 218.512 213.243 216.665 213.243ZM217.394 210.643C219.095 210.643 220.724 209.403 220.724 206.681C220.724 203.959 219.095 202.719 217.394 202.719C215.644 202.719 214.016 203.959 214.016 206.681C214.016 209.403 215.644 210.643 217.394 210.643ZM226.304 213V200.362H229.414V213H226.304ZM227.859 198.588C226.911 198.588 226.085 197.834 226.085 196.838C226.085 195.842 226.911 195.088 227.859 195.088C228.783 195.088 229.609 195.842 229.609 196.838C229.609 197.834 228.783 198.588 227.859 198.588ZM237.711 213.243C234.551 213.243 231.416 211.372 231.416 206.705C231.416 202.039 234.551 200.119 237.711 200.119C239.922 200.119 242.912 201.018 243.373 205.101H240.554C240.238 203.4 239.12 202.744 237.686 202.744C235.523 202.744 234.332 204.324 234.332 206.705C234.332 209.087 235.523 210.618 237.686 210.618C239.169 210.618 240.238 209.913 240.554 208.236H243.373C242.985 212.295 239.947 213.243 237.711 213.243ZM248.742 213.243C246.603 213.243 244.683 212.222 244.683 209.695C244.683 207.07 246.749 206.316 249.058 206.001L251.415 205.685C252.655 205.514 253.019 205.296 253.019 204.639V204.372C253.019 202.841 252.096 202.379 250.735 202.379C249.35 202.379 248.28 202.841 248.28 204.226V204.494H245.364V203.935C245.364 201.48 247.041 200.119 250.808 200.119C254.526 200.119 256.082 201.456 256.082 204.251V213H253.092V210.74H252.971C252.704 211.445 251.561 213.243 248.742 213.243ZM249.763 210.983C251.756 210.983 253.019 209.646 253.019 208.625V207.021C252.849 207.313 252.242 207.459 251.537 207.556L249.544 207.872C248.207 208.066 247.794 208.674 247.794 209.427C247.794 210.399 248.45 210.983 249.763 210.983ZM258.796 213V200.362H261.907V203.376H261.979C262.393 201.674 263.583 200.216 265.722 200.216C266.014 200.216 266.354 200.241 266.694 200.338V202.963C266.33 202.914 266.038 202.89 265.722 202.89C263.632 202.89 261.907 204.153 261.907 207.118V213H258.796ZM279.506 213.243C275.253 213.243 273.309 210.837 273.333 207.313H276.25C276.274 209.646 277.805 210.594 279.628 210.594C281.305 210.594 282.909 209.768 282.909 207.896C282.909 206.341 281.815 205.247 279.361 205.247H278.437V202.963H279.215C281.815 202.963 282.277 201.65 282.277 200.678C282.277 199.171 281.11 198.442 279.652 198.442C278.194 198.442 276.809 199.171 276.784 201.456H273.892C273.892 197.834 275.958 195.769 279.701 195.769C283.176 195.769 285.291 197.567 285.291 200.168C285.291 202.331 283.881 203.546 282.496 203.91C283.833 204.081 286.068 205.223 286.068 208.091C286.068 211.08 283.541 213.243 279.506 213.243ZM294.57 213.243C291.144 213.243 287.814 210.813 287.814 204.494C287.814 198.223 291.144 195.769 294.57 195.769C297.997 195.769 301.327 198.223 301.327 204.494C301.327 210.813 297.997 213.243 294.57 213.243ZM294.57 210.618C297.244 210.618 298.338 207.872 298.338 204.494C298.338 201.164 297.244 198.393 294.57 198.393C291.873 198.393 290.779 201.164 290.779 204.494C290.779 207.872 291.873 210.618 294.57 210.618ZM325.224 205.782C325.224 203.716 324.374 202.695 322.867 202.695C321.384 202.695 320.291 203.716 320.291 205.782V213H317.18V205.782C317.18 203.716 316.353 202.695 314.847 202.695C313.364 202.695 312.27 203.716 312.27 205.782V213H309.16V200.362H312.27V202.963H312.368C312.562 201.869 313.826 200.119 316.159 200.119C317.933 200.119 319.44 201.018 320.023 203.035C320.266 201.917 321.579 200.119 324.082 200.119C326.512 200.119 328.335 201.626 328.335 205.053V213H325.224V205.782ZM330.948 213V200.362H334.058V213H330.948ZM332.503 198.588C331.555 198.588 330.729 197.834 330.729 196.838C330.729 195.842 331.555 195.088 332.503 195.088C333.426 195.088 334.253 195.842 334.253 196.838C334.253 197.834 333.426 198.588 332.503 198.588ZM345.295 205.782C345.295 203.716 344.396 202.695 342.719 202.695C341.018 202.695 339.778 203.716 339.778 205.782V213H336.667V200.362H339.778V202.963H339.876C340.119 201.869 341.334 200.119 344.007 200.119C346.486 200.119 348.406 201.626 348.406 205.053V213H345.295V205.782ZM354.019 207.58C354.019 209.646 354.918 210.667 356.595 210.667C358.296 210.667 359.536 209.646 359.536 207.58V200.362H362.647V213H359.536V210.399H359.439C359.196 211.493 357.98 213.243 355.307 213.243C352.828 213.243 350.908 211.736 350.908 208.309V200.362H354.019V207.58ZM370.468 213.17C368.086 213.17 366.531 212.125 366.531 209.452V202.792H364.416V200.362H366.531V197.13H369.642V200.362H372.121V202.792H369.642V208.966C369.642 210.059 369.982 210.667 371.294 210.667C371.586 210.667 371.805 210.667 372.267 210.618V212.951C371.732 213.097 371.124 213.17 370.468 213.17ZM379.688 213.243C376.504 213.243 373.417 211.25 373.417 206.681C373.417 202.112 376.504 200.119 379.688 200.119C382.847 200.119 385.958 202.112 385.958 206.681C385.958 211.25 382.847 213.243 379.688 213.243ZM379.688 210.643C381.511 210.643 383.017 209.427 383.017 206.681C383.017 203.935 381.511 202.719 379.688 202.719C377.841 202.719 376.334 203.935 376.334 206.681C376.334 209.427 377.841 210.643 379.688 210.643ZM392.623 213.243C389.367 213.243 387.252 211.858 387.228 209.014H389.998C390.169 210.351 391.189 210.886 392.648 210.886C393.984 210.886 394.932 210.424 394.932 209.354C394.932 208.577 394.422 208.188 393.45 207.993L391.116 207.483C388.565 206.9 387.568 205.563 387.568 203.862C387.568 201.48 389.61 200.119 392.648 200.119C395.856 200.119 397.678 201.65 397.727 204.324H395.151C394.956 202.938 394.033 202.476 392.672 202.476C391.287 202.476 390.582 202.938 390.582 203.813C390.582 204.542 391.092 205.004 392.113 205.198L394.519 205.733C396.512 206.195 398.14 207.07 398.14 209.282C398.14 212.076 395.564 213.243 392.623 213.243ZM47.9888 254.618V237.362H51.0997V239.185C51.7073 237.994 53.1655 237.119 55.0126 237.119C57.7346 237.119 60.5782 239.063 60.5782 243.681C60.5782 248.299 57.7346 250.243 55.0126 250.243C53.1655 250.243 51.7073 249.368 51.0997 248.177V254.618H47.9888ZM54.2835 247.643C56.0333 247.643 57.6617 246.403 57.6617 243.681C57.6617 240.959 56.0333 239.719 54.2835 239.719C52.5822 239.719 50.9539 240.959 50.9539 243.681C50.9539 246.403 52.5822 247.643 54.2835 247.643ZM68.3668 250.243C65.183 250.243 62.0964 248.25 62.0964 243.681C62.0964 239.112 65.183 237.119 68.3668 237.119C71.5263 237.119 74.6371 239.112 74.6371 243.681C74.6371 248.25 71.5263 250.243 68.3668 250.243ZM68.3668 247.643C70.1895 247.643 71.6964 246.427 71.6964 243.681C71.6964 240.935 70.1895 239.719 68.3668 239.719C66.5197 239.719 65.0128 240.935 65.0128 243.681C65.0128 246.427 66.5197 247.643 68.3668 247.643ZM76.6359 250V237.362H79.7468V240.376H79.8197C80.2329 238.674 81.4238 237.216 83.5625 237.216C83.8542 237.216 84.1944 237.241 84.5347 237.338V239.963C84.1701 239.914 83.8785 239.89 83.5625 239.89C81.4724 239.89 79.7468 241.153 79.7468 244.118V250H76.6359ZM96.6176 250.243C93.8956 250.243 91.0521 248.299 91.0521 243.681C91.0521 239.063 93.8956 237.119 96.6176 237.119C98.4647 237.119 99.9229 237.994 100.531 239.185V232.987H103.641V250H100.531V248.177C99.9229 249.368 98.4647 250.243 96.6176 250.243ZM97.3467 247.643C99.048 247.643 100.676 246.403 100.676 243.681C100.676 240.959 99.048 239.719 97.3467 239.719C95.5969 239.719 93.9685 240.959 93.9685 243.681C93.9685 246.403 95.5969 247.643 97.3467 247.643ZM106.256 250V237.362H109.367V250H106.256ZM107.812 235.588C106.864 235.588 106.037 234.834 106.037 233.838C106.037 232.842 106.864 232.088 107.812 232.088C108.735 232.088 109.561 232.842 109.561 233.838C109.561 234.834 108.735 235.588 107.812 235.588ZM115.427 250.243C113.289 250.243 111.369 249.222 111.369 246.695C111.369 244.07 113.434 243.316 115.743 243.001L118.101 242.685C119.34 242.514 119.705 242.296 119.705 241.639V241.372C119.705 239.841 118.781 239.379 117.42 239.379C116.035 239.379 114.965 239.841 114.965 241.226V241.494H112.049V240.935C112.049 238.48 113.726 237.119 117.493 237.119C121.212 237.119 122.767 238.456 122.767 241.251V250H119.778V247.74H119.656C119.389 248.445 118.246 250.243 115.427 250.243ZM116.448 247.983C118.441 247.983 119.705 246.646 119.705 245.625V244.021C119.535 244.313 118.927 244.459 118.222 244.556L116.229 244.872C114.893 245.066 114.479 245.674 114.479 246.427C114.479 247.399 115.136 247.983 116.448 247.983ZM61.6475 324.486L60.1407 322.955C58.8769 323.781 57.3458 324.243 55.6202 324.243C50.8566 324.243 47.6242 320.816 47.6242 315.494C47.6242 310.147 50.8566 306.769 55.6202 306.769C60.3837 306.769 63.6404 310.147 63.6404 315.494C63.6404 317.73 63.0571 319.65 62.0364 321.108L63.5675 322.663L61.6475 324.486ZM55.6202 321.472C56.5437 321.472 57.3458 321.254 58.0263 320.816L55.4744 318.24L57.3944 316.417L59.7275 318.775C60.1164 317.875 60.3351 316.782 60.3351 315.494C60.3351 311.751 58.5366 309.539 55.6202 309.539C52.7037 309.539 50.9053 311.751 50.9053 315.494C50.9053 319.212 52.7037 321.472 55.6202 321.472ZM68.8766 318.58C68.8766 320.646 69.7758 321.667 71.4528 321.667C73.154 321.667 74.3935 320.646 74.3935 318.58V311.362H77.5044V324H74.3935V321.399H74.2963C74.0533 322.493 72.8381 324.243 70.1647 324.243C67.6857 324.243 65.7657 322.736 65.7657 319.309V311.362H68.8766V318.58ZM85.7633 324.243C82.4823 324.243 79.5173 322.372 79.5173 317.657C79.5173 312.99 82.4094 311.119 85.7147 311.119C88.9714 311.119 91.6448 312.917 91.6448 317.535C91.6448 317.973 91.6205 318.216 91.5719 318.483H82.458C82.6524 320.841 83.8433 321.861 85.8362 321.861C87.416 321.861 88.3395 321.254 88.7041 320.038H91.4747C90.7942 322.906 88.5826 324.243 85.7633 324.243ZM82.4823 316.587H88.7041C88.6312 314.813 87.7076 313.501 85.6661 313.501C83.8433 313.501 82.7011 314.522 82.4823 316.587ZM109.694 316.782C109.694 314.716 108.844 313.695 107.337 313.695C105.854 313.695 104.761 314.716 104.761 316.782V324H101.65V316.782C101.65 314.716 100.824 313.695 99.3167 313.695C97.8341 313.695 96.7405 314.716 96.7405 316.782V324H93.6296V311.362H96.7405V313.963H96.8377C97.0321 312.869 98.2959 311.119 100.629 311.119C102.403 311.119 103.91 312.018 104.493 314.035C104.736 312.917 106.049 311.119 108.552 311.119C110.982 311.119 112.805 312.626 112.805 316.053V324H109.694V316.782ZM133.001 328.618H129.89V322.177C129.282 323.368 127.824 324.243 125.977 324.243C123.255 324.243 120.411 322.299 120.411 317.681C120.411 313.063 123.255 311.119 125.977 311.119C127.824 311.119 129.282 311.994 129.89 313.185V311.362H133.001V328.618ZM126.706 321.643C128.407 321.643 130.036 320.403 130.036 317.681C130.036 314.959 128.407 313.719 126.706 313.719C124.956 313.719 123.328 314.959 123.328 317.681C123.328 320.403 124.956 321.643 126.706 321.643ZM138.726 318.58C138.726 320.646 139.625 321.667 141.302 321.667C143.004 321.667 144.243 320.646 144.243 318.58V311.362H147.354V324H144.243V321.399H144.146C143.903 322.493 142.688 324.243 140.014 324.243C137.535 324.243 135.615 322.736 135.615 319.309V311.362H138.726V318.58ZM155.613 324.243C152.332 324.243 149.367 322.372 149.367 317.657C149.367 312.99 152.259 311.119 155.564 311.119C158.821 311.119 161.494 312.917 161.494 317.535C161.494 317.973 161.47 318.216 161.422 318.483H152.308C152.502 320.841 153.693 321.861 155.686 321.861C157.266 321.861 158.189 321.254 158.554 320.038H161.324C160.644 322.906 158.432 324.243 155.613 324.243ZM152.332 316.587H158.554C158.481 314.813 157.557 313.501 155.516 313.501C153.693 313.501 152.551 314.522 152.332 316.587ZM163.479 324V311.362H166.59V314.376H166.663C167.076 312.674 168.267 311.216 170.406 311.216C170.697 311.216 171.038 311.241 171.378 311.338V313.963C171.013 313.914 170.722 313.89 170.406 313.89C168.316 313.89 166.59 315.153 166.59 318.118V324H163.479ZM181.954 324.243C179.815 324.243 177.895 323.222 177.895 320.695C177.895 318.07 179.961 317.316 182.27 317.001L184.628 316.685C185.867 316.514 186.232 316.296 186.232 315.639V315.372C186.232 313.841 185.308 313.379 183.947 313.379C182.562 313.379 181.492 313.841 181.492 315.226V315.494H178.576V314.935C178.576 312.48 180.253 311.119 184.02 311.119C187.738 311.119 189.294 312.456 189.294 315.251V324H186.304V321.74H186.183C185.916 322.445 184.773 324.243 181.954 324.243ZM182.975 321.983C184.968 321.983 186.232 320.646 186.232 319.625V318.021C186.061 318.313 185.454 318.459 184.749 318.556L182.756 318.872C181.419 319.066 181.006 319.674 181.006 320.427C181.006 321.399 181.662 321.983 182.975 321.983ZM196.734 324.17C194.352 324.17 192.797 323.125 192.797 320.452V313.792H190.682V311.362H192.797V308.13H195.908V311.362H198.387V313.792H195.908V319.966C195.908 321.059 196.248 321.667 197.56 321.667C197.852 321.667 198.071 321.667 198.533 321.618V323.951C197.998 324.097 197.39 324.17 196.734 324.17ZM200.41 324V311.362H203.52V324H200.41ZM201.965 309.588C201.017 309.588 200.191 308.834 200.191 307.838C200.191 306.842 201.017 306.088 201.965 306.088C202.889 306.088 203.715 306.842 203.715 307.838C203.715 308.834 202.889 309.588 201.965 309.588ZM209.827 324L205.16 311.362H208.32L211.722 321.035H211.844L215.246 311.362H218.43L213.739 324H209.827ZM222.729 324.243C220.591 324.243 218.671 323.222 218.671 320.695C218.671 318.07 220.736 317.316 223.045 317.001L225.403 316.685C226.642 316.514 227.007 316.296 227.007 315.639V315.372C227.007 313.841 226.083 313.379 224.722 313.379C223.337 313.379 222.268 313.841 222.268 315.226V315.494H219.351V314.935C219.351 312.48 221.028 311.119 224.795 311.119C228.514 311.119 230.069 312.456 230.069 315.251V324H227.08V321.74H226.958C226.691 322.445 225.549 324.243 222.729 324.243ZM223.75 321.983C225.743 321.983 227.007 320.646 227.007 319.625V318.021C226.837 318.313 226.229 318.459 225.524 318.556L223.531 318.872C222.195 319.066 221.782 319.674 221.782 320.427C221.782 321.399 222.438 321.983 223.75 321.983ZM232.783 324V311.362H235.894V314.376H235.967C236.38 312.674 237.571 311.216 239.71 311.216C240.001 311.216 240.341 311.241 240.682 311.338V313.963C240.317 313.914 240.026 313.89 239.71 313.89C237.619 313.89 235.894 315.153 235.894 318.118V324H232.783ZM253.445 324.243C250.164 324.243 247.199 322.372 247.199 317.657C247.199 312.99 250.091 311.119 253.397 311.119C256.653 311.119 259.327 312.917 259.327 317.535C259.327 317.973 259.302 318.216 259.254 318.483H250.14C250.334 320.841 251.525 321.861 253.518 321.861C255.098 321.861 256.021 321.254 256.386 320.038H259.157C258.476 322.906 256.264 324.243 253.445 324.243ZM250.164 316.587H256.386C256.313 314.813 255.389 313.501 253.348 313.501C251.525 313.501 250.383 314.522 250.164 316.587ZM265.978 324.243C262.721 324.243 260.607 322.858 260.582 320.014H263.353C263.523 321.351 264.544 321.886 266.002 321.886C267.339 321.886 268.287 321.424 268.287 320.354C268.287 319.577 267.776 319.188 266.804 318.993L264.471 318.483C261.919 317.9 260.923 316.563 260.923 314.862C260.923 312.48 262.964 311.119 266.002 311.119C269.21 311.119 271.033 312.65 271.082 315.324H268.505C268.311 313.938 267.387 313.476 266.026 313.476C264.641 313.476 263.936 313.938 263.936 314.813C263.936 315.542 264.447 316.004 265.467 316.198L267.873 316.733C269.866 317.195 271.495 318.07 271.495 320.282C271.495 323.076 268.919 324.243 265.978 324.243ZM278.569 324.17C276.188 324.17 274.632 323.125 274.632 320.452V313.792H272.518V311.362H274.632V308.13H277.743V311.362H280.222V313.792H277.743V319.966C277.743 321.059 278.083 321.667 279.396 321.667C279.687 321.667 279.906 321.667 280.368 321.618V323.951C279.833 324.097 279.226 324.17 278.569 324.17ZM282.245 324V311.362H285.356V314.376H285.429C285.842 312.674 287.033 311.216 289.172 311.216C289.463 311.216 289.803 311.241 290.144 311.338V313.963C289.779 313.914 289.488 313.89 289.172 313.89C287.081 313.89 285.356 315.153 285.356 318.118V324H282.245ZM295.016 318.58C295.016 320.646 295.915 321.667 297.592 321.667C299.293 321.667 300.533 320.646 300.533 318.58V311.362H303.644V324H300.533V321.399H300.435C300.192 322.493 298.977 324.243 296.304 324.243C293.825 324.243 291.905 322.736 291.905 319.309V311.362H295.016V318.58ZM311.465 324.17C309.083 324.17 307.528 323.125 307.528 320.452V313.792H305.413V311.362H307.528V308.13H310.639V311.362H313.118V313.792H310.639V319.966C310.639 321.059 310.979 321.667 312.291 321.667C312.583 321.667 312.802 321.667 313.263 321.618V323.951C312.729 324.097 312.121 324.17 311.465 324.17ZM318.251 318.58C318.251 320.646 319.151 321.667 320.828 321.667C322.529 321.667 323.768 320.646 323.768 318.58V311.362H326.879V324H323.768V321.399H323.671C323.428 322.493 322.213 324.243 319.54 324.243C317.061 324.243 315.141 322.736 315.141 319.309V311.362H318.251V318.58ZM329.5 324V311.362H332.611V314.376H332.684C333.097 312.674 334.288 311.216 336.426 311.216C336.718 311.216 337.058 311.241 337.398 311.338V313.963C337.034 313.914 336.742 313.89 336.426 313.89C334.336 313.89 332.611 315.153 332.611 318.118V324H329.5ZM341.994 324.243C339.855 324.243 337.935 323.222 337.935 320.695C337.935 318.07 340.001 317.316 342.31 317.001L344.667 316.685C345.906 316.514 346.271 316.296 346.271 315.639V315.372C346.271 313.841 345.347 313.379 343.986 313.379C342.601 313.379 341.532 313.841 341.532 315.226V315.494H338.615V314.935C338.615 312.48 340.292 311.119 344.059 311.119C347.778 311.119 349.333 312.456 349.333 315.251V324H346.344V321.74H346.222C345.955 322.445 344.813 324.243 341.994 324.243ZM343.014 321.983C345.007 321.983 346.271 320.646 346.271 319.625V318.021C346.101 318.313 345.493 318.459 344.788 318.556L342.796 318.872C341.459 319.066 341.046 319.674 341.046 320.427C341.046 321.399 341.702 321.983 343.014 321.983ZM51.4399 361.243C49.3012 361.243 47.3812 360.222 47.3812 357.695C47.3812 355.07 49.447 354.316 51.7559 354.001L54.1133 353.685C55.3528 353.514 55.7174 353.296 55.7174 352.639V352.372C55.7174 350.841 54.7939 350.379 53.4328 350.379C52.0475 350.379 50.9782 350.841 50.9782 352.226V352.494H48.0617V351.935C48.0617 349.48 49.7387 348.119 53.5058 348.119C57.2242 348.119 58.7797 349.456 58.7797 352.251V361H55.7903V358.74H55.6688C55.4015 359.445 54.2592 361.243 51.4399 361.243ZM52.4607 358.983C54.4536 358.983 55.7174 357.646 55.7174 356.625V355.021C55.5473 355.313 54.9397 355.459 54.2349 355.556L52.242 355.872C50.9053 356.066 50.4921 356.674 50.4921 357.427C50.4921 358.399 51.1483 358.983 52.4607 358.983ZM64.0111 355.58C64.0111 357.646 64.9103 358.667 66.5873 358.667C68.2885 358.667 69.528 357.646 69.528 355.58V348.362H72.6389V361H69.528V358.399H69.4308C69.1878 359.493 67.9726 361.243 65.2992 361.243C62.8202 361.243 60.9002 359.736 60.9002 356.309V348.362H64.0111V355.58ZM80.4604 361.17C78.0786 361.17 76.5231 360.125 76.5231 357.452V350.792H74.4087V348.362H76.5231V345.13H79.634V348.362H82.113V350.792H79.634V356.966C79.634 358.059 79.9743 358.667 81.2867 358.667C81.5783 358.667 81.7971 358.667 82.2588 358.618V360.951C81.7242 361.097 81.1166 361.17 80.4604 361.17ZM89.68 361.243C86.4962 361.243 83.4097 359.25 83.4097 354.681C83.4097 350.112 86.4962 348.119 89.68 348.119C92.8395 348.119 95.9504 350.112 95.9504 354.681C95.9504 359.25 92.8395 361.243 89.68 361.243ZM89.68 358.643C91.5028 358.643 93.0097 357.427 93.0097 354.681C93.0097 351.935 91.5028 350.719 89.68 350.719C87.8329 350.719 86.3261 351.935 86.3261 354.681C86.3261 357.427 87.8329 358.643 89.68 358.643ZM114.014 353.782C114.014 351.716 113.163 350.695 111.657 350.695C110.174 350.695 109.08 351.716 109.08 353.782V361H105.969V353.782C105.969 351.716 105.143 350.695 103.636 350.695C102.154 350.695 101.06 351.716 101.06 353.782V361H97.9492V348.362H101.06V350.963H101.157C101.352 349.869 102.616 348.119 104.949 348.119C106.723 348.119 108.23 349.018 108.813 351.035C109.056 349.917 110.368 348.119 112.872 348.119C115.302 348.119 117.125 349.626 117.125 353.053V361H114.014V353.782ZM123.188 361.243C121.05 361.243 119.13 360.222 119.13 357.695C119.13 355.07 121.195 354.316 123.504 354.001L125.862 353.685C127.101 353.514 127.466 353.296 127.466 352.639V352.372C127.466 350.841 126.542 350.379 125.181 350.379C123.796 350.379 122.727 350.841 122.727 352.226V352.494H119.81V351.935C119.81 349.48 121.487 348.119 125.254 348.119C128.973 348.119 130.528 349.456 130.528 352.251V361H127.539V358.74H127.417C127.15 359.445 126.008 361.243 123.188 361.243ZM124.209 358.983C126.202 358.983 127.466 357.646 127.466 356.625V355.021C127.296 355.313 126.688 355.459 125.983 355.556L123.99 355.872C122.654 356.066 122.24 356.674 122.24 357.427C122.24 358.399 122.897 358.983 124.209 358.983ZM123.917 346.88L126.445 343.55H129.167L126.639 346.88H123.917ZM138.134 361.17C135.753 361.17 134.197 360.125 134.197 357.452V350.792H132.083V348.362H134.197V345.13H137.308V348.362H139.787V350.792H137.308V356.966C137.308 358.059 137.648 358.667 138.961 358.667C139.252 358.667 139.471 358.667 139.933 358.618V360.951C139.398 361.097 138.791 361.17 138.134 361.17ZM141.81 361V348.362H144.921V361H141.81ZM143.365 346.588C142.418 346.588 141.591 345.834 141.591 344.838C141.591 343.842 142.418 343.088 143.365 343.088C144.289 343.088 145.115 343.842 145.115 344.838C145.115 345.834 144.289 346.588 143.365 346.588ZM153.217 361.243C150.057 361.243 146.922 359.372 146.922 354.705C146.922 350.039 150.057 348.119 153.217 348.119C155.429 348.119 158.418 349.018 158.88 353.101H156.061C155.745 351.4 154.627 350.744 153.193 350.744C151.03 350.744 149.839 352.324 149.839 354.705C149.839 357.087 151.03 358.618 153.193 358.618C154.675 358.618 155.745 357.913 156.061 356.236H158.88C158.491 360.295 155.453 361.243 153.217 361.243ZM164.248 361.243C162.11 361.243 160.19 360.222 160.19 357.695C160.19 355.07 162.256 354.316 164.564 354.001L166.922 353.685C168.161 353.514 168.526 353.296 168.526 352.639V352.372C168.526 350.841 167.602 350.379 166.241 350.379C164.856 350.379 163.787 350.841 163.787 352.226V352.494H160.87V351.935C160.87 349.48 162.547 348.119 166.314 348.119C170.033 348.119 171.588 349.456 171.588 352.251V361H168.599V358.74H168.477C168.21 359.445 167.068 361.243 164.248 361.243ZM165.269 358.983C167.262 358.983 168.526 357.646 168.526 356.625V355.021C168.356 355.313 167.748 355.459 167.043 355.556L165.05 355.872C163.714 356.066 163.301 356.674 163.301 357.427C163.301 358.399 163.957 358.983 165.269 358.983Z" fill="white"></path></svg>