<svg xmlns="http://www.w3.org/2000/svg" width="44" height="42" viewBox="0 0 44 42" fill="none"><path d="M21.542 1.10449C32.8563 1.10449 41.9793 10.0342 41.9795 20.9893C41.9795 31.9445 32.8564 40.875 21.542 40.875C10.2276 40.875 1.10449 31.9445 1.10449 20.9893C1.10471 10.0342 10.2277 1.1045 21.542 1.10449Z" fill="url(#paint0_linear_11_99)" stroke="#FFD9CD" stroke-width="2.20943"></path><path fill-rule="evenodd" clip-rule="evenodd" d="M20.624 26.1181L13.2591 18.4801L15.1 16.5709L21.5444 23.2543L27.9889 16.5709L29.8298 18.4801L22.4649 26.1181C22.2208 26.3712 21.8897 26.5134 21.5444 26.5134C21.1992 26.5134 20.8681 26.3712 20.624 26.1181Z" fill="url(#paint1_linear_11_99)"></path><defs><linearGradient id="paint0_linear_11_99" x1="0" y1="20.9896" x2="43.084" y2="20.9896" gradientUnits="userSpaceOnUse"><stop stop-color="#EA501F"></stop><stop offset="1" stop-color="#BF2E00"></stop></linearGradient><linearGradient id="paint1_linear_11_99" x1="21.5444" y1="16.5709" x2="21.5444" y2="26.5134" gradientUnits="userSpaceOnUse"><stop stop-color="white"></stop><stop offset="1" stop-color="#FFDCD3"></stop></linearGradient></defs></svg>