<svg xmlns="http://www.w3.org/2000/svg" width="1913" height="489" viewBox="0 0 1913 489" fill="none"><path opacity="0.1" d="M153.808 488.106C130.441 488.106 107.945 484.967 86.321 478.69C64.6971 472.412 46.2122 463.692 30.8663 452.532C15.8691 441.371 5.58032 428.99 -2.82473e-05 415.388L54.4084 396.554C61.7326 419.573 73.4164 436.488 89.4599 447.3C105.503 458.112 127.302 463.518 154.855 463.518C178.92 463.518 198.102 457.24 212.402 444.684C227.05 432.129 234.375 415.562 234.375 394.984C234.375 380.336 231.061 368.826 224.435 360.456C218.157 352.085 209.437 345.633 198.277 341.099C187.465 336.565 170.724 330.985 148.054 324.358C119.454 316.336 94.8659 307.791 74.2884 298.723C53.7108 289.655 36.0978 277.448 21.4494 262.102C7.14979 246.756 -2.82473e-05 227.923 -2.82473e-05 205.601C-2.82473e-05 186.07 7.14979 168.283 21.4494 152.239C36.0978 136.196 55.8035 123.466 80.5662 114.049C105.678 104.632 133.231 99.9235 163.225 99.9235C186.593 99.9235 208.74 103.062 229.666 109.34C250.941 115.618 269.077 124.337 284.075 135.498C299.421 146.659 309.884 159.04 315.464 172.642L261.056 191.476C253.731 168.108 242.222 151.193 226.527 140.73C210.832 129.918 189.383 124.512 162.179 124.512C137.765 124.512 118.408 130.79 104.108 143.346C89.8087 155.553 82.6589 171.945 82.6589 192.522C82.6589 207.171 85.7978 218.68 92.0757 227.051C98.7024 235.073 107.422 241.176 118.234 245.361C129.046 249.547 145.961 254.953 168.98 261.579C197.928 269.95 222.691 278.843 243.268 288.26C264.195 297.328 281.633 309.71 295.584 325.404C309.884 340.75 317.033 359.758 317.033 382.429C317.033 401.96 309.709 419.747 295.061 435.791C280.761 451.834 261.056 464.564 235.944 473.981C211.181 483.398 183.803 488.106 153.808 488.106ZM371.421 105.678H454.08V273.089H623.06V105.678H705.719V482.352H623.06V302.909H454.08V482.352H371.421V105.678ZM976.4 487.583C934.547 487.583 896.706 479.213 862.875 462.472C829.393 445.731 803.06 422.712 783.878 393.415C764.696 364.118 755.104 331.159 755.104 294.538C755.104 257.917 764.696 224.958 783.878 195.661C803.06 166.016 829.567 142.822 863.398 126.081C897.229 108.992 935.071 100.447 976.923 100.447C1018.78 100.447 1056.62 108.817 1090.45 125.558C1124.28 142.299 1150.79 165.493 1169.97 195.138C1189.15 224.784 1198.74 257.917 1198.74 294.538C1198.74 331.159 1189.15 364.118 1169.97 393.415C1150.79 422.712 1124.28 445.731 1090.45 462.472C1056.62 479.213 1018.6 487.583 976.4 487.583ZM976.923 462.995C1003.43 462.995 1026.97 455.845 1047.55 441.545C1068.13 427.246 1084.17 407.366 1095.68 381.905C1107.54 356.096 1113.47 326.974 1113.47 294.538C1113.47 262.451 1107.54 233.503 1095.68 207.694C1083.82 181.885 1067.43 161.656 1046.5 147.008C1025.93 132.359 1002.73 125.035 976.923 125.035C951.114 125.035 927.746 132.359 906.82 147.008C886.243 161.656 870.025 181.885 858.166 207.694C846.308 233.503 840.379 262.451 840.379 294.538C840.379 326.974 846.134 356.096 857.643 381.905C869.501 407.366 885.719 427.246 906.297 441.545C927.223 455.845 950.765 462.995 976.923 462.995ZM936.64 0.000361146H1028.19L1081.55 86.3214H1047.03L982.678 22.4962L917.806 86.3214H883.278L936.64 0.000361146ZM1415.3 105.678H1497.96V482.352H1415.3V105.678ZM1691.65 105.678H1759.14L1912.42 482.352H1828.19L1779.54 363.072H1629.39L1581.26 482.352H1540.46L1691.65 105.678ZM1767.51 333.252L1703.68 177.351L1640.9 333.252H1767.51Z" fill="#0F0904"></path></svg>