<svg xmlns="http://www.w3.org/2000/svg" width="295" height="26" viewBox="0 0 295 26" fill="none"><path d="M-8.34729e-05 25.5987V3.58207H5.67022V5.62752H2.46827V23.5533H5.67022V25.5987H-8.34729e-05ZM294.689 3.58207V25.5987H289.019V23.5533H292.221V5.62752H289.019V3.58207H294.689Z" fill="url(#paint0_linear_24_204)"></path><path d="M16.8332 8.04409V5.74835H30.5127V8.04409H24.9978V23.4238H22.3395V8.04409H16.8332ZM37.6607 5.74835V23.4238H34.9938V5.74835H37.6607ZM43.0027 23.4238V5.74835H49.303C50.6724 5.74835 51.8088 5.98425 52.7121 6.45606C53.6212 6.92786 54.3001 7.58091 54.7489 8.41521C55.1977 9.24374 55.4221 10.2017 55.4221 11.2892C55.4221 12.3709 55.1949 13.3231 54.7403 14.1459C54.2915 14.963 53.6126 15.5987 52.7035 16.0533C51.8001 16.5078 50.6638 16.7351 49.2944 16.7351H44.5217V14.4394H49.0527C49.9158 14.4394 50.6178 14.3157 51.1586 14.0683C51.7052 13.8208 52.1051 13.4612 52.3583 12.9894C52.6114 12.5176 52.738 11.9509 52.738 11.2892C52.738 10.6218 52.6085 10.0435 52.3496 9.55445C52.0965 9.06538 51.6966 8.69139 51.15 8.43247C50.6091 8.1678 49.8985 8.03546 49.0182 8.03546H45.6695V23.4238H43.0027ZM51.7282 15.4491L56.0953 23.4238H53.0573L48.7766 15.4491H51.7282ZM60.1255 23.4238V5.74835H71.2072V8.04409H62.7923V13.4296H70.6289V15.7167H62.7923V21.1281H71.3107V23.4238H60.1255ZM93.7582 10.3916C93.6662 9.57458 93.2864 8.94167 92.619 8.49288C91.9516 8.03834 91.1115 7.81106 90.0989 7.81106C89.3739 7.81106 88.7467 7.92614 88.2174 8.15629C87.688 8.38068 87.2767 8.69139 86.9832 9.08839C86.6955 9.47965 86.5517 9.92556 86.5517 10.4261C86.5517 10.8462 86.6495 11.2086 86.8451 11.5136C87.0465 11.8185 87.3083 12.0746 87.6305 12.2817C87.9585 12.4831 88.3094 12.6528 88.6834 12.7909C89.0574 12.9233 89.417 13.0326 89.7623 13.1189L91.4884 13.5677C92.0523 13.7058 92.6305 13.8928 93.2231 14.1287C93.8158 14.3646 94.3653 14.6753 94.8716 15.0608C95.3779 15.4463 95.7864 15.9238 96.0971 16.4935C96.4136 17.0631 96.5718 17.7449 96.5718 18.5389C96.5718 19.5401 96.3129 20.429 95.7951 21.2058C95.283 21.9825 94.5379 22.5953 93.5597 23.0441C92.5874 23.4929 91.4107 23.7173 90.0298 23.7173C88.7065 23.7173 87.5615 23.5073 86.5948 23.0872C85.6282 22.6672 84.8716 22.0717 84.325 21.3007C83.7784 20.5239 83.4763 19.6033 83.4188 18.5389H86.0943C86.146 19.1776 86.3532 19.7098 86.7157 20.1356C87.0839 20.5556 87.5528 20.8692 88.1225 21.0763C88.6978 21.2777 89.3279 21.3784 90.0126 21.3784C90.7663 21.3784 91.4366 21.2604 92.0235 21.0245C92.6161 20.7829 93.0822 20.4491 93.4216 20.0234C93.7611 19.5918 93.9308 19.0884 93.9308 18.513C93.9308 17.9894 93.7813 17.5608 93.4821 17.2271C93.1886 16.8933 92.7887 16.6172 92.2824 16.3985C91.7818 16.1799 91.2151 15.9871 90.5822 15.8203L88.4936 15.2506C87.0781 14.8651 85.9562 14.2984 85.1276 13.5504C84.3048 12.8024 83.8935 11.8128 83.8935 10.5815C83.8935 9.56308 84.1696 8.67412 84.722 7.91463C85.2744 7.15514 86.0223 6.56538 86.966 6.14536C87.9096 5.71958 88.974 5.50669 90.1593 5.50669C91.3561 5.50669 92.4119 5.7167 93.3267 6.13673C94.2473 6.55675 94.9723 7.135 95.5016 7.87148C96.031 8.6022 96.3071 9.44225 96.3302 10.3916H93.7582ZM112.583 5.74835H115.259V17.3738C115.259 18.6108 114.968 19.7069 114.387 20.662C113.806 21.6114 112.989 22.3594 111.936 22.906C110.883 23.4468 109.649 23.7173 108.234 23.7173C106.824 23.7173 105.593 23.4468 104.54 22.906C103.487 22.3594 102.67 21.6114 102.089 20.662C101.507 19.7069 101.217 18.6108 101.217 17.3738V5.74835H103.884V17.158C103.884 17.9578 104.059 18.6684 104.41 19.2898C104.767 19.9112 105.27 20.4002 105.921 20.757C106.571 21.1079 107.342 21.2834 108.234 21.2834C109.131 21.2834 109.905 21.1079 110.555 20.757C111.211 20.4002 111.712 19.9112 112.057 19.2898C112.408 18.6684 112.583 17.9578 112.583 17.158V5.74835ZM122.088 23.4238H119.257L125.617 5.74835H128.699L135.059 23.4238H132.228L127.231 8.95893H127.093L122.088 23.4238ZM122.562 16.5021H131.745V18.746H122.562V16.5021ZM148.568 10.3916C148.476 9.57458 148.096 8.94167 147.429 8.49288C146.761 8.03834 145.921 7.81106 144.909 7.81106C144.184 7.81106 143.557 7.92614 143.027 8.15629C142.498 8.38068 142.086 8.69139 141.793 9.08839C141.505 9.47965 141.361 9.92556 141.361 10.4261C141.361 10.8462 141.459 11.2086 141.655 11.5136C141.856 11.8185 142.118 12.0746 142.44 12.2817C142.768 12.4831 143.119 12.6528 143.493 12.7909C143.867 12.9233 144.227 13.0326 144.572 13.1189L146.298 13.5677C146.862 13.7058 147.44 13.8928 148.033 14.1287C148.626 14.3646 149.175 14.6753 149.681 15.0608C150.188 15.4463 150.596 15.9238 150.907 16.4935C151.223 17.0631 151.382 17.7449 151.382 18.5389C151.382 19.5401 151.123 20.429 150.605 21.2058C150.093 21.9825 149.348 22.5953 148.37 23.0441C147.397 23.4929 146.22 23.7173 144.84 23.7173C143.516 23.7173 142.371 23.5073 141.405 23.0872C140.438 22.6672 139.681 22.0717 139.135 21.3007C138.588 20.5239 138.286 19.6033 138.229 18.5389H140.904C140.956 19.1776 141.163 19.7098 141.525 20.1356C141.894 20.5556 142.363 20.8692 142.932 21.0763C143.508 21.2777 144.138 21.3784 144.822 21.3784C145.576 21.3784 146.246 21.2604 146.833 21.0245C147.426 20.7829 147.892 20.4491 148.231 20.0234C148.571 19.5918 148.741 19.0884 148.741 18.513C148.741 17.9894 148.591 17.5608 148.292 17.2271C147.998 16.8933 147.599 16.6172 147.092 16.3985C146.592 16.1799 146.025 15.9871 145.392 15.8203L143.303 15.2506C141.888 14.8651 140.766 14.2984 139.937 13.5504C139.115 12.8024 138.703 11.8128 138.703 10.5815C138.703 9.56308 138.979 8.67412 139.532 7.91463C140.084 7.15514 140.832 6.56538 141.776 6.14536C142.719 5.71958 143.784 5.50669 144.969 5.50669C146.166 5.50669 147.222 5.7167 148.136 6.13673C149.057 6.55675 149.782 7.135 150.311 7.87148C150.841 8.6022 151.117 9.44225 151.14 10.3916H148.568ZM169.639 23.4238H163.917V5.74835H169.82C171.552 5.74835 173.039 6.1022 174.282 6.80991C175.525 7.51187 176.477 8.52165 177.139 9.83926C177.806 11.1511 178.14 12.7248 178.14 14.5602C178.14 16.4014 177.804 17.9837 177.13 19.307C176.463 20.6304 175.496 21.6488 174.23 22.3623C172.965 23.07 171.434 23.4238 169.639 23.4238ZM166.584 21.0936H169.492C170.839 21.0936 171.958 20.8404 172.85 20.3341C173.741 19.822 174.409 19.0826 174.852 18.116C175.295 17.1436 175.516 15.9584 175.516 14.5602C175.516 13.1735 175.295 11.9969 174.852 11.0303C174.415 10.0637 173.762 9.33005 172.893 8.82947C172.024 8.3289 170.945 8.07861 169.656 8.07861H166.584V21.0936ZM194.281 5.74835H196.957V17.3738C196.957 18.6108 196.666 19.7069 196.085 20.662C195.504 21.6114 194.687 22.3594 193.634 22.906C192.581 23.4468 191.347 23.7173 189.931 23.7173C188.522 23.7173 187.29 23.4468 186.237 22.906C185.184 22.3594 184.367 21.6114 183.786 20.662C183.205 19.7069 182.915 18.6108 182.915 17.3738V5.74835H185.581V17.158C185.581 17.9578 185.757 18.6684 186.108 19.2898C186.465 19.9112 186.968 20.4002 187.618 20.757C188.268 21.1079 189.039 21.2834 189.931 21.2834C190.829 21.2834 191.603 21.1079 192.253 20.757C192.909 20.4002 193.409 19.9112 193.755 19.2898C194.106 18.6684 194.281 17.9578 194.281 17.158V5.74835ZM188.87 3.97907L190.889 0.00036575H193.608L190.932 3.97907H188.87ZM203.837 5.74835L208.756 20.1442H208.955L213.874 5.74835H216.757L210.396 23.4238H207.315L200.954 5.74835H203.837ZM223.435 5.74835V23.4238H220.768V5.74835H223.435ZM234.499 23.4238H228.777V5.74835H234.68C236.412 5.74835 237.899 6.1022 239.142 6.80991C240.385 7.51187 241.337 8.52165 241.999 9.83926C242.666 11.1511 243 12.7248 243 14.5602C243 16.4014 242.663 17.9837 241.99 19.307C241.323 20.6304 240.356 21.6488 239.09 22.3623C237.824 23.07 236.294 23.4238 234.499 23.4238ZM231.443 21.0936H234.352C235.698 21.0936 236.817 20.8404 237.709 20.3341C238.601 19.822 239.269 19.0826 239.712 18.116C240.155 17.1436 240.376 15.9584 240.376 14.5602C240.376 13.1735 240.155 11.9969 239.712 11.0303C239.274 10.0637 238.621 9.33005 237.752 8.82947C236.884 8.3289 235.805 8.07861 234.516 8.07861H231.443V21.0936ZM248.389 23.4238H245.558L251.919 5.74835H255L261.361 23.4238H258.53L253.533 8.95893H253.395L248.389 23.4238ZM248.864 16.5021H258.047V18.746H248.864V16.5021ZM274.87 10.3916C274.778 9.57458 274.398 8.94167 273.731 8.49288C273.063 8.03834 272.223 7.81106 271.21 7.81106C270.485 7.81106 269.858 7.92614 269.329 8.15629C268.8 8.38068 268.388 8.69139 268.095 9.08839C267.807 9.47965 267.663 9.92556 267.663 10.4261C267.663 10.8462 267.761 11.2086 267.957 11.5136C268.158 11.8185 268.42 12.0746 268.742 12.2817C269.07 12.4831 269.421 12.6528 269.795 12.7909C270.169 12.9233 270.529 13.0326 270.874 13.1189L272.6 13.5677C273.164 13.7058 273.742 13.8928 274.335 14.1287C274.927 14.3646 275.477 14.6753 275.983 15.0608C276.49 15.4463 276.898 15.9238 277.209 16.4935C277.525 17.0631 277.683 17.7449 277.683 18.5389C277.683 19.5401 277.424 20.429 276.907 21.2058C276.395 21.9825 275.649 22.5953 274.671 23.0441C273.699 23.4929 272.522 23.7173 271.141 23.7173C269.818 23.7173 268.673 23.5073 267.706 23.0872C266.74 22.6672 265.983 22.0717 265.437 21.3007C264.89 20.5239 264.588 19.6033 264.53 18.5389H267.206C267.258 19.1776 267.465 19.7098 267.827 20.1356C268.196 20.5556 268.664 20.8692 269.234 21.0763C269.809 21.2777 270.439 21.3784 271.124 21.3784C271.878 21.3784 272.548 21.2604 273.135 21.0245C273.728 20.7829 274.194 20.4491 274.533 20.0234C274.873 19.5918 275.042 19.0884 275.042 18.513C275.042 17.9894 274.893 17.5608 274.594 17.2271C274.3 16.8933 273.9 16.6172 273.394 16.3985C272.893 16.1799 272.327 15.9871 271.694 15.8203L269.605 15.2506C268.19 14.8651 267.068 14.2984 266.239 13.5504C265.416 12.8024 265.005 11.8128 265.005 10.5815C265.005 9.56308 265.281 8.67412 265.834 7.91463C266.386 7.15514 267.134 6.56538 268.078 6.14536C269.021 5.71958 270.086 5.50669 271.271 5.50669C272.468 5.50669 273.523 5.7167 274.438 6.13673C275.359 6.55675 276.084 7.135 276.613 7.87148C277.143 8.6022 277.419 9.44225 277.442 10.3916H274.87Z" fill="black"></path><defs><linearGradient id="paint0_linear_24_204" x1="-15.1543" y1="18.4238" x2="309.846" y2="18.4238" gradientUnits="userSpaceOnUse"><stop stop-color="#EA501F"></stop><stop offset="1" stop-color="#BF2E00"></stop></linearGradient></defs></svg>